<svg width="1824" height="1206" xmlns="http://www.w3.org/2000/svg" xmlns:xlink="http://www.w3.org/1999/xlink" xml:space="preserve" overflow="hidden"><defs><clipPath id="clip0"><rect x="153" y="766" width="1824" height="1206"/></clipPath><clipPath id="clip1"><rect x="1521" y="1249" width="409" height="410"/></clipPath><clipPath id="clip2"><rect x="1521" y="1249" width="409" height="410"/></clipPath><clipPath id="clip3"><rect x="1521" y="1249" width="409" height="410"/></clipPath><clipPath id="clip4"><rect x="1521" y="1249" width="409" height="410"/></clipPath><clipPath id="clip5"><rect x="1321" y="1206" width="52" height="54"/></clipPath><clipPath id="clip6"><rect x="1321" y="1206" width="52" height="54"/></clipPath><clipPath id="clip7"><rect x="1321" y="1206" width="52" height="54"/></clipPath><clipPath id="clip8"><rect x="1281" y="1338" width="45" height="45"/></clipPath><clipPath id="clip9"><rect x="1281" y="1338" width="45" height="45"/></clipPath><clipPath id="clip10"><rect x="1281" y="1338" width="45" height="45"/></clipPath><clipPath id="clip11"><rect x="366" y="1185" width="84" height="86"/></clipPath><clipPath id="clip12"><rect x="366" y="1185" width="84" height="86"/></clipPath><clipPath id="clip13"><rect x="366" y="1185" width="84" height="86"/></clipPath><clipPath id="clip14"><rect x="1127" y="1208" width="146" height="155"/></clipPath><clipPath id="clip15"><rect x="1127" y="1208" width="146" height="155"/></clipPath><clipPath id="clip16"><rect x="1127" y="1208" width="146" height="155"/></clipPath><clipPath id="clip17"><rect x="1109" y="1827" width="74" height="78"/></clipPath><clipPath id="clip18"><rect x="1109" y="1827" width="74" height="78"/></clipPath><clipPath id="clip19"><rect x="1109" y="1827" width="74" height="78"/></clipPath><clipPath id="clip20"><rect x="1109" y="1827" width="74" height="78"/></clipPath><clipPath id="clip21"><rect x="178" y="1185" width="194" height="196"/></clipPath><clipPath id="clip22"><rect x="178" y="1185" width="194" height="196"/></clipPath><clipPath id="clip23"><rect x="178" y="1185" width="194" height="196"/></clipPath><clipPath id="clip24"><rect x="178" y="1185" width="194" height="196"/></clipPath><clipPath id="clip25"><rect x="990" y="1819" width="115" height="113"/></clipPath><clipPath id="clip26"><rect x="990" y="1819" width="115" height="113"/></clipPath><clipPath id="clip27"><rect x="990" y="1819" width="115" height="113"/></clipPath><clipPath id="clip28"><rect x="990" y="1819" width="115" height="113"/></clipPath></defs><g clip-path="url(#clip0)" transform="translate(-153 -766)"><rect x="170.5" y="775.5" width="1804" height="1194" stroke="#000000" stroke-width="4.58333" stroke-miterlimit="8" fill="#FFFFFF"/><text font-family="Arial,Arial_MSFontService,sans-serif" font-weight="400" font-size="83" transform="matrix(1 0 0 1 203.357 871)">eNotary</text><text font-family="Arial,Arial_MSFontService,sans-serif" font-weight="400" font-size="46" transform="matrix(1 0 0 1 203.357 935)">Claims:</text><g clip-path="url(#clip1)"><g clip-path="url(#clip2)"><g clip-path="url(#clip3)"><g clip-path="url(#clip4)"><path d="M140.019 355.418C131.44 352.863 124.411 346.969 120.558 339.098 117.14 332.117 117.216 332.953 117.008 299.873L116.82 269.998 127.312 259.35C133.083 253.494 137.97 248.259 138.173 247.718 138.977 245.573 137.849 244.039 128.647 234.756L119.373 225.4 119.234 148.874 119.096 72.3475 117.981 68.4101C115.859 60.9208 113.009 55.9522 107.604 50.3174L104.411 46.9894 202.806 47.1183 301.202 47.2473 305.406 48.7532C314.997 52.1882 321.887 59.0825 325.272 68.6345 326.739 72.775 326.765 73.0159 326.948 84.3356L327.133 95.8316 320.688 102.34C315.278 107.805 314.243 109.088 314.243 110.338 314.243 111.363 316.062 114.869 320.076 121.583L325.907 131.339 315.893 143.373C306.667 154.457 305.878 155.556 305.878 157.31 305.878 158.473 306.215 159.548 306.743 160.075 307.22 160.548 311.982 163.999 317.325 167.743L327.04 174.55 327.04 231.6 327.04 288.651 242.512 288.66C149.648 288.669 154.353 288.52 147.977 291.651 141.842 294.665 137.229 300.951 136.062 307.887 134.078 319.684 143.303 331.167 155.323 331.862 158.909 332.069 159.212 332.007 160.405 330.815 162.06 329.16 162.113 326.622 160.533 324.784 159.633 323.737 158.745 323.368 156.334 323.038 151.319 322.352 148.007 320.069 146.106 315.987 142.508 308.26 147.774 299.813 157.267 298.088 165.671 296.561 174.189 301.849 178.931 311.536 181.415 316.612 182.346 320.371 182.346 325.343 182.346 339.578 172.399 352.29 158.495 355.824 153.903 356.991 144.618 356.787 140.019 355.418ZM191.696 237.96 191.696 233.53 178.654 233.53 165.612 233.53 165.612 237.96 165.612 242.389 178.654 242.389 191.696 242.389ZM280.777 237.96 280.777 233.53 244.357 233.53 207.938 233.53 207.938 237.96 207.938 242.389 244.357 242.389 280.777 242.389ZM280.777 195.632 280.777 191.203 223.194 191.203 165.612 191.203 165.612 195.632 165.612 200.062 223.194 200.062 280.777 200.062ZM238.347 152.938 238.488 148.386 202.05 148.386 165.612 148.386 165.612 153.065 165.612 157.743 201.909 157.617 238.205 157.491ZM280.777 153.062 280.777 148.386 267.735 148.386 254.693 148.386 254.693 153.062 254.693 157.737 267.735 157.737 280.777 157.737ZM191.696 110.49 191.696 106.06 178.654 106.06 165.612 106.06 165.612 110.49 165.612 114.919 178.654 114.919 191.696 114.919ZM280.777 110.49 280.777 106.06 244.357 106.06 207.938 106.06 207.938 110.49 207.938 114.919 244.357 114.919 280.777 114.919Z" fill="#FFFFFF" transform="matrix(1 0 0 1.00245 1521 1250)"/><path d="M179.802 353.699C188.276 345.225 192.512 333.134 191.164 321.272 190.27 313.403 187.831 307.32 183.063 301.06L180.359 297.51 255.791 297.526C299.419 297.535 332.71 297.734 334.752 298 349.111 299.866 359.913 311.279 360.833 325.563 361.637 338.014 353.913 349.699 341.558 354.722L337.622 356.324 257.269 356.454 176.917 356.583Z" fill="#FFFFFF" transform="matrix(1 0 0 1.00245 1521 1250)"/><path d="M63.6661 104.953C58.1577 103.022 53.3224 98.228 50.1233 91.5275 45.9055 82.6931 46.0398 73.3196 50.514 64.2435 54.4127 56.335 62.771 49.723 71.4243 47.7018 75.9937 46.6346 83.9535 46.959 88.3427 48.3918 97.4157 51.3534 105.01 58.7768 108.334 67.9334 110.01 72.5531 110.481 78.013 110.486 92.895L110.49 106.06 99.9534 106.06 89.4173 106.06 91.1195 102.738C95.4042 94.3761 94.1561 84.9667 87.8823 78.3332 84.0042 74.2326 78.1056 71.6091 72.7636 71.6091 68.5672 71.6091 66.2897 75.797 68.8387 78.8263 69.8847 80.0693 70.5948 80.3867 72.9479 80.662 78.5909 81.3224 82.7514 84.6577 84.2156 89.6944 86.5084 97.581 79.965 105.169 70.2757 105.861 67.6083 106.051 66.2741 105.868 63.6661 104.953Z" fill="#FFFFFF" transform="matrix(1 0 0 1.00245 1521 1250)"/><path d="M3582.01 9566.82 3582.01 9449.69C3582.01 9448.3 3581.34 9447.01 3580.2 9446.21L3562.76 9434.01C3562.76 9433.99 3562.76 9433.97 3562.76 9433.95L3581.05 9412.05C3582.2 9410.65 3582.36 9408.68 3581.42 9407.13L3570.41 9388.75C3570.39 9388.74 3570.39 9388.72 3570.41 9388.7L3580.79 9378.32C3581.57 9377.53 3582.01 9376.44 3582.01 9375.31L3582.01 9356.19C3582.01 9333.89 3563.93 9315.81 3541.64 9315.81L3324.88 9315.81C3302.71 9315.74 3284.65 9333.64 3284.51 9355.81 3284.52 9368.07 3290.18 9379.66 3299.85 9387.19 3304.52 9390.49 3310.09 9392.28 3315.8 9392.34 3316.53 9392.34 3317.25 9392.27 3317.98 9392.21 3318.16 9392.25 3318.34 9392.28 3318.51 9392.32L3356.76 9392.32 3356.76 9504.95C3356.76 9506.06 3357.2 9507.15 3358 9507.94L3374.09 9524.03 3374.09 9524.1 3355.89 9542.3C3355.09 9543.1 3354.63 9544.19 3354.63 9545.32L3354.63 9602.69C3354.63 9624.99 3372.71 9643.06 3395 9643.06L3576.58 9643.06C3596.43 9643.31 3613.28 9628.64 3615.78 9608.97 3618.04 9588.02 3602.94 9569.18 3582.01 9566.82ZM3334.73 9383.82C3337.94 9380.13 3339.71 9375.42 3339.76 9370.54 3339.83 9358.97 3330.52 9349.53 3318.96 9349.46 3318.81 9349.46 3318.65 9349.46 3318.51 9349.46 3316.17 9349.46 3314.26 9351.38 3314.26 9353.72 3314.26 9356.06 3316.17 9357.96 3318.51 9357.96 3325.43 9357.84 3331.14 9363.35 3331.27 9370.27 3331.27 9370.36 3331.27 9370.45 3331.27 9370.54 3331.05 9375.42 3328.16 9379.78 3323.76 9381.87 3317.7 9384.92 3310.42 9384.36 3304.91 9380.36 3297.39 9374.44 3293 9365.39 3293 9355.81 3293.11 9338.22 3307.46 9324.03 3325.08 9324.13 3342.67 9324.24 3356.86 9338.59 3356.76 9356.19L3356.76 9383.82ZM3363.14 9602.69 3363.14 9547.08 3383.14 9527.07C3384.8 9525.42 3384.8 9522.72 3383.14 9521.05L3365.26 9503.19 3365.26 9356.19C3365.26 9343.77 3359.53 9332.03 3349.73 9324.38 3349.72 9324.38 3349.72 9324.34 3349.73 9324.33 3349.73 9324.33 3349.75 9324.31 3349.75 9324.31L3541.64 9324.31C3559.23 9324.31 3573.51 9338.59 3573.51 9356.19L3573.51 9373.55 3562 9385.07C3560.63 9386.45 3560.37 9388.58 3561.36 9390.26L3572.55 9408.91 3553.25 9432.09C3551.75 9433.9 3552 9436.58 3553.8 9438.07 3553.89 9438.16 3554 9438.23 3554.11 9438.3L3573.51 9451.91 3573.51 9566.57 3407.76 9566.61C3403.09 9566.32 3398.45 9567.32 3394.31 9569.48 3387.09 9573.05 3382.46 9580.3 3382.27 9588.34 3382.18 9599.9 3391.49 9609.34 3403.06 9609.41 3403.22 9609.41 3403.36 9609.41 3403.52 9609.41 3405.86 9609.41 3407.76 9607.51 3407.76 9605.17 3407.76 9602.81 3405.86 9600.92 3403.52 9600.92 3396.6 9601.04 3390.89 9595.54 3390.76 9588.62 3390.76 9588.53 3390.76 9588.43 3390.76 9588.34 3390.96 9583.48 3393.85 9579.11 3398.27 9577.02 3404.33 9573.95 3411.61 9574.52 3417.11 9578.51 3424.63 9584.45 3429.01 9593.5 3429.01 9603.06 3428.89 9620.55 3414.62 9634.66 3397.13 9634.57L3395 9634.57C3377.41 9634.57 3363.14 9620.29 3363.14 9602.69ZM3576.72 9634.57 3422.06 9634.57C3422.04 9634.57 3422 9634.57 3422 9634.55 3421.99 9634.53 3422 9634.49 3422.02 9634.49 3439.37 9621.17 3442.63 9596.3 3429.31 9578.95 3428.26 9577.59 3427.13 9576.29 3425.91 9575.07L3577.77 9575.07C3594.21 9575.09 3607.54 9588.44 3607.52 9604.89 3607.52 9606.18 3607.43 9607.46 3607.25 9608.74 3604.96 9623.76 3591.93 9634.78 3576.72 9634.57Z" transform="matrix(1 0 0 1.00245 -1725.26 -8050.31)"/><path d="M3454.52 9383.82 3526.75 9383.82 3526.75 9392.32 3454.52 9392.32Z" transform="matrix(1 0 0 1.00245 -1725.26 -8050.31)"/><path d="M3412.02 9383.82 3437.51 9383.82 3437.51 9392.32 3412.02 9392.32Z" transform="matrix(1 0 0 1.00245 -1725.26 -8050.31)"/><path d="M3454.52 9511.31 3526.75 9511.31 3526.75 9519.81 3454.52 9519.81Z" transform="matrix(1 0 0 1.00245 -1725.26 -8050.31)"/><path d="M3412.02 9511.31 3437.51 9511.31 3437.51 9519.81 3412.02 9519.81Z" transform="matrix(1 0 0 1.00245 -1725.26 -8050.31)"/><path d="M3412.02 9426.31 3484.27 9426.31 3484.27 9434.82 3412.02 9434.82Z" transform="matrix(1 0 0 1.00245 -1725.26 -8050.31)"/><path d="M3501.26 9426.31 3526.75 9426.31 3526.75 9434.82 3501.26 9434.82Z" transform="matrix(1 0 0 1.00245 -1725.26 -8050.31)"/><path d="M3412.02 9468.81 3526.75 9468.81 3526.75 9477.31 3412.02 9477.31Z" transform="matrix(1 0 0 1.00245 -1725.26 -8050.31)"/><text font-family="Arial,Arial_MSFontService,sans-serif" font-weight="400" font-size="3" transform="matrix(17.7391 0 0 17.7826 1657.82 1347)">SCITT</text></g></g></g></g><rect x="1662" y="1307" width="158" height="61.0002" fill="#FFFFFF"/><text font-family="Arial,Arial_MSFontService,sans-serif" font-weight="400" font-size="50" transform="matrix(1 0 0 1 1662.34 1356)">Ledger</text><rect x="866" y="1041" width="1063" height="597" stroke="#2F528F" stroke-width="10.3125" stroke-miterlimit="8" fill="none"/><text font-family="Arial,Arial_MSFontService,sans-serif" font-weight="400" font-size="83" transform="matrix(1 0 0 1 1324.48 1137)">SCITT Instance</text><path d="M868.283 1730.5 1393.5 1730.5 1393.5 1937.5 868.283 1937.5C868.022 1928.96 867.761 1920.42 867.5 1911.89 867.874 1876.47 868.247 1841.05 868.621 1805.64L868.283 1730.5Z" stroke="#2F528F" stroke-width="4.58333" stroke-miterlimit="8" fill="none" fill-rule="evenodd"/><text font-family="Arial,Arial_MSFontService,sans-serif" font-weight="400" font-size="64" transform="matrix(1 0 0 1 1017.99 1808)">Storage</text><path d="M0-5.15625 40.7301-5.15625 40.7301 306.722 30.4176 306.722 30.4176 0 35.5739 5.15625 0 5.15625ZM51.0426 301.566 35.5739 332.504 20.1051 301.566Z" fill="#4472C4" transform="matrix(1.83697e-16 1 1 -1.83697e-16 1272 1460)"/><rect x="867.5" y="1190.5" width="526" height="228" stroke="#2F528F" stroke-width="4.58333" stroke-miterlimit="8" fill="none"/><text font-family="Arial,Arial_MSFontService,sans-serif" font-weight="400" font-size="64" transform="matrix(1 0 0 1 900.122 1269)">eNotary</text><path d="M823.5 1259.5 866.5 1284 823.5 1308.5Z" stroke="#2F528F" stroke-width="4.58333" stroke-miterlimit="8" fill="none" fill-rule="evenodd"/><path d="M1297.5 1417.5 1272.5 1460.5 1247.5 1417.5Z" stroke="#2F528F" stroke-width="4.58333" stroke-miterlimit="8" fill="none" fill-rule="evenodd"/><path d="M1068.16 1460 1068.16 1577.43 1063 1577.43 1068.16 1572.27 1068.16 1658.77 1057.84 1658.77 1057.84 1567.12 1063 1567.12 1057.84 1572.27 1057.84 1460ZM1078.47 1653.61 1063 1684.55 1047.53 1653.61Z" fill="#4472C4"/><path d="M1088.5 1685.5 1063.5 1728.5 1038.5 1685.5Z" stroke="#2F528F" stroke-width="4.58333" stroke-miterlimit="8" fill="none" fill-rule="evenodd"/><path d="M1088.5 1417.5 1063.5 1460.5 1038.5 1417.5Z" stroke="#2F528F" stroke-width="4.58333" stroke-miterlimit="8" fill="none" fill-rule="evenodd"/><path d="M1605.5 1471.5 1648.5 1496.5 1605.5 1521.5Z" stroke="#2F528F" stroke-width="4.58333" stroke-miterlimit="8" fill="none" fill-rule="evenodd"/><g clip-path="url(#clip5)"><g clip-path="url(#clip6)"><g clip-path="url(#clip7)"><path d="M11.6533 50.2409 11.6533 45.5137 11.6533 45.5137 16.3805 45.5137 16.3805 40.7864 21.1078 40.7864 21.1078 36.0591 27.9238 38.2579 32.4862 33.6955C37.3234 34.4101 42.4354 32.871 46.1733 29.1331 52.4396 22.8668 52.4396 12.6427 46.1733 6.37631 39.9069 0.109936 29.6828 0.109936 23.4164 6.37631 19.4038 10.389 17.9746 15.9957 19.074 21.2177L0 40.3466 0 43.15 1.0444 49.1965C3.68287 49.9111 8.95981 50.4058 11.6533 50.2409ZM37.7082 9.78434C39.1373 8.35516 41.446 8.35516 42.8752 9.78434 44.3044 11.2135 44.3044 13.5222 42.8752 14.9513 41.446 16.3805 39.1373 16.3805 37.7082 14.9513 36.279 13.5222 36.279 11.2135 37.7082 9.78434Z" fill="#262261" transform="matrix(1 0 0 1.01923 1321 1207)"/></g></g></g><path d="M866 1281.85 1273.4 1281.85 1273.4 1393.99 1271.11 1393.99 1271.11 1283 1272.26 1284.15 866 1284.15ZM1286.01 1389.41 1272.26 1416.91 1258.51 1389.41Z" fill="#4472C4"/><path d="M0-5.15625 230.624-5.15625 230.624 0.0454724 225.468-5.11078 425.154-5.11078 425.154 5.20172 220.311 5.20172 220.311 0 225.468 5.15625 0 5.15625ZM419.998-15.4233 450.935 0.0454724 419.998 15.5142Z" fill="#4472C4" transform="matrix(1 0 0 -1 372 1283.05)"/><path d="M866 1281.85 1063.84 1281.85 1063.84 1393.99 1061.55 1393.99 1061.55 1283 1062.7 1284.15 866 1284.15ZM1076.45 1389.41 1062.7 1416.91 1048.95 1389.41Z" fill="#4472C4"/><g clip-path="url(#clip8)"><g clip-path="url(#clip9)"><g clip-path="url(#clip10)"><path d="M1309.67 1361.88 1306.19 1358.81 1295.12 1372.44 1298.65 1375.46Z" fill="#262261"/><path d="M1295.4 1376.35 1293.53 1374.86 1292.51 1379.37 1296.7 1377.46Z" fill="#262261"/><path d="M1320.46 1341.23 1324 1344.26 1325.86 1341.98 1322.23 1339.05Z" fill="#262261"/><path d="M1313.53 1361.23 1315.72 1363 1321.26 1356.21C1323.12 1354.07 1324 1351.37 1323.58 1349.14 1323.4 1348.12 1322.93 1347.23 1322.28 1346.49L1318.74 1343.42 1307.91 1356.67 1311.44 1359.74 1320.42 1348.67C1320.6 1348.95 1320.74 1349.28 1320.79 1349.65 1321.07 1351.05 1320.37 1352.91 1319.12 1354.4L1313.53 1361.23Z" fill="#262261"/><path d="M1284.37 1375.33C1284.46 1375.09 1284.56 1374.86 1284.7 1374.63 1284.98 1374.16 1285.3 1373.79 1285.72 1373.42 1286.51 1372.67 1287.53 1372.07 1288.6 1371.51 1289.67 1370.95 1290.79 1370.44 1291.95 1369.88 1292.51 1369.6 1293.12 1369.28 1293.72 1368.86 1294.05 1368.67 1294.33 1368.44 1294.65 1368.12 1294.98 1367.79 1295.3 1367.42 1295.49 1366.81 1295.72 1366.26 1295.67 1365.51 1295.49 1365 1295.3 1364.44 1294.93 1364.02 1294.6 1363.7 1293.91 1363.09 1293.26 1362.77 1292.65 1362.44 1291.44 1361.84 1290.28 1361.46 1289.21 1360.95 1288.19 1360.44 1287.3 1359.88 1286.79 1359.14 1286.28 1358.44 1286.09 1357.51 1286.23 1356.49 1286.37 1355.42 1286.7 1354.4 1287.26 1353.51 1288.42 1351.74 1290.6 1350.58 1292.93 1349.93 1294.09 1349.6 1295.3 1349.37 1296.56 1349.23 1297.16 1349.14 1297.81 1349.09 1298.42 1349.05 1299.02 1349 1299.67 1348.95 1300.33 1348.95 1297.81 1348.3 1295.21 1348.16 1292.6 1348.49 1291.3 1348.67 1290 1349 1288.74 1349.56 1287.49 1350.12 1286.33 1350.95 1285.4 1352.12 1284.93 1352.67 1284.56 1353.33 1284.28 1353.98 1284 1354.67 1283.81 1355.33 1283.67 1356.07 1283.53 1356.81 1283.53 1357.56 1283.63 1358.35 1283.77 1359.14 1284.05 1359.93 1284.51 1360.63 1284.98 1361.33 1285.53 1361.84 1286.14 1362.3 1286.74 1362.77 1287.35 1363.09 1287.95 1363.42 1289.16 1364.02 1290.37 1364.49 1291.44 1364.95 1291.95 1365.19 1292.42 1365.46 1292.7 1365.7 1292.84 1365.79 1292.88 1365.88 1292.88 1365.93 1292.88 1365.98 1292.88 1365.93 1292.88 1365.93 1292.88 1365.93 1292.84 1366.07 1292.7 1366.21 1292.56 1366.35 1292.37 1366.49 1292.19 1366.67 1291.77 1367 1291.26 1367.28 1290.74 1367.6 1289.67 1368.21 1288.56 1368.81 1287.44 1369.46 1286.33 1370.16 1285.21 1370.95 1284.28 1372.02 1283.81 1372.53 1283.4 1373.19 1283.12 1373.84 1282.98 1374.16 1282.84 1374.53 1282.79 1374.91 1282.7 1375.28 1282.7 1375.6 1282.65 1375.93 1282.6 1376.63 1282.6 1377.33 1282.84 1378.07 1283.02 1378.77 1283.44 1379.46 1284.05 1379.93 1284.65 1380.4 1285.35 1380.63 1286 1380.72 1286.7 1380.81 1287.35 1380.81 1288 1380.72 1289.3 1380.58 1290.51 1380.21 1291.67 1379.74 1290.42 1379.98 1289.16 1380.12 1287.95 1380.07 1287.35 1380.02 1286.74 1379.98 1286.19 1379.79 1285.63 1379.65 1285.12 1379.37 1284.79 1379 1284.09 1378.3 1284 1377.19 1284.23 1376.07 1284.23 1375.88 1284.33 1375.56 1284.37 1375.33Z" fill="#262261"/></g></g></g><rect x="1151" y="1278" width="101" height="16.9999" fill="#FFFFFF"/><path d="M22.115 6.25142 31.8011 9.79093 30.6212 13.0196 20.9352 9.4801ZM35.0297 10.9708 44.7158 14.5103 43.536 17.7389 33.8499 14.1994ZM47.9445 15.6901 57.6305 19.2296 56.4507 22.4583 46.7646 18.9188ZM60.8592 20.4094 70.5453 23.9489 69.3654 27.1776 59.6794 23.6381ZM73.7739 25.1288 83.46 28.6683 82.2802 31.897 72.5941 28.3575ZM86.6887 29.8481 96.3747 33.3876 95.1949 36.6163 85.5089 33.0768ZM99.6034 34.5674 109.289 38.107 108.11 41.3356 98.4236 37.7961ZM112.518 39.2868 122.204 42.8263 121.024 46.055 111.338 42.5155ZM125.433 44.0061 135.119 47.5456 133.939 50.7743 124.253 47.2348ZM138.348 48.7255 148.034 52.265 146.854 55.4936 137.168 51.9541ZM151.262 53.4448 160.948 56.9843 159.769 60.213 150.082 56.6735ZM164.177 58.1641 173.863 61.7036 172.683 64.9323 162.997 61.3928ZM177.092 62.8835 186.778 66.423 185.598 69.6517 175.912 66.1122ZM190.007 67.6028 199.693 71.1423 198.513 74.371 188.827 70.8315ZM202.921 72.3222 212.607 75.8617 211.427 79.0903 201.741 75.5508ZM215.836 77.0415 225.522 80.581 224.342 83.8097 214.656 80.2702ZM228.751 81.7608 238.437 85.3003 237.257 88.529 227.571 84.9895ZM241.665 86.4802 251.352 90.0197 250.172 93.2484 240.486 89.7089ZM254.58 91.1995 264.266 94.739 263.086 97.9677 253.4 94.4282ZM267.495 95.9189 277.181 99.4584 276.001 102.687 266.315 99.1475ZM280.41 100.638 290.096 104.178 288.916 107.406 279.23 103.867ZM293.324 105.358 303.01 108.897 301.831 112.126 292.145 108.586ZM306.239 110.077 315.925 113.616 314.745 116.845 305.059 113.306ZM319.154 114.796 328.84 118.336 327.66 121.564 317.974 118.025ZM332.069 119.516 341.755 123.055 340.575 126.284 330.889 122.744ZM344.983 124.235 354.669 127.774 353.49 131.003 343.803 127.464ZM357.898 128.954 367.584 132.494 366.404 135.722 356.718 132.183ZM370.813 133.674 380.499 137.213 379.319 140.442 369.633 136.902ZM383.728 138.393 393.414 141.932 392.234 145.161 382.548 141.622ZM396.642 143.112 406.328 146.652 405.148 149.88 395.462 146.341ZM409.557 147.832 419.243 151.371 418.063 154.6 408.377 151.06ZM422.472 152.551 432.158 156.09 430.978 159.319 421.292 155.78ZM435.386 157.27 445.072 160.81 443.893 164.038 434.207 160.499ZM448.301 161.99 457.987 165.529 456.807 168.758 447.121 165.218ZM461.216 166.709 470.902 170.248 469.722 173.477 460.036 169.938ZM474.131 171.428 483.817 174.968 482.637 178.196 472.951 174.657ZM487.045 176.148 496.731 179.687 495.552 182.916 485.866 179.376ZM499.96 180.867 509.646 184.406 508.466 187.635 498.78 184.096ZM512.875 185.586 517.731 187.361 516.551 190.59 511.695 188.815ZM21.1101 22.3534 0 0 30.5488-3.47605Z" fill="#4472C4" transform="matrix(1 0 0 -1 1088.5 1685.47)"/><path d="M508 1348C508 1327.57 524.789 1311 545.5 1311 566.211 1311 583 1327.57 583 1348 583 1368.43 566.211 1385 545.5 1385 524.789 1385 508 1368.43 508 1348Z" fill="#FF0000" fill-rule="evenodd"/><text fill="#FFFFFF" font-family="Arial,Arial_MSFontService,sans-serif" font-weight="400" font-size="55" transform="matrix(1 0 0 1 530.417 1368)">1</text><path d="M1159 1144.5C1159 1123.79 1175.79 1107 1196.5 1107 1217.21 1107 1234 1123.79 1234 1144.5 1234 1165.21 1217.21 1182 1196.5 1182 1175.79 1182 1159 1165.21 1159 1144.5Z" fill="#FF0000" fill-rule="evenodd"/><text fill="#FFFFFF" font-family="Arial,Arial_MSFontService,sans-serif" font-weight="400" font-size="55" transform="matrix(1 0 0 1 1181.2 1164)">2</text><path d="M1047.5 1145.5 1022.5 1188.5 997.5 1145.5Z" stroke="#2F528F" stroke-width="4.58333" stroke-miterlimit="8" fill="none" fill-rule="evenodd"/><path d="M1016.84 1144.43 1016.84 1048.06 1022.2 1048.06 1017.04 1053.22 1017.04 987.781 1027.36 987.781 1027.36 1058.37 1022 1058.37 1027.16 1053.22 1027.16 1144.43ZM1006.73 992.938 1022.2 962 1037.67 992.938Z" fill="#4472C4"/><path d="M895.486 850.073C891.879 834.474 910.453 820.107 936.972 817.985 947.717 817.126 958.643 818.411 968 821.636 977.915 810.642 1001.08 806.463 1019.75 812.303 1023.01 813.324 1026.01 814.619 1028.64 816.146 1036.36 807.032 1055.17 803.33 1070.65 807.876 1074.94 809.134 1078.68 810.954 1081.58 813.195 1094.03 804.577 1116.02 803.512 1130.7 810.817 1136.87 813.888 1141.03 818.123 1142.47 822.796 1162.86 826.069 1174.89 838.468 1169.34 850.49 1168.87 851.501 1168.29 852.491 1167.59 853.454 1183.94 865.98 1179.94 883.934 1158.64 893.555 1152.01 896.55 1144.18 898.489 1135.91 899.185 1135.73 912.662 1116.99 923.499 1094.07 923.391 1086.41 923.355 1078.91 922.074 1072.42 919.689 1064.66 934.798 1037.61 943.338 1012 938.763 1001.27 936.846 991.995 932.792 985.763 927.292 959.54 936.597 925.504 931.591 909.741 916.112 909.543 915.917 909.348 915.72 909.156 915.523 891.994 916.704 876.449 909.5 874.435 899.431 873.361 894.064 876.373 888.692 882.667 884.747 867.807 879.6 862.816 868.304 871.518 859.515 876.538 854.445 885.343 851.094 895.225 850.491Z" fill="#4472C4" fill-rule="evenodd"/><path d="M1026.95 963.13C1026.95 965.185 1025.28 966.852 1023.23 966.852 1021.17 966.852 1019.51 965.185 1019.51 963.13 1019.51 961.074 1021.17 959.408 1023.23 959.408 1025.28 959.408 1026.95 961.074 1026.95 963.13Z" fill="#4472C4" fill-rule="evenodd"/><path d="M1030.63 957.734C1030.63 961.846 1027.3 965.179 1023.19 965.179 1019.07 965.179 1015.74 961.846 1015.74 957.734 1015.74 953.623 1019.07 950.29 1023.19 950.29 1027.3 950.29 1030.63 953.623 1030.63 957.734Z" fill="#4472C4" fill-rule="evenodd"/><path d="M1034.25 944.895C1034.25 951.062 1029.25 956.061 1023.08 956.061 1016.91 956.061 1011.92 951.062 1011.92 944.895 1011.92 938.728 1016.91 933.728 1023.08 933.728 1029.25 933.728 1034.25 938.728 1034.25 944.895Z" fill="#4472C4" fill-rule="evenodd"/><path d="M895.486 850.073C891.879 834.474 910.453 820.107 936.972 817.985 947.717 817.126 958.643 818.411 968 821.636 977.915 810.642 1001.08 806.463 1019.75 812.303 1023.01 813.324 1026.01 814.619 1028.64 816.146 1036.36 807.032 1055.17 803.33 1070.65 807.876 1074.94 809.134 1078.68 810.954 1081.58 813.195 1094.03 804.577 1116.02 803.512 1130.7 810.817 1136.87 813.888 1141.03 818.123 1142.47 822.796 1162.86 826.069 1174.89 838.468 1169.34 850.49 1168.87 851.501 1168.29 852.491 1167.59 853.454 1183.94 865.98 1179.94 883.934 1158.64 893.555 1152.01 896.55 1144.18 898.489 1135.91 899.185 1135.73 912.662 1116.99 923.499 1094.07 923.391 1086.41 923.355 1078.91 922.074 1072.42 919.689 1064.66 934.798 1037.61 943.338 1012 938.763 1001.27 936.846 991.995 932.792 985.763 927.292 959.54 936.597 925.504 931.591 909.741 916.112 909.543 915.917 909.348 915.72 909.156 915.523 891.994 916.704 876.449 909.5 874.435 899.431 873.361 894.064 876.373 888.692 882.667 884.747 867.807 879.6 862.816 868.304 871.518 859.515 876.538 854.445 885.343 851.094 895.225 850.491Z" stroke="#2F528F" stroke-width="4.58333" stroke-miterlimit="8" fill="none" fill-rule="evenodd"/><path d="M1026.95 963.13C1026.95 965.185 1025.28 966.852 1023.23 966.852 1021.17 966.852 1019.51 965.185 1019.51 963.13 1019.51 961.074 1021.17 959.408 1023.23 959.408 1025.28 959.408 1026.95 961.074 1026.95 963.13Z" stroke="#2F528F" stroke-width="4.58333" stroke-miterlimit="8" fill="none" fill-rule="evenodd"/><path d="M1030.63 957.734C1030.63 961.846 1027.3 965.179 1023.19 965.179 1019.07 965.179 1015.74 961.846 1015.74 957.734 1015.74 953.623 1019.07 950.29 1023.19 950.29 1027.3 950.29 1030.63 953.623 1030.63 957.734Z" stroke="#2F528F" stroke-width="4.58333" stroke-miterlimit="8" fill="none" fill-rule="evenodd"/><path d="M1034.25 944.895C1034.25 951.062 1029.25 956.061 1023.08 956.061 1016.91 956.061 1011.92 951.062 1011.92 944.895 1011.92 938.728 1016.91 933.728 1023.08 933.728 1029.25 933.728 1034.25 938.728 1034.25 944.895Z" stroke="#2F528F" stroke-width="4.58333" stroke-miterlimit="8" fill="none" fill-rule="evenodd"/><path d="M901.177 886.697C894.833 886.989 888.49 886.127 882.999 884.225M917.215 913.751C914.664 914.349 911.99 914.747 909.262 914.935M985.745 926.751C983.826 925.058 982.22 923.249 980.953 921.354M1074.36 913.292C1074.08 915.301 1073.44 917.286 1072.45 919.215M1112.41 876.7C1126.79 880.818 1135.87 889.429 1135.74 898.833M1167.44 853.126C1165.11 856.328 1161.55 859.169 1157.05 861.425M1142.51 822.331C1142.91 823.624 1143.09 824.936 1143.06 826.25M1076.16 817.758C1077.52 815.95 1079.31 814.266 1081.48 812.76M1026.38 820.141C1026.93 818.646 1027.8 817.198 1028.96 815.83M967.963 821.605C971.349 822.772 974.481 824.176 977.291 825.787M897.115 854.475C896.376 853.036 895.832 851.564 895.487 850.075" stroke="#2F528F" stroke-width="4.58333" stroke-miterlimit="8" fill="none" fill-rule="evenodd"/><path d="M935 1080.5C935 1059.79 951.789 1043 972.5 1043 993.211 1043 1010 1059.79 1010 1080.5 1010 1101.21 993.211 1118 972.5 1118 951.789 1118 935 1101.21 935 1080.5Z" fill="#FF0000" fill-rule="evenodd"/><text fill="#FFFFFF" font-family="Arial,Arial_MSFontService,sans-serif" font-weight="400" font-size="55" transform="matrix(1 0 0 1 957.402 1101)">3</text><path d="M978 1582.5C978 1561.79 994.789 1545 1015.5 1545 1036.21 1545 1053 1561.79 1053 1582.5 1053 1603.21 1036.21 1620 1015.5 1620 994.789 1620 978 1603.21 978 1582.5Z" fill="#FF0000" fill-rule="evenodd"/><text fill="#FFFFFF" font-family="Arial,Arial_MSFontService,sans-serif" font-weight="400" font-size="55" transform="matrix(1 0 0 1 1000.25 1603)">4</text><path d="M1486 1448C1486 1427.57 1502.79 1411 1523.5 1411 1544.21 1411 1561 1427.57 1561 1448 1561 1468.43 1544.21 1485 1523.5 1485 1502.79 1485 1486 1468.43 1486 1448Z" fill="#FF0000" fill-rule="evenodd"/><text fill="#FFFFFF" font-family="Arial,Arial_MSFontService,sans-serif" font-weight="400" font-size="55" transform="matrix(1 0 0 1 1508.55 1468)">5</text><path d="M1087 1582.5C1087 1561.79 1103.79 1545 1124.5 1545 1145.21 1545 1162 1561.79 1162 1582.5 1162 1603.21 1145.21 1620 1124.5 1620 1103.79 1620 1087 1603.21 1087 1582.5Z" fill="#FF0000" fill-rule="evenodd"/><text fill="#FFFFFF" font-family="Arial,Arial_MSFontService,sans-serif" font-weight="400" font-size="55" transform="matrix(1 0 0 1 1109.63 1602)">6</text><g clip-path="url(#clip11)"><g clip-path="url(#clip12)"><g clip-path="url(#clip13)"><path d="M52.8329 43.687 46.1733 37.8266 25.0401 63.8435 31.7885 69.6151Z" fill="#262261" transform="matrix(1 0 0 1.01191 366 1186)"/><path d="M25.5729 71.3022 22.0211 68.4608 20.0676 77.0739 28.0592 73.4333Z" fill="#262261" transform="matrix(1 0 0 1.01191 366 1186)"/><path d="M73.4333 4.26215 80.1817 10.0338 83.7335 5.68287 76.8075 0.0887948Z" fill="#262261" transform="matrix(1 0 0 1.01191 366 1186)"/><path d="M60.2029 42.4439 64.3762 45.8181 74.9428 32.8541C78.4946 28.7695 80.1817 23.6194 79.3825 19.3573 79.0274 17.4038 78.1394 15.7167 76.8963 14.296L70.1479 8.4355 49.4587 33.742 56.2071 39.6025 73.3445 18.4693C73.6997 19.0021 73.9661 19.6236 74.0549 20.334 74.5876 22.9978 73.2557 26.5496 70.8582 29.3911L60.2029 42.4439Z" fill="#262261" transform="matrix(1 0 0 1.01191 366 1186)"/><path d="M4.52853 69.3487C4.70612 68.9048 4.88371 68.4608 5.1501 68.0168 5.68287 67.1289 6.30443 66.4185 7.10358 65.7081 8.61309 64.2874 10.5666 63.1331 12.6089 62.0676 14.6511 61.002 16.7822 60.0253 19.0021 58.9597 20.0676 58.427 21.222 57.8054 22.3763 57.0062 22.9978 56.6511 23.5306 56.2071 24.1522 55.5855 24.7737 54.964 25.3953 54.2536 25.7505 53.0993 26.1945 52.0337 26.1057 50.613 25.7505 49.6363 25.3953 48.5707 24.6849 47.7716 24.0634 47.15 22.7315 45.9957 21.4883 45.3741 20.334 44.7526 18.0253 43.5982 15.8055 42.8879 13.7632 41.9111 11.8097 40.9344 10.1226 39.8689 9.14586 38.4481 8.16912 37.1162 7.81394 35.3403 8.08033 33.3868 8.34671 31.3446 8.96827 29.3911 10.0338 27.704 12.2537 24.3298 16.427 22.1099 20.8668 20.8668 23.0866 20.2452 25.3953 19.8012 27.7928 19.5349 28.9471 19.3573 30.1902 19.2685 31.3446 19.1797 32.4989 19.0909 33.742 19.0021 34.9851 19.0021 30.1902 17.759 25.2177 17.4926 20.2452 18.1141 17.759 18.4693 15.2727 19.0909 12.8752 20.1564 10.4778 21.222 8.25792 22.8203 6.48202 25.0401 5.59407 26.1057 4.88371 27.3488 4.35094 28.5919 3.81818 29.9238 3.463 31.167 3.19661 32.5877 2.93023 34.0084 2.93023 35.4291 3.10782 36.9386 3.3742 38.4481 3.90697 39.9577 4.79492 41.2896 5.68287 42.6215 6.7484 43.5982 7.90274 44.4862 9.05707 45.3741 10.2114 45.9957 11.3657 46.6173 13.6744 47.7716 15.9831 48.6595 18.0253 49.5475 19.0021 49.9915 19.89 50.5242 20.4228 50.9682 20.6892 51.1458 20.778 51.3234 20.778 51.4122 20.778 51.501 20.778 51.4122 20.778 51.4122 20.778 51.4122 20.6892 51.6786 20.4228 51.945 20.1564 52.2113 19.8012 52.4777 19.4461 52.8329 18.6469 53.4545 17.6702 53.9872 16.6934 54.6088 14.6511 55.7631 12.5201 56.9175 10.389 58.1606 8.25792 59.4925 6.12684 61.002 4.35094 63.0443 3.463 64.021 2.66384 65.2642 2.13107 66.5073 1.86469 67.1289 1.59831 67.8392 1.50951 68.5496 1.33192 69.2599 1.33192 69.8815 1.24313 70.5031 1.15433 71.835 1.15433 73.1669 1.59831 74.5876 1.95349 75.9195 2.75264 77.2515 3.90697 78.1394 5.0613 79.0274 6.39322 79.4713 7.63635 79.6489 8.96827 79.8265 10.2114 79.8265 11.4545 79.6489 13.9408 79.3825 16.2494 78.6722 18.4693 77.7842 16.0719 78.2282 13.6744 78.4946 11.3657 78.4058 10.2114 78.317 9.05707 78.2282 7.99153 77.873 6.92599 77.6066 5.94925 77.0739 5.32769 76.3635 3.99577 75.0316 3.81818 72.9005 4.26215 70.7694 4.26215 70.4143 4.43974 69.7927 4.52853 69.3487Z" fill="#262261" transform="matrix(1 0 0 1.01191 366 1186)"/></g></g></g><g clip-path="url(#clip14)"><g clip-path="url(#clip15)"><g clip-path="url(#clip16)"><path d="M60.5962 145.567C63.2049 141.454 63.674 134.867 61.7022 130.038L60.7166 127.626 89.1509 127.629 117.585 127.633 119.516 128.538C122.009 129.709 123.454 131.178 124.643 133.753 125.441 135.481 125.566 136.21 125.391 138.133 125.011 142.32 121.781 146.038 117.775 146.897 116.456 147.18 106.547 147.318 87.6474 147.318L59.4854 147.318Z" fill="#FFFFFF" transform="matrix(1.10333 0 0 1 1127 1209)"/><path d="M11.7587 25.9087C10.2915 25.2696 8.60595 23.3069 7.62141 21.091 6.68762 18.9894 6.82558 15.0228 7.91043 12.7805 8.83742 10.8645 10.7633 8.93483 12.8501 7.83127 15.1398 6.62032 19.5986 6.61165 21.8699 7.81373 24.0768 8.98175 25.8261 10.8301 26.893 13.1213 27.7102 14.8762 27.7962 15.6004 27.7997 20.7559L27.8034 26.4519 26.1314 26.4519 24.4595 26.4519 24.8302 24.4068C25.3232 21.6868 24.473 18.716 22.563 16.4846 20.5635 14.1486 18.5052 13.1755 15.5096 13.1501 13.3905 13.1322 12.9638 13.2515 12.3237 14.041 11.8755 14.5939 11.5848 15.5505 11.5848 16.472 11.5848 18.4004 12.7798 19.6708 14.9154 20.0123 16.7796 20.3104 17.892 21.4123 17.892 22.9608 17.892 24.3519 17.1848 25.2513 15.5552 25.9324 14.0248 26.5721 13.2711 26.5674 11.7587 25.9087Z" fill="#FFFFFF" transform="matrix(1.10333 0 0 1 1127 1209)"/><path d="M42.2408 146.902C39.1489 146.118 36.4028 143.812 35.0002 140.82L34.2684 139.258 34.189 127.402 34.1098 115.548 38.0491 111.566C43.6705 105.883 43.6749 105.768 38.465 100.468L34.9511 96.894 34.9415 56.6387C34.9337 23.5145 34.8648 16.0063 34.5526 14.255 34.1812 12.1717 32.5011 8.08183 31.7661 7.47181 31.5655 7.30532 31.4013 7.05864 31.4013 6.92365 31.4013 6.7793 46.3305 6.70872 67.6494 6.7523L103.897 6.82638 105.486 7.46721C107.719 8.3683 110.274 10.8142 111.298 13.0322L112.089 14.7449 112.164 30.5577 112.239 46.3705 109.935 48.725C106.58 52.1533 106.575 52.3821 109.733 57.7051 110.653 59.2568 111.406 60.5853 111.406 60.6576 111.406 60.7298 109.86 62.6551 107.97 64.9359 104.431 69.2079 104.033 69.8289 104.035 71.0804 104.037 72.4184 105.038 73.4937 108.652 76.0391L112.226 78.5566 112.226 99.5551 112.226 120.554 80.6195 120.557C60.1395 120.558 48.3886 120.658 47.2385 120.841 43.5004 121.437 40.3869 123.642 38.8688 126.769 38.1945 128.158 38.1073 128.647 38.0997 131.066 38.0921 133.532 38.1658 133.943 38.8598 135.299 40.4746 138.455 43.4983 140.578 46.8819 140.931 48.7168 141.123 49.8024 140.723 50.7642 139.5 51.4965 138.569 51.5137 136.825 50.8018 135.658 50.1652 134.614 49.6766 134.332 48.0577 134.075 46.5112 133.831 45.7307 133.34 45.1722 132.259 43.4444 128.918 48.9122 126.102 52.1175 128.681 58.4255 133.758 56.753 143.63 49.0918 146.541 47.2531 147.24 44.2096 147.4 42.2408 146.902ZM61.7105 102.669 61.7105 95.7058 55.2936 95.7058 48.8768 95.7058 48.8768 102.669 48.8768 109.632 55.2936 109.632 61.7105 109.632ZM100.484 104.99 100.484 101.44 86.1488 101.44 71.8134 101.44 71.8134 104.99 71.8134 108.539 86.1488 108.539 100.484 108.539ZM61.0096 78.8554C65.1536 74.5437 68.5117 70.9372 68.4721 70.8411 68.4326 70.7449 67.4088 69.6007 66.197 68.2985L63.9938 65.9306 60.7247 69.2817C58.9267 71.1246 56.5128 73.6157 55.3603 74.8171L53.2651 77.0015 51.1332 74.8853 49.0013 72.7691 46.7546 75.0276C45.519 76.2697 44.5079 77.4173 44.5079 77.5777 44.5079 77.9226 52.9179 86.695 53.2486 86.695 53.3733 86.695 56.8657 83.1672 61.0096 78.8554ZM100.484 78.2303 100.484 75.2266 86.1488 75.2266 71.8134 75.2266 71.8134 78.2303 71.8134 81.2339 86.1488 81.2339 100.484 81.2339ZM60.9301 52.6991C65.0387 48.4186 68.425 44.8246 68.4551 44.7122 68.4852 44.5999 67.4954 43.4215 66.2556 42.0936L64.0014 39.6791 60.3181 43.4588C58.2921 45.5377 55.8728 48.0373 54.9415 49.0134L53.2481 50.7883 51.1511 48.6575 49.0541 46.5267 46.7811 48.788C45.5308 50.0317 44.5079 51.1769 44.5079 51.333 44.5079 51.6697 52.9176 60.4817 53.2389 60.4817 53.3605 60.4817 56.8215 56.9795 60.9301 52.6991ZM100.484 51.3343 100.484 47.6482 86.1488 47.6482 71.8134 47.6482 71.8134 51.3343 71.8134 55.0206 86.1488 55.0206 100.484 55.0206Z" fill="#FFFFFF" transform="matrix(1.10333 0 0 1 1127 1209)"/><path d="M355.838 198.715 355.838 263.874C355.838 264.763 356.181 265.608 356.808 266.224L361.907 271.346 355.975 277.312C355.359 277.928 355.006 278.772 355.006 279.65L355.006 302.077C355.019 311.694 362.785 319.496 372.379 319.508L443.494 319.508C452.617 319.521 460.032 312.093 460.045 302.921 460.058 295.016 454.514 288.206 446.8 286.632L446.8 242.291C446.8 241.207 446.274 240.192 445.386 239.565L440.057 235.834 446.037 228.636C446.925 227.553 447.051 226.013 446.322 224.804L442.683 218.723 445.817 215.575C446.447 214.948 446.787 214.115 446.8 213.236L446.8 182.95C446.787 173.322 439.023 165.519 429.427 165.508L345.081 165.508C335.533 165.473 327.765 173.219 327.719 182.801 327.719 188.06 330.114 193.023 334.221 196.285 334.278 196.331 334.335 196.376 334.403 196.422 336.491 197.905 338.989 198.715 341.544 198.738ZM351.811 192.076C352.279 190.958 352.519 189.76 352.53 188.551 352.565 183.121 348.218 178.695 342.811 178.649L342.606 178.649C340.78 178.649 339.298 180.143 339.298 181.98 339.298 183.805 340.78 185.299 342.606 185.299 344.374 185.243 345.857 186.634 345.914 188.402L345.914 188.551C345.834 189.84 345.047 190.969 343.872 191.505 342.058 192.406 339.891 192.212 338.26 191.015 335.773 189.019 334.335 185.995 334.335 182.801 334.37 176.835 339.218 172.033 345.161 172.078 351.093 172.113 355.873 176.984 355.838 182.95L355.838 192.076ZM377.33 286.312C375.254 286.221 373.178 286.666 371.329 287.635 367.976 289.301 365.831 292.712 365.763 296.465 365.717 301.895 370.063 306.321 375.47 306.366L375.676 306.366C377.512 306.366 378.984 304.872 378.984 303.035 378.984 301.21 377.512 299.716 375.676 299.716 373.908 299.772 372.436 298.381 372.379 296.613 372.379 296.556 372.366 296.51 372.379 296.465 372.458 295.176 373.234 294.046 374.409 293.51 376.234 292.62 378.391 292.803 380.033 294.012 382.508 296.009 383.946 299.031 383.946 302.214 383.9 308.135 379.098 312.903 373.2 312.869L372.379 312.869C366.436 312.856 361.633 308.032 361.622 302.077L361.622 281.031 368.922 273.695C370.211 272.406 370.211 270.296 368.922 269.007L362.455 262.505 362.455 182.95C362.455 179.025 361.143 175.227 358.713 172.147L429.427 172.147C435.371 172.16 440.174 176.984 440.182 182.95L440.182 211.856 436.19 215.86C435.121 216.944 434.914 218.621 435.69 219.921L439.441 226.207 432.676 234.351C431.503 235.766 431.697 237.854 433.099 239.028 433.168 239.085 433.25 239.143 433.327 239.2L440.182 244.025 440.182 286.301ZM443.494 312.869 386.855 312.869C391.406 307.13 391.806 299.111 387.847 292.94L443.494 292.94C448.969 292.94 453.419 297.4 453.419 302.898 453.419 308.408 448.969 312.869 443.494 312.869Z" fill-rule="evenodd" transform="matrix(1.10333 0 0 1 765.417 1043.49)"/><path d="M376.771 261.33 389.319 261.33 389.319 275.019 376.771 275.019Z" fill-rule="evenodd" transform="matrix(1.10333 0 0 1 765.417 1043.49)"/><path d="M399.586 213.419 428.104 213.419 428.104 220.263 399.586 220.263Z" fill-rule="evenodd" transform="matrix(1.10333 0 0 1 765.417 1043.49)"/><path d="M399.586 267.033 428.104 267.033 428.104 273.878 399.586 273.878Z" fill-rule="evenodd" transform="matrix(1.10333 0 0 1 765.417 1043.49)"/><path d="M399.586 240.796 428.104 240.796 428.104 246.5 399.586 246.5Z" fill-rule="evenodd" transform="matrix(1.10333 0 0 1 765.417 1043.49)"/><path d="M396.163 210.145 391.634 205.434 380.946 216.545 376.737 212.164 372.208 216.875 380.946 225.967Z" fill-rule="evenodd" transform="matrix(1.10333 0 0 1 765.417 1043.49)"/><path d="M396.163 236.382 391.634 231.671 380.946 242.781 376.737 238.401 372.208 243.112 380.946 252.204Z" fill-rule="evenodd" transform="matrix(1.10333 0 0 1 765.417 1043.49)"/><text font-family="Arial,Arial_MSFontService,sans-serif" font-weight="400" font-size="6" transform="matrix(4.75698 0 0 4.31146 1167.67 1241)">Policy</text></g></g></g><g clip-path="url(#clip17)"><g clip-path="url(#clip18)"><g clip-path="url(#clip19)"><g clip-path="url(#clip20)"><path d="M653.553 348.078 682.586 348.078 682.586 350.287 653.553 350.287Z" fill-rule="evenodd" transform="matrix(1.0014 0 0 1 484.919 1499.43)"/><path d="M29.3975 21.6417 29.3975 20.5736 43.8872 20.5736 58.377 20.5736 58.377 21.6417 58.377 22.7099 43.8872 22.7099 29.3975 22.7099Z" transform="matrix(1.0014 0 0 1 1110 1827)"/><path d="M653.553 364.488 671.857 364.488 671.857 366.697 653.553 366.697Z" fill-rule="evenodd" transform="matrix(1.0014 0 0 1 484.919 1499.43)"/><path d="M676.275 364.488 682.586 364.488 682.586 366.697 676.275 366.697Z" fill-rule="evenodd" transform="matrix(1.0014 0 0 1 484.919 1499.43)"/><path d="M653.553 375.217 671.857 375.217 671.857 377.426 653.553 377.426Z" fill-rule="evenodd" transform="matrix(1.0014 0 0 1 484.919 1499.43)"/><path d="M676.275 375.217 682.586 375.217 682.586 377.426 676.275 377.426Z" fill-rule="evenodd" transform="matrix(1.0014 0 0 1 484.919 1499.43)"/><path d="M653.553 386.262 671.857 386.262 671.857 388.156 653.553 388.156Z" fill-rule="evenodd" transform="matrix(1.0014 0 0 1 484.919 1499.43)"/><path d="M676.275 386.262 682.586 386.262 682.586 388.156 676.275 388.156Z" fill-rule="evenodd" transform="matrix(1.0014 0 0 1 484.919 1499.43)"/><path d="M641.527 396.982 694.578 396.982 694.578 341.624C694.572 336.304 690.261 331.99 684.943 331.984L633.839 331.984C628.522 331.99 624.211 336.304 624.205 341.624L624.205 359.066 641.527 359.066 641.527 396.982ZM684.943 334.152C689.065 334.155 692.407 337.5 692.413 341.624L692.413 404.566 643.692 404.566 643.692 341.624C643.692 338.724 642.385 335.979 640.132 334.152L684.943 334.152ZM626.37 356.901 626.37 341.624C626.376 337.5 629.718 334.155 633.839 334.152L634.057 334.152C638.182 334.155 641.524 337.5 641.527 341.624L641.527 356.901 626.37 356.901ZM641.527 399.15 694.578 399.15 641.527 399.15Z" fill-rule="evenodd" transform="matrix(1.0014 0 0 1 484.919 1499.43)"/><path d="M19.5513 41.449C19.5507 11.4049 19.5712 12.7252 19.0816 11.146 18.6493 9.75142 17.7313 8.24421 16.6624 7.17413L16.1279 6.63895 39.087 6.66498C64.9621 6.6943 62.3145 6.61291 63.9965 7.43066 65.846 8.33004 67.1566 9.87187 67.8651 11.9819L68.0832 12.6321 68.1075 40.9845 68.1314 69.3372 43.8417 69.3372 19.5519 69.3372ZM47.6955 59.6308 47.6955 58.6557 38.5 58.6557 29.3046 58.6557 29.3046 59.6308 29.3046 60.6063 38.5 60.6063 47.6955 60.6063ZM58.4698 59.6308 58.4698 58.6557 55.2655 58.6557 52.0608 58.6557 52.0608 59.6308 52.0608 60.6063 55.2655 60.6063 58.4698 60.6063ZM47.6955 48.7637 47.6955 47.6024 38.5 47.6024 29.3046 47.6024 29.3046 48.7637 29.3046 49.9247 38.5 49.9247 47.6955 49.9247ZM58.4698 48.7637 58.4698 47.6024 55.2655 47.6024 52.0608 47.6024 52.0608 48.7637 52.0608 49.9247 55.2655 49.9247 58.4698 49.9247ZM47.6955 38.0355 47.6955 36.9209 38.5 36.9209 29.3046 36.9209 29.3046 38.0355 29.3046 39.1501 38.5 39.1501 47.6955 39.1501ZM58.4698 38.0355 58.4698 36.9209 55.2655 36.9209 52.0608 36.9209 52.0608 38.0355 52.0608 39.1501 55.2655 39.1501 58.4698 39.1501ZM58.4496 21.6185 58.4755 20.4807 43.89 20.4807 29.3046 20.4807 29.3046 21.642 29.3046 22.8034 43.8641 22.7799 58.4234 22.7563Z" fill="#FFFFFF" transform="matrix(1.0014 0 0 1 1110 1827)"/><path d="M2.2036 21.1077 2.2329 12.9107 2.48761 12.0927C3.24867 9.64838 4.88022 7.89531 7.15201 7.08088 8.48761 6.60206 10.3702 6.51483 11.7032 6.87004 14.1304 7.51678 16.059 9.33713 16.9223 11.7961L17.1831 12.5392 17.2093 20.9219 17.2355 29.3046 9.70487 29.3046 2.1743 29.3046Z" fill="#FFFFFF" transform="matrix(1.0014 0 0 1 1110 1827)"/><text font-family="Arial,Arial_MSFontService,sans-serif" font-weight="400" font-size="37" transform="matrix(0.316017 0 0 0.315574 1133.35 1844)">Receipt</text></g></g></g></g><g clip-path="url(#clip21)"><g clip-path="url(#clip22)"><g clip-path="url(#clip23)"><g clip-path="url(#clip24)"><path d="M66.5777 168.998C62.4982 167.783 59.1563 164.98 57.324 161.238 55.699 157.918 55.7349 158.316 55.6361 142.587L55.5468 128.382 60.5357 123.318C63.2796 120.534 65.6035 118.045 65.6998 117.787 66.0823 116.768 65.5457 116.038 61.1703 111.624L56.7605 107.176 56.6948 70.7881 56.6291 34.4005 56.0986 32.5283C55.0897 28.9672 53.7348 26.6047 51.1644 23.9254L49.6463 22.343 96.4323 22.4043 143.218 22.4656 145.217 23.1816C149.778 24.8149 153.054 28.0931 154.663 32.635 155.361 34.6038 155.374 34.7183 155.461 40.1007L155.548 45.5669 152.484 48.6617C149.911 51.2601 149.42 51.8701 149.42 52.4646 149.42 52.9519 150.284 54.6191 152.193 57.8116L154.965 62.4506 150.204 68.1722C145.817 73.4428 145.442 73.9653 145.442 74.7992 145.442 75.3523 145.602 75.8637 145.853 76.1139 146.08 76.3391 148.344 77.9799 150.885 79.7602L155.504 82.9969 155.504 110.124 155.504 137.251 115.312 137.255C71.156 137.259 73.3934 137.188 70.3616 138.677 67.4444 140.11 65.2508 143.099 64.6962 146.397 63.7529 152.007 68.1392 157.466 73.8545 157.797 75.5597 157.896 75.7036 157.866 76.2711 157.299 77.0578 156.512 77.0833 155.305 76.3318 154.432 75.9037 153.934 75.4816 153.758 74.3354 153.602 71.9507 153.275 70.3757 152.19 69.4719 150.249 67.7609 146.574 70.2652 142.558 74.7789 141.738 78.7748 141.012 82.8251 143.526 85.0799 148.132 86.2608 150.546 86.7036 152.333 86.7036 154.697 86.7036 161.466 81.9741 167.51 75.3628 169.191 73.1794 169.746 68.7643 169.649 66.5778 168.998ZM91.1496 113.147 91.1496 111.041 84.9483 111.041 78.7467 111.041 78.7467 113.147 78.7467 115.254 84.9483 115.254 91.1496 115.254ZM133.507 113.147 133.507 111.041 116.189 111.041 98.8725 111.041 98.8725 113.147 98.8725 115.254 116.189 115.254 133.507 115.254ZM133.507 93.0213 133.507 90.9151 106.126 90.9151 78.7467 90.9151 78.7467 93.0213 78.7467 95.1274 106.126 95.1274 133.507 95.1274ZM113.331 72.7207 113.399 70.5561 96.073 70.5561 78.7467 70.5561 78.7467 72.7807 78.7467 75.0054 96.0055 74.9454 113.264 74.8854ZM133.507 72.7792 133.507 70.5561 127.305 70.5561 121.104 70.5561 121.104 72.7792 121.104 75.0024 127.305 75.0024 133.507 75.0024ZM91.1496 52.5368 91.1496 50.4306 84.9483 50.4306 78.7467 50.4306 78.7467 52.5368 78.7467 54.6429 84.9483 54.6429 91.1496 54.6429ZM133.507 52.5368 133.507 50.4306 116.189 50.4306 98.8725 50.4306 98.8725 52.5368 98.8725 54.6429 116.189 54.6429 133.507 54.6429Z" fill="#FFFFFF" transform="matrix(1 0 0 1.00515 178 1186)"/><path d="M85.4941 168.18C89.5234 164.151 91.5376 158.402 90.8965 152.761 90.4714 149.02 89.3116 146.127 87.0444 143.151L85.7589 141.463 121.626 141.471C142.371 141.475 158.2 141.569 159.171 141.696 165.999 142.583 171.135 148.01 171.573 154.802 171.955 160.722 168.282 166.278 162.407 168.667L160.536 169.429 122.329 169.49 84.1221 169.552Z" fill="#FFFFFF" transform="matrix(1 0 0 1.00515 178 1186)"/><path d="M30.2726 49.9041C27.6534 48.9857 25.3543 46.7064 23.8331 43.5204 21.8276 39.3197 21.8915 34.8627 24.0189 30.5471 25.8727 26.7867 29.847 23.6428 33.9615 22.6817 36.1342 22.1743 39.919 22.3285 42.006 23.0098 46.3202 24.418 49.9312 27.9478 51.5115 32.3017 52.3089 34.4982 52.5326 37.0944 52.5348 44.1707L52.5368 50.4306 47.5269 50.4306 42.517 50.4306 43.3264 48.851C45.3638 44.8749 44.7703 40.4008 41.7872 37.2466 39.9431 35.2968 37.1384 34.0494 34.5984 34.0494 32.603 34.0494 31.5201 36.0407 32.7321 37.4811 33.2295 38.0721 33.5671 38.223 34.686 38.3539 37.3692 38.668 39.3475 40.2539 40.0437 42.6488 41.1339 46.3988 38.0225 50.0069 33.4154 50.3356 32.147 50.4261 31.5127 50.339 30.2726 49.9041Z" fill="#FFFFFF" transform="matrix(1 0 0 1.00515 178 1186)"/><path d="M1703.21 4548.93 1703.21 4493.23C1703.21 4492.57 1702.89 4491.96 1702.35 4491.58L1694.06 4485.77C1694.06 4485.77 1694.06 4485.76 1694.06 4485.75L1702.75 4475.33C1703.3 4474.67 1703.38 4473.73 1702.93 4473L1697.69 4464.26C1697.68 4464.25 1697.68 4464.24 1697.69 4464.23L1702.63 4459.3C1703 4458.92 1703.21 4458.4 1703.21 4457.86L1703.21 4448.77C1703.21 4438.17 1694.61 4429.57 1684.01 4429.57L1580.95 4429.57C1570.4 4429.54 1561.82 4438.05 1561.75 4448.59 1561.76 4454.42 1564.45 4459.93 1569.05 4463.52 1571.26 4465.08 1573.91 4465.94 1576.63 4465.96 1576.97 4465.96 1577.32 4465.93 1577.67 4465.9 1577.75 4465.92 1577.83 4465.94 1577.92 4465.95L1596.1 4465.95 1596.1 4519.51C1596.1 4520.04 1596.32 4520.55 1596.69 4520.93L1604.35 4528.58 1604.35 4528.62 1595.69 4537.27C1595.31 4537.65 1595.09 4538.16 1595.09 4538.7L1595.09 4565.98C1595.09 4576.58 1603.69 4585.18 1614.29 4585.18L1700.63 4585.18C1710.07 4585.3 1718.08 4578.32 1719.27 4568.97 1720.34 4559.01 1713.16 4550.05 1703.21 4548.93ZM1585.63 4461.91C1587.16 4460.16 1588 4457.91 1588.02 4455.6 1588.06 4450.1 1583.63 4445.61 1578.13 4445.57 1578.06 4445.57 1577.99 4445.57 1577.92 4445.57 1576.81 4445.57 1575.89 4446.49 1575.89 4447.6 1575.89 4448.71 1576.81 4449.61 1577.92 4449.61 1581.21 4449.56 1583.92 4452.18 1583.98 4455.47 1583.98 4455.51 1583.98 4455.55 1583.98 4455.6 1583.88 4457.91 1582.51 4459.99 1580.42 4460.98 1577.53 4462.44 1574.07 4462.17 1571.45 4460.27 1567.87 4457.45 1565.79 4453.15 1565.79 4448.59 1565.84 4440.23 1572.66 4433.48 1581.04 4433.53 1589.41 4433.58 1596.16 4440.4 1596.1 4448.77L1596.1 4461.91ZM1599.14 4565.98 1599.14 4539.54 1608.65 4530.02C1609.44 4529.24 1609.44 4527.96 1608.65 4527.16L1600.14 4518.67 1600.14 4448.77C1600.14 4442.87 1597.42 4437.28 1592.76 4433.65 1592.76 4433.65 1592.76 4433.63 1592.76 4433.62 1592.76 4433.62 1592.77 4433.61 1592.77 4433.61L1684.01 4433.61C1692.38 4433.61 1699.17 4440.4 1699.17 4448.77L1699.17 4457.03 1693.69 4462.5C1693.05 4463.16 1692.92 4464.17 1693.39 4464.98L1698.71 4473.84 1689.54 4484.86C1688.82 4485.72 1688.94 4487 1689.8 4487.71 1689.84 4487.75 1689.89 4487.78 1689.94 4487.82L1699.17 4494.29 1699.17 4548.81 1620.35 4548.82C1618.14 4548.69 1615.93 4549.16 1613.96 4550.19 1610.53 4551.89 1608.33 4555.34 1608.23 4559.16 1608.19 4564.66 1612.62 4569.14 1618.12 4569.18 1618.2 4569.18 1618.26 4569.18 1618.34 4569.18 1619.45 4569.18 1620.35 4568.28 1620.35 4567.16 1620.35 4566.04 1619.45 4565.14 1618.34 4565.14 1615.05 4565.2 1612.33 4562.58 1612.27 4559.29 1612.27 4559.25 1612.27 4559.2 1612.27 4559.16 1612.37 4556.85 1613.74 4554.77 1615.84 4553.78 1618.73 4552.32 1622.18 4552.59 1624.8 4554.48 1628.38 4557.31 1630.46 4561.61 1630.46 4566.16 1630.4 4574.48 1623.62 4581.18 1615.3 4581.14L1614.29 4581.14C1605.92 4581.14 1599.14 4574.35 1599.14 4565.98ZM1700.7 4581.14 1627.15 4581.14C1627.14 4581.14 1627.13 4581.14 1627.13 4581.13 1627.12 4581.12 1627.13 4581.1 1627.14 4581.1 1635.39 4574.77 1636.94 4562.94 1630.6 4554.7 1630.1 4554.05 1629.57 4553.43 1628.98 4552.85L1701.19 4552.85C1709.01 4552.86 1715.35 4559.21 1715.34 4567.03 1715.34 4567.64 1715.3 4568.25 1715.21 4568.86 1714.12 4576 1707.92 4581.24 1700.7 4581.14Z" transform="matrix(1 0 0 1.00515 -1365.56 -3248.13)"/><path d="M1642.59 4461.91 1676.93 4461.91 1676.93 4465.95 1642.59 4465.95Z" transform="matrix(1 0 0 1.00515 -1365.56 -3248.13)"/><path d="M1622.38 4461.91 1634.5 4461.91 1634.5 4465.95 1622.38 4465.95Z" transform="matrix(1 0 0 1.00515 -1365.56 -3248.13)"/><path d="M1642.59 4522.53 1676.93 4522.53 1676.93 4526.57 1642.59 4526.57Z" transform="matrix(1 0 0 1.00515 -1365.56 -3248.13)"/><path d="M1622.38 4522.53 1634.5 4522.53 1634.5 4526.57 1622.38 4526.57Z" transform="matrix(1 0 0 1.00515 -1365.56 -3248.13)"/><path d="M1622.38 4482.11 1656.73 4482.11 1656.73 4486.16 1622.38 4486.16Z" transform="matrix(1 0 0 1.00515 -1365.56 -3248.13)"/><path d="M1664.81 4482.11 1676.93 4482.11 1676.93 4486.16 1664.81 4486.16Z" transform="matrix(1 0 0 1.00515 -1365.56 -3248.13)"/><path d="M1622.38 4502.32 1676.93 4502.32 1676.93 4506.36 1622.38 4506.36Z" transform="matrix(1 0 0 1.00515 -1365.56 -3248.13)"/><text font-family="Arial,Arial_MSFontService,sans-serif" font-weight="400" font-size="3" transform="matrix(8.43478 0 0 8.47826 243.057 1232)">Claim</text></g></g></g></g><path d="M1050 1866.5C1050 1853.52 1060.52 1843 1073.5 1843 1086.48 1843 1097 1853.52 1097 1866.5 1097 1879.48 1086.48 1890 1073.5 1890 1060.52 1890 1050 1879.48 1050 1866.5Z" fill="#FFFFFF" fill-rule="evenodd"/><rect x="994" y="1824" width="70.9998" height="95.9999" fill="#FFFFFF"/><path d="M1018.58 1911.69 1063.33 1901.19 1066.7 1915.55 1021.94 1926.04Z" fill="#FFFFFF" fill-rule="evenodd"/><g clip-path="url(#clip25)"><g clip-path="url(#clip26)"><g clip-path="url(#clip27)"><g clip-path="url(#clip28)"><path d="M38.7797 98.4365C36.4036 97.729 34.457 96.0965 33.3897 93.9165 32.4432 91.9833 32.4641 92.2147 32.4066 83.0528L32.3545 74.7788 35.2604 71.8295C36.8587 70.2077 38.2123 68.7579 38.2684 68.608 38.4911 68.0141 38.1786 67.5891 35.63 65.0181L33.0615 62.4269 33.0232 41.2322 32.9849 20.0374 32.6759 18.9469C32.0883 16.8726 31.2991 15.4965 29.8019 13.9359L28.9177 13.0142 56.1692 13.0499 83.4208 13.0856 84.5852 13.5027C87.2417 14.454 89.1499 16.3635 90.0873 19.009 90.4936 20.1558 90.501 20.2225 90.5516 23.3576L90.6027 26.5415 88.8178 28.3442C87.3193 29.8576 87.0329 30.2129 87.0329 30.5592 87.0329 30.8431 87.5365 31.8142 88.6483 33.6737L90.2632 36.3758 87.4898 39.7085C84.9345 42.7785 84.7159 43.0828 84.7159 43.5685 84.7159 43.8907 84.8092 44.1885 84.9557 44.3343 85.0878 44.4655 86.4065 45.4212 87.8863 46.4582L90.5771 48.3434 90.5771 64.1441 90.5771 79.9449 67.1661 79.9473C41.4464 79.9498 42.7497 79.9085 40.9838 80.7757 39.2846 81.6104 38.0068 83.3516 37.6838 85.2725 37.1344 88.5397 39.6892 91.7199 43.0183 91.9125 44.0115 91.97 44.0953 91.9528 44.4259 91.6226 44.8841 91.1643 44.899 90.4612 44.4612 89.9522 44.2119 89.6623 43.966 89.5602 43.2984 89.4688 41.9093 89.2786 40.992 88.6463 40.4655 87.5158 39.4689 85.3757 40.9276 83.0361 43.5567 82.5586 45.8842 82.1356 48.2434 83.6002 49.5568 86.2832 50.2446 87.6888 50.5025 88.7299 50.5025 90.107 50.5025 94.0497 47.7477 97.5704 43.8968 98.549 42.625 98.8723 40.0533 98.8158 38.7798 98.4365ZM53.0922 65.9054 53.0922 64.6786 49.4801 64.6786 45.8678 64.6786 45.8678 65.9054 45.8678 67.1322 49.4801 67.1322 53.0922 67.1322ZM77.764 65.9054 77.764 64.6786 67.677 64.6786 57.5906 64.6786 57.5906 65.9054 57.5906 67.1322 67.677 67.1322 77.764 67.1322ZM77.764 54.1824 77.764 52.9556 61.8158 52.9556 45.8678 52.9556 45.8678 54.1824 45.8678 55.4092 61.8158 55.4092 77.764 55.4092ZM66.0125 42.3579 66.0518 41.097 55.9599 41.097 45.8678 41.097 45.8678 42.3928 45.8678 43.6886 55.9206 43.6537 65.9732 43.6187ZM77.764 42.392 77.764 41.097 74.1519 41.097 70.5398 41.097 70.5398 42.392 70.5398 43.6869 74.1519 43.6869 77.764 43.6869ZM53.0922 30.6013 53.0922 29.3745 49.4801 29.3745 45.8678 29.3745 45.8678 30.6013 45.8678 31.828 49.4801 31.828 53.0922 31.828ZM77.764 30.6013 77.764 29.3745 67.677 29.3745 57.5906 29.3745 57.5906 30.6013 57.5906 31.828 67.677 31.828 77.764 31.828Z" fill="#FFFFFF" transform="matrix(1.00885 0 0 1 990 1819)"/><path d="M49.798 97.9605C52.145 95.6135 53.3182 92.2648 52.9448 88.9794 52.6972 86.8 52.0216 85.1153 50.701 83.3815L49.9523 82.3984 70.844 82.4028C82.9271 82.4053 92.1474 82.4603 92.7128 82.534 96.6899 83.0509 99.6815 86.2119 99.9365 90.1679 100.159 93.6164 98.0199 96.8526 94.598 98.2439L93.5078 98.6876 71.2532 98.7234 48.9989 98.7593Z" fill="#FFFFFF" transform="matrix(1.00885 0 0 1 990 1819)"/><path d="M17.633 29.0678C16.1074 28.5329 14.7682 27.2052 13.8822 25.3495 12.714 22.9027 12.7512 20.3066 13.9903 17.7929 15.0701 15.6026 17.3851 13.7713 19.7817 13.2115 21.0472 12.9159 23.2518 13.0058 24.4674 13.4026 26.9803 14.2228 29.0836 16.2788 30.0041 18.8148 30.4685 20.0943 30.5989 21.6065 30.6001 25.7282L30.6013 29.3745 27.6831 29.3745 24.765 29.3745 25.2365 28.4544C26.4232 26.1384 26.0775 23.5324 24.3399 21.6952 23.2658 20.5595 21.6321 19.8329 20.1526 19.8329 18.9904 19.8329 18.3596 20.9927 19.0656 21.8317 19.3553 22.176 19.552 22.2639 20.2037 22.3401 21.7665 22.5231 22.9189 23.4468 23.3244 24.8418 23.9594 27.026 22.1471 29.1277 19.4636 29.3192 18.7248 29.3718 18.3553 29.3211 17.633 29.0678Z" fill="#FFFFFF" transform="matrix(1.00885 0 0 1 990 1819)"/><path d="M992.074 2649.63 992.074 2617.19C992.074 2616.8 991.887 2616.45 991.573 2616.22L986.743 2612.84C986.743 2612.84 986.743 2612.83 986.743 2612.83L991.809 2606.76C992.128 2606.37 992.172 2605.83 991.912 2605.4L988.861 2600.31C988.856 2600.31 988.856 2600.3 988.861 2600.3L991.735 2597.42C991.951 2597.2 992.074 2596.9 992.074 2596.59L992.074 2591.29C992.074 2585.11 987.067 2580.11 980.892 2580.11L920.859 2580.11C914.718 2580.09 909.717 2585.05 909.677 2591.19 909.682 2594.58 911.25 2597.79 913.927 2599.88 915.219 2600.79 916.762 2601.29 918.344 2601.3 918.545 2601.3 918.747 2601.28 918.948 2601.27 918.997 2601.28 919.047 2601.29 919.096 2601.3L929.688 2601.3 929.688 2632.49C929.688 2632.8 929.811 2633.1 930.032 2633.32L934.488 2637.78 934.488 2637.8 929.447 2642.84C929.226 2643.06 929.099 2643.36 929.099 2643.67L929.099 2659.56C929.099 2665.74 934.105 2670.74 940.281 2670.74L990.57 2670.74C996.068 2670.81 1000.74 2666.75 1001.43 2661.3 1002.05 2655.5 997.871 2650.28 992.074 2649.63ZM923.586 2598.94C924.475 2597.92 924.967 2596.62 924.981 2595.27 925.001 2592.06 922.422 2589.45 919.219 2589.43 919.179 2589.43 919.135 2589.43 919.096 2589.43 918.447 2589.43 917.917 2589.96 917.917 2590.61 917.917 2591.26 918.447 2591.78 919.096 2591.78 921.012 2591.75 922.594 2593.28 922.628 2595.19 922.628 2595.22 922.628 2595.24 922.628 2595.27 922.569 2596.62 921.768 2597.82 920.55 2598.4 918.87 2599.25 916.855 2599.09 915.327 2597.99 913.244 2596.35 912.031 2593.84 912.031 2591.19 912.06 2586.31 916.035 2582.38 920.913 2582.41 925.787 2582.44 929.718 2586.42 929.688 2591.29L929.688 2598.94ZM931.457 2659.56 931.457 2644.16 936.994 2638.62C937.456 2638.16 937.456 2637.41 936.994 2636.95L932.041 2632 932.041 2591.29C932.041 2587.85 930.455 2584.6 927.743 2582.48 927.738 2582.48 927.738 2582.47 927.743 2582.47 927.743 2582.47 927.747 2582.46 927.747 2582.46L980.892 2582.46C985.766 2582.46 989.72 2586.42 989.72 2591.29L989.72 2596.1 986.532 2599.29C986.154 2599.67 986.08 2600.26 986.355 2600.73L989.455 2605.89 984.11 2612.31C983.692 2612.81 983.761 2613.56 984.262 2613.97 984.287 2613.99 984.316 2614.01 984.346 2614.03L989.72 2617.8 989.72 2649.56 943.813 2649.57C942.521 2649.49 941.234 2649.77 940.089 2650.36 938.089 2651.35 936.807 2653.36 936.753 2655.59 936.729 2658.79 939.308 2661.4 942.511 2661.42 942.555 2661.42 942.595 2661.42 942.639 2661.42 943.287 2661.42 943.813 2660.9 943.813 2660.25 943.813 2659.6 943.287 2659.07 942.639 2659.07 940.723 2659.1 939.141 2657.58 939.106 2655.67 939.106 2655.64 939.106 2655.61 939.106 2655.59 939.16 2654.24 939.961 2653.03 941.185 2652.45 942.865 2651.6 944.879 2651.76 946.402 2652.87 948.485 2654.51 949.699 2657.02 949.699 2659.67 949.665 2664.51 945.714 2668.42 940.87 2668.39L940.281 2668.39C935.407 2668.39 931.457 2664.44 931.457 2659.56ZM990.61 2668.39 947.773 2668.39C947.768 2668.39 947.758 2668.39 947.758 2668.39 947.753 2668.38 947.758 2668.37 947.763 2668.37 952.568 2664.68 953.472 2657.79 949.782 2652.99 949.493 2652.61 949.178 2652.25 948.839 2651.91L990.9 2651.91C995.454 2651.92 999.144 2655.62 999.139 2660.17 999.139 2660.53 999.114 2660.88 999.065 2661.24 998.431 2665.4 994.82 2668.45 990.61 2668.39Z" transform="matrix(1.00885 0 0 1 82.9555 -750.516)"/><path d="M956.764 2598.94 976.77 2598.94 976.77 2601.3 956.764 2601.3Z" transform="matrix(1.00885 0 0 1 82.9555 -750.516)"/><path d="M944.992 2598.94 952.052 2598.94 952.052 2601.3 944.992 2601.3Z" transform="matrix(1.00885 0 0 1 82.9555 -750.516)"/><path d="M956.764 2634.25 976.77 2634.25 976.77 2636.61 956.764 2636.61Z" transform="matrix(1.00885 0 0 1 82.9555 -750.516)"/><path d="M944.992 2634.25 952.052 2634.25 952.052 2636.61 944.992 2636.61Z" transform="matrix(1.00885 0 0 1 82.9555 -750.516)"/><path d="M944.992 2610.71 965.003 2610.71 965.003 2613.07 944.992 2613.07Z" transform="matrix(1.00885 0 0 1 82.9555 -750.516)"/><path d="M969.71 2610.71 976.77 2610.71 976.77 2613.07 969.71 2613.07Z" transform="matrix(1.00885 0 0 1 82.9555 -750.516)"/><path d="M944.992 2622.48 976.77 2622.48 976.77 2624.84 944.992 2624.84Z" transform="matrix(1.00885 0 0 1 82.9555 -750.516)"/><text font-family="Arial,Arial_MSFontService,sans-serif" font-weight="400" font-size="3" transform="matrix(4.95653 0 0 4.91303 1028.23 1846)">Claim</text></g></g></g></g></g></svg>