<svg width="2822" height="1193" xmlns="http://www.w3.org/2000/svg" xmlns:xlink="http://www.w3.org/1999/xlink" xml:space="preserve" overflow="hidden"><defs><clipPath id="clip0"><rect x="752" y="950" width="2822" height="1193"/></clipPath><clipPath id="clip1"><rect x="2953" y="1580" width="235" height="234"/></clipPath><clipPath id="clip2"><rect x="2953" y="1580" width="235" height="234"/></clipPath><clipPath id="clip3"><rect x="2953" y="1580" width="235" height="234"/></clipPath><clipPath id="clip4"><rect x="2233" y="1285" width="288" height="283"/></clipPath><clipPath id="clip5"><rect x="2233" y="1285" width="288" height="283"/></clipPath><clipPath id="clip6"><rect x="2233" y="1285" width="288" height="283"/></clipPath><clipPath id="clip7"><rect x="2233" y="1285" width="288" height="283"/></clipPath><clipPath id="clip8"><rect x="2013" y="1331" width="132" height="154"/></clipPath><clipPath id="clip9"><rect x="2013" y="1331" width="132" height="154"/></clipPath><clipPath id="clip10"><rect x="2013" y="1331" width="132" height="154"/></clipPath><clipPath id="clip11"><rect x="2038" y="1579" width="234" height="234"/></clipPath><clipPath id="clip12"><rect x="2038" y="1579" width="234" height="234"/></clipPath><clipPath id="clip13"><rect x="2038" y="1579" width="234" height="234"/></clipPath><clipPath id="clip14"><rect x="1120" y="1580" width="236" height="234"/></clipPath><clipPath id="clip15"><rect x="1120" y="1580" width="236" height="234"/></clipPath><clipPath id="clip16"><rect x="1120" y="1580" width="236" height="234"/></clipPath><clipPath id="clip17"><rect x="1065" y="1251" width="88" height="88"/></clipPath><clipPath id="clip18"><rect x="1065" y="1251" width="88" height="88"/></clipPath><clipPath id="clip19"><rect x="1065" y="1251" width="88" height="88"/></clipPath><clipPath id="clip20"><rect x="2017" y="1481" width="47" height="48"/></clipPath><clipPath id="clip21"><rect x="2017" y="1481" width="47" height="48"/></clipPath><clipPath id="clip22"><rect x="2017" y="1481" width="47" height="48"/></clipPath><clipPath id="clip23"><rect x="1796" y="1709" width="248" height="121"/></clipPath><clipPath id="clip24"><rect x="1796" y="1709" width="248" height="121"/></clipPath><clipPath id="clip25"><rect x="1796" y="1709" width="248" height="121"/></clipPath><clipPath id="clip26"><rect x="1796" y="1709" width="248" height="121"/></clipPath><clipPath id="clip27"><rect x="1903" y="1731" width="22" height="22"/></clipPath><clipPath id="clip28"><rect x="1903" y="1731" width="22" height="22"/></clipPath><clipPath id="clip29"><rect x="1903" y="1731" width="22" height="22"/></clipPath><clipPath id="clip30"><rect x="1972" y="1709" width="72" height="56"/></clipPath><clipPath id="clip31"><rect x="1972" y="1709" width="72" height="56"/></clipPath><clipPath id="clip32"><rect x="1972" y="1709" width="72" height="56"/></clipPath><clipPath id="clip33"><rect x="1972" y="1709" width="72" height="56"/></clipPath><clipPath id="clip34"><rect x="2825" y="1684" width="134" height="141"/></clipPath><clipPath id="clip35"><rect x="2825" y="1684" width="134" height="141"/></clipPath><clipPath id="clip36"><rect x="2825" y="1684" width="134" height="141"/></clipPath><clipPath id="clip37"><rect x="2825" y="1684" width="134" height="141"/></clipPath><clipPath id="clip38"><rect x="2679" y="1672" width="170" height="170"/></clipPath><clipPath id="clip39"><rect x="2679" y="1672" width="170" height="170"/></clipPath><clipPath id="clip40"><rect x="2679" y="1672" width="170" height="170"/></clipPath><clipPath id="clip41"><rect x="2679" y="1672" width="170" height="170"/></clipPath></defs><g clip-path="url(#clip0)" transform="translate(-752 -950)"><rect x="754.5" y="952.5" width="2817" height="1188" stroke="#000000" stroke-width="4.58333" stroke-miterlimit="8" fill="#FFFFFF"/><text font-family="Arial,Arial_MSFontService,sans-serif" font-weight="700" font-size="50" transform="matrix(1 0 0 1 787.408 1017)">Statement </text><text font-family="Arial,Arial_MSFontService,sans-serif" font-weight="700" font-size="50" transform="matrix(1 0 0 1 1044.65 1017)">stores link from the </text><text font-family="Arial,Arial_MSFontService,sans-serif" font-weight="700" font-size="50" transform="matrix(1 0 0 1 1524.75 1017)">SCITT </text><text font-family="Arial,Arial_MSFontService,sans-serif" font-weight="700" font-size="50" transform="matrix(1 0 0 1 1684.6 1017)">Ledger to associated storage</text><rect x="2642.5" y="1131.5" width="871" height="972" stroke="#2F528F" stroke-width="4.58333" stroke-miterlimit="8" fill="#FFFFFF"/><text font-family="Arial,Arial_MSFontService,sans-serif" font-weight="400" font-size="64" transform="matrix(1 0 0 1 2674.94 1210)">Associated Storage</text><rect x="806.5" y="1130.5" width="872" height="972" stroke="#2F528F" stroke-width="4.58333" stroke-miterlimit="8" fill="#FFFFFF"/><text font-family="Arial,Arial_MSFontService,sans-serif" font-weight="400" font-size="64" transform="matrix(1 0 0 1 839.474 1209)">Artifacts</text><path d="M1234.84 1582.58 1234.84 1551.65 1245.16 1551.65 1245.16 1582.58ZM1234.84 1541.33 1234.84 1510.4 1245.16 1510.4 1245.16 1541.33ZM1240 1505.24 1270.94 1505.24 1270.94 1494.93 1240 1494.93ZM1281.25 1494.93 1312.19 1494.93 1312.19 1505.24 1281.25 1505.24ZM1322.5 1494.93 1353.44 1494.93 1353.44 1505.24 1322.5 1505.24ZM1363.75 1494.93 1394.69 1494.93 1394.69 1505.24 1363.75 1505.24ZM1405 1494.93 1435.94 1494.93 1435.94 1505.24 1405 1505.24ZM1446.25 1494.93 1477.19 1494.93 1477.19 1505.24 1446.25 1505.24ZM1487.5 1494.93 1518.44 1494.93 1518.44 1505.24 1487.5 1505.24ZM1528.75 1494.93 1559.69 1494.93 1559.69 1505.24 1528.75 1505.24ZM1570 1494.93 1600.94 1494.93 1600.94 1505.24 1570 1505.24ZM1611.25 1494.93 1642.19 1494.93 1642.19 1505.24 1611.25 1505.24ZM1652.5 1494.93 1683.44 1494.93 1683.44 1505.24 1652.5 1505.24ZM1693.75 1494.93 1724.69 1494.93 1724.69 1505.24 1693.75 1505.24ZM1735 1494.93 1765.94 1494.93 1765.94 1505.24 1735 1505.24ZM1776.25 1494.93 1807.19 1494.93 1807.19 1505.24 1776.25 1505.24ZM1817.5 1494.93 1848.44 1494.93 1848.44 1505.24 1817.5 1505.24ZM1858.75 1494.93 1889.69 1494.93 1889.69 1505.24 1858.75 1505.24ZM1900 1494.93 1930.94 1494.93 1930.94 1505.24 1900 1505.24ZM1941.25 1494.93 1972.19 1494.93 1972.19 1505.24 1941.25 1505.24ZM1982.5 1494.93 2013.44 1494.93 2013.44 1505.24 1982.5 1505.24ZM2023.75 1494.93 2054.69 1494.93 2054.69 1505.24 2023.75 1505.24ZM2065 1494.93 2095.94 1494.93 2095.94 1505.24 2065 1505.24ZM2106.25 1494.93 2137.19 1494.93 2137.19 1505.24 2106.25 1505.24ZM2147.5 1494.93 2178.44 1494.93 2178.44 1505.24 2147.5 1505.24ZM2188.75 1494.93 2219.69 1494.93 2219.69 1505.24 2188.75 1505.24ZM2230 1494.93 2260.94 1494.93 2260.94 1505.24 2230 1505.24ZM2271.25 1494.93 2302.19 1494.93 2302.19 1505.24 2271.25 1505.24ZM2312.5 1494.93 2343.44 1494.93 2343.44 1505.24 2312.5 1505.24ZM2353.75 1494.93 2384.69 1494.93 2384.69 1505.24 2353.75 1505.24ZM2395 1494.93 2425.94 1494.93 2425.94 1505.24 2395 1505.24ZM2436.25 1494.93 2467.19 1494.93 2467.19 1505.24 2436.25 1505.24ZM2477.5 1494.93 2508.44 1494.93 2508.44 1505.24 2477.5 1505.24ZM2518.75 1494.93 2549.69 1494.93 2549.69 1505.24 2518.75 1505.24ZM2560 1494.93 2590.94 1494.93 2590.94 1505.24 2560 1505.24ZM2601.25 1494.93 2632.19 1494.93 2632.19 1505.24 2601.25 1505.24ZM2642.5 1494.93 2673.44 1494.93 2673.44 1505.24 2642.5 1505.24ZM2683.75 1494.93 2714.69 1494.93 2714.69 1505.24 2683.75 1505.24ZM2725 1494.93 2755.94 1494.93 2755.94 1505.24 2725 1505.24ZM2766.25 1494.93 2797.19 1494.93 2797.19 1505.24 2766.25 1505.24ZM2807.5 1494.93 2838.44 1494.93 2838.44 1505.24 2807.5 1505.24ZM2848.75 1494.93 2879.69 1494.93 2879.69 1505.24 2848.75 1505.24ZM2890 1494.93 2920.94 1494.93 2920.94 1505.24 2890 1505.24ZM2931.25 1494.93 2962.19 1494.93 2962.19 1505.24 2931.25 1505.24ZM2972.5 1494.93 3003.44 1494.93 3003.44 1505.24 2972.5 1505.24ZM3013.75 1494.93 3044.69 1494.93 3044.69 1505.24 3013.75 1505.24ZM3055 1494.93 3078.01 1494.93 3078.01 1513.17 3067.69 1513.17 3067.69 1500.08 3072.85 1505.24 3055 1505.24ZM3078.01 1523.48 3078.01 1552.22 3067.69 1552.22 3067.69 1523.48ZM3088.32 1547.06 3072.85 1578 3057.38 1547.06Z" fill="#4472C4"/><rect x="1723.5" y="1131.5" width="871" height="972" stroke="#2F528F" stroke-width="4.58333" stroke-miterlimit="8" fill="#FFFFFF"/><text font-family="Arial,Arial_MSFontService,sans-serif" font-weight="400" font-size="64" transform="matrix(1 0 0 1 1755.53 1210)">SCITT</text><path d="M2651.5 1819.01 2936.37 1784.06 3215.07 1783.5 3497.5 1819.01 3497.5 2078.5 2651.5 2078.5 2651.5 1819.01Z" stroke="#000000" stroke-width="4.58333" stroke-linecap="square" stroke-miterlimit="8" stroke-dasharray="13.75 4.58333" fill="#FFFFFF" fill-rule="evenodd"/><rect x="2941.5" y="1892.5" width="260" height="165" stroke="#2F528F" stroke-width="4.58333" stroke-miterlimit="8" fill="#FFFFFF"/><text font-family="Arial,Arial_MSFontService,sans-serif" font-style="italic" font-weight="400" font-size="41" transform="matrix(1 0 0 1 2990.8 1965)">Package </text><text font-family="Arial,Arial_MSFontService,sans-serif" font-style="italic" font-weight="400" font-size="41" transform="matrix(1 0 0 1 2979.34 2015)">Managers</text><rect x="3217.5" y="1892.5" width="259" height="165" stroke="#2F528F" stroke-width="4.58333" stroke-miterlimit="8" fill="#FFFFFF"/><text font-family="Arial,Arial_MSFontService,sans-serif" font-style="italic" font-weight="400" font-size="46" transform="matrix(1 0 0 1 3300.71 1964)">Blob </text><text font-family="Arial,Arial_MSFontService,sans-serif" font-style="italic" font-weight="400" font-size="46" transform="matrix(1 0 0 1 3266.61 2019)">Storage</text><rect x="2661.5" y="1892.5" width="260" height="165" stroke="#2F528F" stroke-width="4.58333" stroke-miterlimit="8" fill="#FFFFFF"/><text font-family="Arial,Arial_MSFontService,sans-serif" font-style="italic" font-weight="400" font-size="46" transform="matrix(1 0 0 1 2750.42 1964)">OCI </text><text font-family="Arial,Arial_MSFontService,sans-serif" font-style="italic" font-weight="400" font-size="46" transform="matrix(1 0 0 1 2708.6 2019)">Artifacts</text><path d="M1735.5 1818.89 2020.04 1784.06 2298.4 1783.5 2580.5 1818.89 2580.5 2077.5 1735.5 2077.5 1735.5 1818.89Z" stroke="#000000" stroke-width="4.58333" stroke-linecap="square" stroke-miterlimit="8" stroke-dasharray="13.75 4.58333" fill="#FFFFFF" fill-rule="evenodd"/><rect x="2025.5" y="1892.5" width="259" height="164" stroke="#2F528F" stroke-width="4.58333" stroke-miterlimit="8" fill="#FFFFFF"/><text font-family="Arial,Arial_MSFontService,sans-serif" font-style="italic" font-weight="400" font-size="41" transform="matrix(1 0 0 1 2141 1989)">B</text><rect x="2300.5" y="1892.5" width="260" height="164" stroke="#2F528F" stroke-width="4.58333" stroke-miterlimit="8" fill="#FFFFFF"/><text font-family="Arial,Arial_MSFontService,sans-serif" font-style="italic" font-weight="400" font-size="46" transform="matrix(1 0 0 1 2413.37 1991)">C</text><rect x="1745.5" y="1892.5" width="259" height="164" stroke="#2F528F" stroke-width="4.58333" stroke-miterlimit="8" fill="#FFFFFF"/><text font-family="Arial,Arial_MSFontService,sans-serif" font-style="italic" font-weight="400" font-size="46" transform="matrix(1 0 0 1 1859.66 1991)">A</text><rect x="1769.5" y="1413.5" width="301" height="121" stroke="#2F528F" stroke-width="4.58333" stroke-miterlimit="8" fill="none"/><text font-family="Arial,Arial_MSFontService,sans-serif" font-weight="400" font-size="64" transform="matrix(1 0 0 1 1802.22 1492)">eNotary</text><path d="M868.693 1546 872.282 1546 1083.72 1546 1087.31 1546C1089.9 1546 1092 1543.91 1092 1541.31L1092 1515.14C1092 1512.55 1089.9 1510.45 1087.31 1510.45L1035.87 1510.46 1029.66 1484.28C1054.45 1467.24 1069.16 1439.45 1069.16 1409.28 1069.16 1376.69 1051.85 1346.84 1023.77 1330.53 1024.21 1327.96 1024.44 1325.4 1024.44 1322.9 1024.44 1314.83 1022.32 1306.92 1018.28 1299.9L1024.4 1275.65C1033.2 1273.91 1039.86 1266.14 1039.86 1256.83L1039.86 1248.69C1039.86 1246.09 1037.77 1244 1035.17 1244L920.819 1244C918.225 1244 916.128 1246.09 916.128 1248.69L916.128 1256.83C916.128 1266.13 922.789 1273.91 931.593 1275.65L937.708 1299.9C933.674 1306.92 931.554 1314.83 931.554 1322.9 931.554 1325.41 931.779 1327.96 932.221 1330.53 904.141 1346.83 886.833 1376.69 886.833 1409.28 886.833 1439.44 901.537 1467.24 926.329 1484.28L920.119 1510.46 868.692 1510.46C866.097 1510.46 864 1512.56 864 1515.15L864 1541.32C864 1543.91 866.097 1546 868.692 1546L868.693 1546ZM896.316 1412.65 1059.67 1412.65C1059.14 1425.78 1055.51 1438.33 1049.24 1449.42L906.743 1449.42C900.471 1438.33 896.846 1425.79 896.313 1412.65L896.316 1412.65ZM907.178 1368.43 1048.8 1368.43C1054.88 1378.95 1058.64 1390.82 1059.54 1403.28L896.431 1403.28C897.34 1390.82 901.093 1378.95 907.172 1368.43L907.178 1368.43ZM941.417 1328.38C941.125 1326.53 940.929 1324.69 940.929 1322.9 940.929 1316.75 942.562 1310.75 945.517 1305.33L1010.51 1305.4C1013.44 1310.8 1015.06 1316.78 1015.06 1322.91 1015.06 1324.7 1014.86 1326.54 1014.57 1328.39L941.417 1328.39 941.417 1328.38ZM935.338 1266.65C929.92 1266.65 925.507 1262.24 925.507 1256.83L925.507 1253.37 1030.48 1253.37 1030.48 1256.83C1030.48 1262.24 1026.07 1266.65 1020.65 1266.65 1018.5 1266.65 1016.63 1268.11 1016.1 1270.19L1009.58 1296.02 946.378 1295.96 939.878 1270.19C939.358 1268.1 937.486 1266.65 935.337 1266.65 935.337 1266.65 935.338 1266.65 935.338 1266.65ZM938.547 1337.75 1017.44 1337.75C1027.32 1343.21 1035.78 1350.49 1042.49 1359.07L913.497 1359.07C920.197 1350.48 928.661 1343.2 938.548 1337.75L938.547 1337.75ZM912.959 1458.79 1043.02 1458.79C1037.27 1466.31 1030.17 1472.91 1021.88 1478.19L934.102 1478.19C925.809 1472.91 918.719 1466.31 912.957 1458.79 912.958 1458.79 912.959 1458.79 912.959 1458.79ZM935.184 1487.56 1020.81 1487.56 1026.24 1510.46 929.752 1510.46 935.184 1487.56ZM873.378 1519.83 1082.61 1519.83 1082.61 1536.63 873.378 1536.63 873.378 1519.83Z" fill-rule="evenodd"/><g clip-path="url(#clip1)"><g clip-path="url(#clip2)"><g clip-path="url(#clip3)"><path d="M0 10.8372 233 10.8372 233 57.8806-3.75824e-06 57.8806Z" fill="#262261" transform="matrix(1.00429 0 0 1 2954 1581)"/><path d="M15.0243 222.163 217.976 222.163 217.976 72.4123 15.0243 72.4123 15.0243 222.163ZM156.401 152.706 76.5994 152.706 76.5994 137.928 156.401 137.928 156.401 152.706ZM174.134 99.9979 190.883 99.9979 190.883 104.924 179.799 104.924 179.799 108.126 189.651 108.126 189.651 112.559 179.799 112.559 179.799 115.761 190.883 115.761 190.883 120.687 174.134 120.687 174.134 99.9979ZM149.997 110.343C149.997 104.431 154.677 99.5053 161.08 99.5053 164.775 99.5053 167.238 100.491 169.455 102.461L166.006 106.648C164.529 105.417 163.051 104.678 161.08 104.678 158.125 104.678 155.908 107.141 155.908 110.343L155.908 110.343C155.908 113.791 158.125 116.007 161.573 116.007 163.051 116.007 164.036 115.761 164.775 115.269L164.775 112.806 160.834 112.806 160.834 108.618 170.44 108.618 170.44 117.978C168.223 119.702 165.267 121.18 161.573 121.18 154.923 120.933 149.997 116.5 149.997 110.343L149.997 110.343ZM135.465 99.7516 140.884 99.7516 149.751 120.687 143.593 120.687 142.115 116.993 133.987 116.993 132.51 120.687 126.598 120.687 135.465 99.7516ZM106.155 99.9979 116.007 99.9979C119.209 99.9979 121.426 100.737 122.658 102.215 123.889 103.446 124.382 104.924 124.382 107.141L124.382 107.141C124.382 110.343 122.658 112.313 120.195 113.544L125.121 120.687 118.47 120.687 114.283 114.53 111.82 114.53 111.82 120.687 106.155 120.687 106.155 99.9979ZM80.5402 110.343C80.5402 104.431 85.2199 99.5053 91.6237 99.5053 98.0275 99.5053 102.707 104.185 102.707 110.096L102.707 110.096C102.707 116.007 98.0275 120.933 91.6237 120.933 85.4662 120.933 80.5402 116.254 80.5402 110.343L80.5402 110.343ZM61.0825 99.9979 79.3087 99.9979 79.3087 104.924 73.1512 104.924 73.1512 120.687 67.4863 120.687 67.4863 104.924 61.3288 104.924 61.3288 99.9979ZM50.2453 112.806C45.8119 111.82 42.3637 110.589 42.3637 106.402L42.3637 106.402C42.3637 102.461 45.3193 99.7516 50.2453 99.7516 53.6935 99.7516 56.4028 100.737 58.8658 102.461L55.9102 106.402C53.9398 104.924 51.9694 104.431 49.999 104.431 48.5212 104.431 48.0286 104.924 48.0286 105.663L48.0286 105.663C48.0286 106.648 48.7675 107.141 51.7231 107.633 56.4028 108.618 59.3584 110.096 59.3584 114.037L59.3584 114.037C59.3584 118.224 55.9102 120.687 50.9842 120.687 47.2897 120.687 43.8414 119.456 41.3784 117.239L44.5804 113.544C46.5508 115.269 49.0138 116.007 51.2305 116.007 52.7083 116.007 53.6935 115.515 53.6935 114.53L53.6935 114.53C53.6935 113.791 52.9546 113.298 50.2453 112.806Z" fill="#262261" transform="matrix(1.00429 0 0 1 2954 1581)"/><path d="M91.87 115.761C95.0719 115.761 97.0423 113.298 97.0423 110.343L97.0423 110.343C97.0423 107.387 94.8256 104.678 91.87 104.678 88.6681 104.678 86.6977 107.141 86.6977 110.096L86.6977 110.096C86.4514 113.298 88.6681 115.761 91.87 115.761Z" fill="#262261" transform="matrix(1.00429 0 0 1 2954 1581)"/><path d="M118.717 107.387 118.717 107.387C118.717 105.663 117.485 104.924 115.515 104.924L111.82 104.924 111.82 109.85 115.761 109.85C117.732 109.85 118.717 108.865 118.717 107.387Z" fill="#262261" transform="matrix(1.00429 0 0 1 2954 1581)"/><path d="M138.174 106.648 135.711 112.313 140.391 112.313Z" fill="#262261" transform="matrix(1.00429 0 0 1 2954 1581)"/></g></g></g><g clip-path="url(#clip4)"><g clip-path="url(#clip5)"><g clip-path="url(#clip6)"><g clip-path="url(#clip7)"><path d="M96.7778 245.656C90.8478 243.891 85.9903 239.816 83.3264 234.376 80.9647 229.551 81.0165 230.129 80.873 207.265L80.7431 186.616 87.995 179.256C91.9838 175.209 95.3618 171.591 95.5018 171.217 96.0577 169.735 95.2777 168.674 88.9176 162.258L82.5076 155.791 82.4119 102.898 82.3163 50.0048 81.5453 47.2834C80.0789 42.107 78.1094 38.6729 74.3729 34.7782L72.1663 32.4779 140.175 32.5671 208.183 32.6562 211.089 33.697C217.719 36.0712 222.481 40.8364 224.82 47.4385 225.834 50.3003 225.853 50.4669 225.979 58.2909L226.106 66.2367 221.652 70.7351C217.912 74.5119 217.197 75.3987 217.197 76.2628 217.197 76.9714 218.454 79.3951 221.229 84.0355L225.259 90.7788 218.338 99.0958C211.961 106.757 211.415 107.516 211.415 108.729 211.415 109.533 211.648 110.276 212.014 110.64 212.343 110.967 215.634 113.352 219.327 115.94L226.043 120.645 226.043 160.077 226.043 199.509 167.618 199.515C103.433 199.521 106.685 199.418 102.278 201.582 98.0378 203.665 94.8491 208.011 94.0429 212.805 92.6717 220.958 99.0474 228.894 107.355 229.375 109.834 229.519 110.043 229.475 110.868 228.652 112.012 227.507 112.049 225.753 110.956 224.483 110.334 223.759 109.721 223.505 108.054 223.276 104.588 222.802 102.299 221.224 100.985 218.403 98.498 213.062 102.138 207.223 108.699 206.032 114.508 204.976 120.395 208.631 123.673 215.327 125.389 218.834 126.033 221.432 126.033 224.869 126.033 234.708 119.158 243.495 109.548 245.937 106.374 246.744 99.9564 246.603 96.7778 245.656ZM132.496 164.472 132.496 161.411 123.482 161.411 114.467 161.411 114.467 164.472 114.467 167.534 123.482 167.534 132.496 167.534ZM194.066 164.472 194.066 161.411 168.893 161.411 143.722 161.411 143.722 164.472 143.722 167.534 168.893 167.534 194.066 167.534ZM194.066 135.216 194.066 132.155 154.266 132.155 114.467 132.155 114.467 135.216 114.467 138.278 154.266 138.278 194.066 138.278ZM164.739 105.707 164.837 102.561 139.652 102.561 114.467 102.561 114.467 105.795 114.467 109.029 139.554 108.941 164.641 108.854ZM194.066 105.792 194.066 102.561 185.052 102.561 176.038 102.561 176.038 105.792 176.038 109.024 185.052 109.024 194.066 109.024ZM132.496 76.3681 132.496 73.3064 123.482 73.3064 114.467 73.3064 114.467 76.3681 114.467 79.4293 123.482 79.4293 132.496 79.4293ZM194.066 76.3681 194.066 73.3064 168.893 73.3064 143.722 73.3064 143.722 76.3681 143.722 79.4293 168.893 79.4293 194.066 79.4293Z" fill="#FFFFFF" transform="matrix(1.01773 0 0 1 2233 1286)"/><path d="M124.275 244.468C130.132 238.611 133.06 230.254 132.128 222.055 131.51 216.616 129.824 212.412 126.528 208.085L124.66 205.632 176.797 205.643C206.951 205.649 229.961 205.786 231.372 205.97 241.297 207.26 248.763 215.149 249.4 225.021 249.955 233.627 244.616 241.703 236.077 245.176L233.356 246.283 177.818 246.372 122.281 246.462Z" fill="#FFFFFF" transform="matrix(1.01773 0 0 1 2233 1286)"/><path d="M44.0045 72.5409C40.1972 71.206 36.8552 67.893 34.644 63.2616 31.7288 57.1553 31.8216 50.6769 34.9141 44.4036 37.6087 38.9374 43.3858 34.3673 49.3668 32.9703 52.525 32.2327 58.0265 32.457 61.0605 33.4473 67.3315 35.4942 72.5802 40.6252 74.8775 46.9539 76.0367 50.1469 76.362 53.9209 76.3651 64.2068L76.3681 73.3064 69.0854 73.3064 61.8033 73.3064 62.9796 71.0101C65.9411 65.2306 65.0785 58.727 60.7423 54.142 58.0618 51.3079 53.9848 49.4945 50.2925 49.4945 47.392 49.4945 45.8179 52.389 47.5796 54.4829 48.3026 55.342 48.7934 55.5615 50.4201 55.7514 54.3202 56.2081 57.1956 58.5135 58.2078 61.9946 59.7925 67.4458 55.27 72.6905 48.5729 73.1684 46.7292 73.2998 45.8071 73.1734 44.0045 72.5409Z" fill="#FFFFFF" transform="matrix(1.01773 0 0 1 2233 1286)"/><path d="M2475.8 6612.34 2475.8 6531.42C2475.8 6530.46 2475.33 6529.56 2474.55 6529L2462.5 6520.54C2462.5 6520.54 2462.5 6520.54 2462.5 6520.54L2475.14 6505.38C2475.93 6504.43 2476.04 6503.07 2475.39 6501.96L2467.78 6489.27C2467.77 6489.27 2467.77 6489.27 2467.78 6489.27L2474.95 6482.07C2475.49 6481.52 2475.8 6480.76 2475.8 6480L2475.8 6466.76C2475.8 6451.35 2463.3 6438.86 2447.89 6438.86L2298.08 6438.86C2282.75 6438.81 2270.27 6451.2 2270.17 6466.51 2270.18 6474.97 2274.1 6482.98 2280.78 6488.21 2284 6490.48 2287.85 6491.74 2291.8 6491.74 2292.3 6491.74 2292.8 6491.69 2293.31 6491.69 2293.43 6491.69 2293.56 6491.74 2293.68 6491.74L2320.11 6491.74 2320.11 6569.59C2320.11 6570.34 2320.42 6571.1 2320.97 6571.65L2332.09 6582.78 2332.09 6582.83 2319.51 6595.42C2318.96 6595.98 2318.64 6596.73 2318.64 6597.49L2318.64 6637.17C2318.64 6652.58 2331.13 6665.07 2346.55 6665.07L2472.05 6665.07C2485.77 6665.22 2497.42 6655.1 2499.14 6641.5 2500.7 6627 2490.27 6614 2475.8 6612.34ZM2304.88 6485.9C2307.1 6483.33 2308.33 6480.05 2308.37 6476.68 2308.42 6468.67 2301.97 6462.18 2293.98 6462.13 2293.88 6462.13 2293.78 6462.13 2293.68 6462.13 2292.06 6462.13 2290.74 6463.44 2290.74 6465.05 2290.74 6466.71 2292.06 6468.02 2293.68 6468.02 2298.46 6467.92 2302.41 6471.75 2302.49 6476.53 2302.49 6476.58 2302.49 6476.63 2302.49 6476.68 2302.34 6480.05 2300.35 6483.08 2297.31 6484.54 2293.11 6486.65 2288.09 6486.25 2284.27 6483.48 2279.07 6479.4 2276.05 6473.16 2276.05 6466.51 2276.12 6454.37 2286.04 6444.55 2298.21 6444.6 2310.37 6444.7 2320.18 6454.62 2320.11 6466.76L2320.11 6485.9ZM2324.52 6637.17 2324.52 6598.7 2338.34 6584.9C2339.5 6583.74 2339.5 6581.88 2338.34 6580.72L2325.99 6568.38 2325.99 6466.76C2325.99 6458.2 2322.02 6450.09 2315.25 6444.8 2315.24 6444.8 2315.24 6444.75 2315.25 6444.75 2315.25 6444.75 2315.27 6444.75 2315.27 6444.75L2447.89 6444.75C2460.06 6444.75 2469.93 6454.62 2469.93 6466.76L2469.93 6478.8 2461.97 6486.75C2461.02 6487.71 2460.84 6489.17 2461.53 6490.33L2469.27 6503.22 2455.93 6519.23C2454.88 6520.49 2455.06 6522.35 2456.3 6523.36 2456.36 6523.41 2456.44 6523.46 2456.51 6523.51L2469.93 6532.93 2469.93 6612.19 2355.36 6612.19C2352.14 6611.99 2348.92 6612.7 2346.07 6614.21 2341.08 6616.67 2337.87 6621.66 2337.74 6627.25 2337.68 6635.21 2344.12 6641.75 2352.11 6641.8 2352.22 6641.8 2352.32 6641.8 2352.43 6641.8 2354.05 6641.8 2355.36 6640.49 2355.36 6638.88 2355.36 6637.22 2354.05 6635.91 2352.43 6635.91 2347.65 6636.01 2343.7 6632.18 2343.62 6627.45 2343.62 6627.35 2343.62 6627.3 2343.62 6627.25 2343.75 6623.87 2345.75 6620.85 2348.8 6619.39 2353 6617.28 2358.02 6617.68 2361.82 6620.45 2367.02 6624.53 2370.05 6630.77 2370.05 6637.42 2369.96 6649.51 2360.11 6659.23 2348.02 6659.17L2346.55 6659.17C2334.38 6659.17 2324.52 6649.31 2324.52 6637.17ZM2472.15 6659.17 2365.24 6659.17C2365.23 6659.17 2365.21 6659.17 2365.21 6659.17 2365.19 6659.17 2365.21 6659.12 2365.22 6659.12 2377.21 6649.91 2379.46 6632.74 2370.26 6620.75 2369.53 6619.8 2368.75 6618.89 2367.9 6618.03L2472.87 6618.03C2484.23 6618.08 2493.44 6627.3 2493.43 6638.68 2493.43 6639.59 2493.37 6640.44 2493.25 6641.35 2491.67 6651.72 2482.65 6659.33 2472.15 6659.17Z" transform="matrix(1.01773 0 0 1 -50.5233 -5126.43)"/><path d="M2387.68 6485.9 2437.61 6485.9 2437.61 6491.74 2387.68 6491.74Z" transform="matrix(1.01773 0 0 1 -50.5233 -5126.43)"/><path d="M2358.3 6485.9 2375.92 6485.9 2375.92 6491.74 2358.3 6491.74Z" transform="matrix(1.01773 0 0 1 -50.5233 -5126.43)"/><path d="M2387.68 6573.97 2437.61 6573.97 2437.61 6579.86 2387.68 6579.86Z" transform="matrix(1.01773 0 0 1 -50.5233 -5126.43)"/><path d="M2358.3 6573.97 2375.92 6573.97 2375.92 6579.86 2358.3 6579.86Z" transform="matrix(1.01773 0 0 1 -50.5233 -5126.43)"/><path d="M2358.3 6515.25 2408.24 6515.25 2408.24 6521.15 2358.3 6521.15Z" transform="matrix(1.01773 0 0 1 -50.5233 -5126.43)"/><path d="M2419.99 6515.25 2437.61 6515.25 2437.61 6521.15 2419.99 6521.15Z" transform="matrix(1.01773 0 0 1 -50.5233 -5126.43)"/><path d="M2358.3 6544.61 2437.61 6544.61 2437.61 6550.5 2358.3 6550.5Z" transform="matrix(1.01773 0 0 1 -50.5233 -5126.43)"/><text font-family="Arial,Arial_MSFontService,sans-serif" font-weight="400" font-size="7" transform="matrix(5.07985 0 0 4.99134 2322.08 1351)">Ledger</text></g></g></g></g><g clip-path="url(#clip8)"><g clip-path="url(#clip9)"><g clip-path="url(#clip10)"><path d="M60.447 145.209C63.0492 141.105 63.5172 134.535 61.5502 129.718L60.567 127.311 88.9314 127.315 117.295 127.318 119.222 128.222C121.708 129.389 123.15 130.855 124.336 133.423 125.132 135.147 125.256 135.874 125.082 137.793 124.703 141.969 121.481 145.679 117.485 146.536 116.169 146.818 106.285 146.955 87.4316 146.955L59.3388 146.955Z" fill="#FFFFFF" transform="matrix(1 0 0 1.00247 2013 1331)"/><path d="M11.7298 25.8448C10.2661 25.2074 8.58476 23.2495 7.60263 21.039 6.67115 18.9426 6.80877 14.9858 7.89095 12.749 8.81565 10.8378 10.7368 8.91282 12.8184 7.81198 15.1025 6.60401 19.5503 6.59536 21.816 7.79449 24.0175 8.95962 25.7625 10.8034 26.8268 13.089 27.642 14.8396 27.7278 15.562 27.7312 20.7048L27.7349 26.3867 26.0671 26.3867 24.3992 26.3867 24.7691 24.3467C25.2609 21.6334 24.4128 18.6699 22.5074 16.444 20.5129 14.1137 18.4596 13.1431 15.4714 13.1177 13.3576 13.0998 12.9319 13.2189 12.2934 14.0064 11.8463 14.558 11.5562 15.5122 11.5562 16.4315 11.5562 18.3551 12.7483 19.6223 14.8786 19.963 16.7382 20.2604 17.8479 21.3596 17.8479 22.9042 17.8479 24.2919 17.1424 25.1891 15.5169 25.8685 13.9903 26.5067 13.2384 26.502 11.7298 25.8448Z" fill="#FFFFFF" transform="matrix(1 0 0 1.00247 2013 1331)"/><path d="M42.1368 146.54C39.0524 145.758 36.3131 143.457 34.914 140.473L34.184 138.915 34.1048 127.088 34.0258 115.263 37.9554 111.291C43.563 105.623 43.5673 105.507 38.3702 100.221L34.865 96.6554 34.8554 56.4992C34.8477 23.4566 34.7789 15.9668 34.4675 14.2199 34.097 12.1417 32.421 8.06192 31.6879 7.45341 31.4877 7.28732 31.324 7.04126 31.324 6.9066 31.324 6.7626 46.2164 6.6922 67.4828 6.73567L103.642 6.80957 105.226 7.44882C107.454 8.34769 110.002 10.7876 111.024 13.0001L111.813 14.7086 111.888 30.4825 111.962 46.2563 109.664 48.605C106.317 52.0248 106.312 52.2531 109.463 57.563 110.381 59.1108 111.132 60.436 111.132 60.5082 111.132 60.5802 109.59 62.5008 107.705 64.776 104.174 69.0374 103.777 69.6569 103.779 70.9053 103.781 72.24 104.779 73.3127 108.384 75.8518L111.949 78.3631 111.949 99.3099 111.949 120.257 80.4209 120.26C59.9913 120.261 48.2694 120.361 47.1222 120.543 43.3933 121.138 40.2874 123.338 38.7731 126.457 38.1004 127.843 38.0134 128.33 38.0059 130.743 37.9983 133.204 38.0718 133.613 38.7641 134.966 40.3749 138.114 43.3911 140.231 46.7665 140.584 48.5968 140.775 49.6798 140.376 50.6392 139.156 51.3697 138.228 51.3868 136.488 50.6767 135.324 50.0416 134.282 49.5543 134.001 47.9393 133.745 46.3966 133.502 45.6181 133.011 45.0609 131.934 43.3374 128.601 48.7917 125.791 51.9891 128.364 58.2816 133.429 56.6132 143.277 48.9708 146.181 47.1367 146.877 44.1007 147.037 42.1368 146.54ZM61.5585 102.416 61.5585 95.4701 55.1574 95.4701 48.7565 95.4701 48.7565 102.416 48.7565 109.362 55.1574 109.362 61.5585 109.362ZM100.237 104.731 100.237 101.19 85.9367 101.19 71.6366 101.19 71.6366 104.731 71.6366 108.272 85.9367 108.272 100.237 108.272ZM60.8593 78.6612C64.9931 74.3601 68.3429 70.7625 68.3034 70.6666 68.2641 70.5707 67.2428 69.4293 66.034 68.1303L63.8362 65.7683 60.5751 69.111C58.7816 70.9495 56.3736 73.4344 55.224 74.6328L53.134 76.8119 51.0073 74.7009 48.8806 72.5899 46.6395 74.8428C45.4069 76.0819 44.3983 77.2266 44.3983 77.3866 44.3983 77.7307 52.7876 86.4815 53.1175 86.4815 53.2418 86.4815 56.7256 82.9623 60.8593 78.6612ZM100.237 78.0376 100.237 75.0414 85.9367 75.0414 71.6366 75.0414 71.6366 78.0376 71.6366 81.0338 85.9367 81.0338 100.237 81.0338ZM60.78 52.5693C64.8785 48.2994 68.2564 44.7142 68.2865 44.6021 68.3165 44.49 67.3292 43.3145 66.0925 41.9899L63.8438 39.5813 60.1695 43.3518C58.1486 45.4255 55.7351 47.9189 54.8061 48.8927L53.117 50.6632 51.0251 48.5376 48.9333 46.4121 46.6659 48.6678C45.4187 49.9085 44.3983 51.0509 44.3983 51.2065 44.3983 51.5424 52.7872 60.3327 53.1078 60.3327 53.2291 60.3327 56.6816 56.8392 60.78 52.5693ZM100.237 51.2079 100.237 47.5308 85.9367 47.5308 71.6366 47.5308 71.6366 51.2079 71.6366 54.8851 85.9367 54.8851 100.237 54.8851Z" fill="#FFFFFF" transform="matrix(1 0 0 1.00247 2013 1331)"/><path d="M354.962 198.225 354.962 263.224C354.962 264.111 355.303 264.953 355.929 265.568L361.016 270.677 355.099 276.628C354.484 277.243 354.131 278.085 354.131 278.961L354.131 301.333C354.144 310.926 361.892 318.709 371.462 318.721L442.401 318.721C451.502 318.734 458.899 311.324 458.912 302.175 458.925 294.289 453.394 287.496 445.7 285.926L445.7 241.694C445.7 240.613 445.175 239.6 444.289 238.975L438.973 235.254 444.939 228.073C445.825 226.992 445.949 225.456 445.222 224.25L441.593 218.184 444.719 215.044C445.347 214.418 445.687 213.587 445.7 212.711L445.7 182.499C445.687 172.895 437.941 165.112 428.369 165.1L344.231 165.1C334.707 165.066 326.957 172.793 326.912 182.351 326.912 187.597 329.301 192.547 333.398 195.802 333.455 195.847 333.512 195.893 333.58 195.938 335.662 197.417 338.154 198.226 340.703 198.248ZM350.945 191.603C351.411 190.487 351.651 189.293 351.662 188.086 351.696 182.67 347.36 178.255 341.967 178.209L341.762 178.209C339.941 178.209 338.462 179.7 338.462 181.532 338.462 183.352 339.941 184.843 341.762 184.843 343.526 184.786 345.005 186.175 345.062 187.938L345.062 188.086C344.982 189.372 344.197 190.499 343.025 191.034 341.216 191.933 339.054 191.739 337.426 190.544 334.946 188.553 333.512 185.537 333.512 182.351 333.546 176.4 338.382 171.609 344.311 171.655 350.228 171.689 354.996 176.548 354.962 182.499L354.962 191.603ZM376.401 285.607C374.329 285.516 372.258 285.96 370.415 286.927 367.069 288.588 364.93 291.991 364.862 295.734 364.816 301.151 369.152 305.566 374.546 305.612L374.75 305.612C376.582 305.612 378.05 304.121 378.05 302.289 378.05 300.468 376.582 298.977 374.75 298.977 372.987 299.034 371.519 297.646 371.461 295.882 371.461 295.826 371.449 295.78 371.461 295.734 371.541 294.449 372.315 293.322 373.487 292.787 375.308 291.899 377.459 292.082 379.097 293.288 381.566 295.279 383 298.295 383 301.47 382.955 307.376 378.164 312.132 372.281 312.098L371.461 312.098C365.533 312.085 360.742 307.273 360.731 301.333L360.731 280.338 368.013 273.021C369.299 271.735 369.299 269.63 368.013 268.345L361.562 261.858 361.562 182.499C361.562 178.584 360.253 174.795 357.829 171.723L428.369 171.723C434.298 171.736 439.09 176.548 439.098 182.499L439.098 211.334 435.116 215.328C434.049 216.409 433.842 218.082 434.617 219.379L438.358 225.649 431.61 233.774C430.441 235.185 430.634 237.268 432.032 238.44 432.101 238.496 432.182 238.554 432.26 238.61L439.098 243.424 439.098 285.596ZM442.401 312.098 385.902 312.098C390.442 306.374 390.841 298.374 386.892 292.218L442.401 292.218C447.863 292.218 452.302 296.667 452.302 302.152 452.302 307.649 447.863 312.098 442.401 312.098Z" fill-rule="evenodd" transform="matrix(1 0 0 1.00247 1686.09 1165.49)"/><path d="M375.843 260.686 388.36 260.686 388.36 274.341 375.843 274.341Z" fill-rule="evenodd" transform="matrix(1 0 0 1.00247 1686.09 1165.49)"/><path d="M398.601 212.893 427.05 212.893 427.05 219.721 398.601 219.721Z" fill-rule="evenodd" transform="matrix(1 0 0 1.00247 1686.09 1165.49)"/><path d="M398.601 266.376 427.05 266.376 427.05 273.203 398.601 273.203Z" fill-rule="evenodd" transform="matrix(1 0 0 1.00247 1686.09 1165.49)"/><path d="M398.601 240.203 427.05 240.203 427.05 245.893 398.601 245.893Z" fill-rule="evenodd" transform="matrix(1 0 0 1.00247 1686.09 1165.49)"/><path d="M395.187 209.627 390.67 204.928 380.008 216.011 375.809 211.642 371.291 216.341 380.008 225.41Z" fill-rule="evenodd" transform="matrix(1 0 0 1.00247 1686.09 1165.49)"/><path d="M395.187 235.8 390.67 231.1 380.008 242.183 375.809 237.814 371.291 242.513 380.008 251.583Z" fill-rule="evenodd" transform="matrix(1 0 0 1.00247 1686.09 1165.49)"/><text font-family="Arial,Arial_MSFontService,sans-serif" font-weight="400" font-size="6" transform="matrix(4.30084 0 0 4.31146 2049.77 1363)">Policy</text></g></g></g><g clip-path="url(#clip11)"><g clip-path="url(#clip12)"><g clip-path="url(#clip13)"><path d="M0 10.8372 233 10.8372 233 57.8806-3.75824e-06 57.8806Z" fill="#262261" transform="matrix(1.00429 0 0 1 2038 1580)"/><path d="M15.0243 222.163 217.976 222.163 217.976 72.4123 15.0243 72.4123 15.0243 222.163ZM156.401 152.706 76.5994 152.706 76.5994 137.928 156.401 137.928 156.401 152.706ZM174.134 99.9979 190.883 99.9979 190.883 104.924 179.799 104.924 179.799 108.126 189.651 108.126 189.651 112.559 179.799 112.559 179.799 115.761 190.883 115.761 190.883 120.687 174.134 120.687 174.134 99.9979ZM149.997 110.343C149.997 104.431 154.677 99.5053 161.08 99.5053 164.775 99.5053 167.238 100.491 169.455 102.461L166.006 106.648C164.529 105.417 163.051 104.678 161.08 104.678 158.125 104.678 155.908 107.141 155.908 110.343L155.908 110.343C155.908 113.791 158.125 116.007 161.573 116.007 163.051 116.007 164.036 115.761 164.775 115.269L164.775 112.806 160.834 112.806 160.834 108.618 170.44 108.618 170.44 117.978C168.223 119.702 165.267 121.18 161.573 121.18 154.923 120.933 149.997 116.5 149.997 110.343L149.997 110.343ZM135.465 99.7516 140.884 99.7516 149.751 120.687 143.593 120.687 142.115 116.993 133.987 116.993 132.51 120.687 126.598 120.687 135.465 99.7516ZM106.155 99.9979 116.007 99.9979C119.209 99.9979 121.426 100.737 122.658 102.215 123.889 103.446 124.382 104.924 124.382 107.141L124.382 107.141C124.382 110.343 122.658 112.313 120.195 113.544L125.121 120.687 118.47 120.687 114.283 114.53 111.82 114.53 111.82 120.687 106.155 120.687 106.155 99.9979ZM80.5402 110.343C80.5402 104.431 85.2199 99.5053 91.6237 99.5053 98.0275 99.5053 102.707 104.185 102.707 110.096L102.707 110.096C102.707 116.007 98.0275 120.933 91.6237 120.933 85.4662 120.933 80.5402 116.254 80.5402 110.343L80.5402 110.343ZM61.0825 99.9979 79.3087 99.9979 79.3087 104.924 73.1512 104.924 73.1512 120.687 67.4863 120.687 67.4863 104.924 61.3288 104.924 61.3288 99.9979ZM50.2453 112.806C45.8119 111.82 42.3637 110.589 42.3637 106.402L42.3637 106.402C42.3637 102.461 45.3193 99.7516 50.2453 99.7516 53.6935 99.7516 56.4028 100.737 58.8658 102.461L55.9102 106.402C53.9398 104.924 51.9694 104.431 49.999 104.431 48.5212 104.431 48.0286 104.924 48.0286 105.663L48.0286 105.663C48.0286 106.648 48.7675 107.141 51.7231 107.633 56.4028 108.618 59.3584 110.096 59.3584 114.037L59.3584 114.037C59.3584 118.224 55.9102 120.687 50.9842 120.687 47.2897 120.687 43.8414 119.456 41.3784 117.239L44.5804 113.544C46.5508 115.269 49.0138 116.007 51.2305 116.007 52.7083 116.007 53.6935 115.515 53.6935 114.53L53.6935 114.53C53.6935 113.791 52.9546 113.298 50.2453 112.806Z" fill="#262261" transform="matrix(1.00429 0 0 1 2038 1580)"/><path d="M91.87 115.761C95.0719 115.761 97.0423 113.298 97.0423 110.343L97.0423 110.343C97.0423 107.387 94.8256 104.678 91.87 104.678 88.6681 104.678 86.6977 107.141 86.6977 110.096L86.6977 110.096C86.4514 113.298 88.6681 115.761 91.87 115.761Z" fill="#262261" transform="matrix(1.00429 0 0 1 2038 1580)"/><path d="M118.717 107.387 118.717 107.387C118.717 105.663 117.485 104.924 115.515 104.924L111.82 104.924 111.82 109.85 115.761 109.85C117.732 109.85 118.717 108.865 118.717 107.387Z" fill="#262261" transform="matrix(1.00429 0 0 1 2038 1580)"/><path d="M138.174 106.648 135.711 112.313 140.391 112.313Z" fill="#262261" transform="matrix(1.00429 0 0 1 2038 1580)"/></g></g></g><path d="M818.5 1819.01 1103.37 1784.06 1382.07 1783.5 1664.5 1819.01 1664.5 2078.5 818.5 2078.5 818.5 1819.01Z" stroke="#000000" stroke-width="4.58333" stroke-linecap="square" stroke-miterlimit="8" stroke-dasharray="13.75 4.58333" fill="#FFFFFF" fill-rule="evenodd"/><rect x="1109.5" y="1892.5" width="259" height="165" stroke="#2F528F" stroke-width="4.58333" stroke-miterlimit="8" fill="#FFFFFF"/><text font-family="Arial,Arial_MSFontService,sans-serif" font-style="italic" font-weight="400" font-size="41" transform="matrix(1 0 0 1 1157.95 1965)">Package </text><text font-family="Arial,Arial_MSFontService,sans-serif" font-style="italic" font-weight="400" font-size="41" transform="matrix(1 0 0 1 1146.49 2015)">Managers</text><rect x="1384.5" y="1892.5" width="259" height="165" stroke="#2F528F" stroke-width="4.58333" stroke-miterlimit="8" fill="#FFFFFF"/><text font-family="Arial,Arial_MSFontService,sans-serif" font-style="italic" font-weight="400" font-size="46" transform="matrix(1 0 0 1 1467.86 1964)">Blob </text><text font-family="Arial,Arial_MSFontService,sans-serif" font-style="italic" font-weight="400" font-size="46" transform="matrix(1 0 0 1 1433.76 2019)">Storage</text><rect x="829.5" y="1892.5" width="259" height="165" stroke="#2F528F" stroke-width="4.58333" stroke-miterlimit="8" fill="#FFFFFF"/><text font-family="Arial,Arial_MSFontService,sans-serif" font-style="italic" font-weight="400" font-size="46" transform="matrix(1 0 0 1 917.569 1964)">OCI </text><text font-family="Arial,Arial_MSFontService,sans-serif" font-style="italic" font-weight="400" font-size="46" transform="matrix(1 0 0 1 875.746 2019)">Artifacts</text><g clip-path="url(#clip14)"><g clip-path="url(#clip15)"><g clip-path="url(#clip16)"><path d="M0 10.8372 233 10.8372 233 57.8806-3.75824e-06 57.8806Z" fill="#262261" transform="matrix(1.00429 0 0 1 1121 1581)"/><path d="M15.0243 222.163 217.976 222.163 217.976 72.4123 15.0243 72.4123 15.0243 222.163ZM156.401 152.706 76.5994 152.706 76.5994 137.928 156.401 137.928 156.401 152.706ZM174.134 99.9979 190.883 99.9979 190.883 104.924 179.799 104.924 179.799 108.126 189.651 108.126 189.651 112.559 179.799 112.559 179.799 115.761 190.883 115.761 190.883 120.687 174.134 120.687 174.134 99.9979ZM149.997 110.343C149.997 104.431 154.677 99.5053 161.08 99.5053 164.775 99.5053 167.238 100.491 169.455 102.461L166.006 106.648C164.529 105.417 163.051 104.678 161.08 104.678 158.125 104.678 155.908 107.141 155.908 110.343L155.908 110.343C155.908 113.791 158.125 116.007 161.573 116.007 163.051 116.007 164.036 115.761 164.775 115.269L164.775 112.806 160.834 112.806 160.834 108.618 170.44 108.618 170.44 117.978C168.223 119.702 165.267 121.18 161.573 121.18 154.923 120.933 149.997 116.5 149.997 110.343L149.997 110.343ZM135.465 99.7516 140.884 99.7516 149.751 120.687 143.593 120.687 142.115 116.993 133.987 116.993 132.51 120.687 126.598 120.687 135.465 99.7516ZM106.155 99.9979 116.007 99.9979C119.209 99.9979 121.426 100.737 122.658 102.215 123.889 103.446 124.382 104.924 124.382 107.141L124.382 107.141C124.382 110.343 122.658 112.313 120.195 113.544L125.121 120.687 118.47 120.687 114.283 114.53 111.82 114.53 111.82 120.687 106.155 120.687 106.155 99.9979ZM80.5402 110.343C80.5402 104.431 85.2199 99.5053 91.6237 99.5053 98.0275 99.5053 102.707 104.185 102.707 110.096L102.707 110.096C102.707 116.007 98.0275 120.933 91.6237 120.933 85.4662 120.933 80.5402 116.254 80.5402 110.343L80.5402 110.343ZM61.0825 99.9979 79.3087 99.9979 79.3087 104.924 73.1512 104.924 73.1512 120.687 67.4863 120.687 67.4863 104.924 61.3288 104.924 61.3288 99.9979ZM50.2453 112.806C45.8119 111.82 42.3637 110.589 42.3637 106.402L42.3637 106.402C42.3637 102.461 45.3193 99.7516 50.2453 99.7516 53.6935 99.7516 56.4028 100.737 58.8658 102.461L55.9102 106.402C53.9398 104.924 51.9694 104.431 49.999 104.431 48.5212 104.431 48.0286 104.924 48.0286 105.663L48.0286 105.663C48.0286 106.648 48.7675 107.141 51.7231 107.633 56.4028 108.618 59.3584 110.096 59.3584 114.037L59.3584 114.037C59.3584 118.224 55.9102 120.687 50.9842 120.687 47.2897 120.687 43.8414 119.456 41.3784 117.239L44.5804 113.544C46.5508 115.269 49.0138 116.007 51.2305 116.007 52.7083 116.007 53.6935 115.515 53.6935 114.53L53.6935 114.53C53.6935 113.791 52.9546 113.298 50.2453 112.806Z" fill="#262261" transform="matrix(1.00429 0 0 1 1121 1581)"/><path d="M91.87 115.761C95.0719 115.761 97.0423 113.298 97.0423 110.343L97.0423 110.343C97.0423 107.387 94.8256 104.678 91.87 104.678 88.6681 104.678 86.6977 107.141 86.6977 110.096L86.6977 110.096C86.4514 113.298 88.6681 115.761 91.87 115.761Z" fill="#262261" transform="matrix(1.00429 0 0 1 1121 1581)"/><path d="M118.717 107.387 118.717 107.387C118.717 105.663 117.485 104.924 115.515 104.924L111.82 104.924 111.82 109.85 115.761 109.85C117.732 109.85 118.717 108.865 118.717 107.387Z" fill="#262261" transform="matrix(1.00429 0 0 1 1121 1581)"/><path d="M138.174 106.648 135.711 112.313 140.391 112.313Z" fill="#262261" transform="matrix(1.00429 0 0 1 1121 1581)"/></g></g></g><g clip-path="url(#clip17)"><g clip-path="url(#clip18)"><g clip-path="url(#clip19)"><path d="M1120.72 1297.25 1113.82 1291.18 1091.93 1318.12 1098.92 1324.1Z" fill="#262261"/><path d="M1092.49 1325.85 1088.81 1322.91 1086.78 1331.83 1095.06 1328.06Z" fill="#262261"/><path d="M1142.06 1256.41 1149.05 1262.39 1152.72 1257.89 1145.55 1252.09Z" fill="#262261"/><path d="M1128.35 1295.96 1132.68 1299.45 1143.62 1286.03C1147.3 1281.8 1149.05 1276.46 1148.22 1272.05 1147.85 1270.03 1146.93 1268.28 1145.64 1266.81L1138.65 1260.74 1117.23 1286.95 1124.21 1293.02 1141.96 1271.13C1142.33 1271.68 1142.61 1272.32 1142.7 1273.06 1143.25 1275.82 1141.87 1279.5 1139.39 1282.44L1128.35 1295.96Z" fill="#262261"/><path d="M1070.69 1323.83C1070.87 1323.37 1071.06 1322.91 1071.33 1322.45 1071.89 1321.53 1072.53 1320.79 1073.36 1320.05 1074.92 1318.58 1076.94 1317.39 1079.06 1316.28 1081.17 1315.18 1083.38 1314.17 1085.68 1313.07 1086.78 1312.51 1087.98 1311.87 1089.18 1311.04 1089.82 1310.67 1090.37 1310.21 1091.01 1309.57 1091.66 1308.93 1092.3 1308.19 1092.67 1307 1093.13 1305.89 1093.04 1304.42 1092.67 1303.41 1092.3 1302.31 1091.57 1301.48 1090.92 1300.83 1089.54 1299.64 1088.26 1298.99 1087.06 1298.35 1084.67 1297.16 1082.37 1296.42 1080.25 1295.41 1078.23 1294.4 1076.48 1293.29 1075.47 1291.82 1074.46 1290.44 1074.09 1288.6 1074.37 1286.58 1074.64 1284.46 1075.29 1282.44 1076.39 1280.69 1078.69 1277.2 1083.01 1274.9 1087.61 1273.61 1089.91 1272.97 1092.3 1272.51 1094.79 1272.23 1095.98 1272.05 1097.27 1271.96 1098.46 1271.86 1099.66 1271.77 1100.95 1271.68 1102.23 1271.68 1097.27 1270.39 1092.12 1270.12 1086.97 1270.76 1084.39 1271.13 1081.82 1271.77 1079.34 1272.88 1076.85 1273.98 1074.55 1275.64 1072.71 1277.93 1071.79 1279.04 1071.06 1280.33 1070.51 1281.61 1069.95 1282.99 1069.59 1284.28 1069.31 1285.75 1069.03 1287.22 1069.03 1288.69 1069.22 1290.26 1069.49 1291.82 1070.05 1293.38 1070.97 1294.76 1071.89 1296.14 1072.99 1297.16 1074.18 1298.07 1075.38 1298.99 1076.58 1299.64 1077.77 1300.28 1080.16 1301.48 1082.55 1302.4 1084.67 1303.32 1085.68 1303.78 1086.6 1304.33 1087.15 1304.79 1087.43 1304.97 1087.52 1305.16 1087.52 1305.25 1087.52 1305.34 1087.52 1305.25 1087.52 1305.25 1087.52 1305.25 1087.43 1305.52 1087.15 1305.8 1086.88 1306.08 1086.51 1306.35 1086.14 1306.72 1085.31 1307.36 1084.3 1307.92 1083.29 1308.56 1081.17 1309.75 1078.97 1310.95 1076.76 1312.24 1074.55 1313.62 1072.35 1315.18 1070.51 1317.3 1069.59 1318.31 1068.76 1319.59 1068.21 1320.88 1067.93 1321.53 1067.66 1322.26 1067.56 1323 1067.38 1323.73 1067.38 1324.38 1067.29 1325.02 1067.2 1326.4 1067.2 1327.78 1067.66 1329.25 1068.02 1330.63 1068.85 1332.01 1070.05 1332.93 1071.24 1333.85 1072.62 1334.31 1073.91 1334.49 1075.29 1334.68 1076.58 1334.68 1077.86 1334.49 1080.44 1334.22 1082.83 1333.48 1085.13 1332.56 1082.65 1333.02 1080.16 1333.3 1077.77 1333.21 1076.58 1333.11 1075.38 1333.02 1074.28 1332.65 1073.17 1332.38 1072.16 1331.83 1071.52 1331.09 1070.14 1329.71 1069.95 1327.5 1070.41 1325.3 1070.41 1324.93 1070.6 1324.29 1070.69 1323.83Z" fill="#262261"/></g></g></g><g clip-path="url(#clip20)"><g clip-path="url(#clip21)"><g clip-path="url(#clip22)"><path d="M10.5327 45.4099 10.5327 41.1372 10.5327 41.1372 14.8054 41.1372 14.8054 36.8645 19.0781 36.8645 19.0781 32.5918 25.2388 34.5791 29.3624 30.4554C33.7345 31.1013 38.355 29.7102 41.7334 26.3318 47.3972 20.668 47.3972 11.427 41.7334 5.76318 36.0696 0.0993652 26.8286 0.0993652 21.1648 5.76318 17.538 9.39001 16.2462 14.4576 17.2399 19.1775L0 36.467 0 39.0008 0.943969 44.4659C3.32873 45.1118 8.09826 45.5589 10.5327 45.4099ZM34.0823 8.8435C35.374 7.55175 37.4607 7.55175 38.7524 8.8435 40.0442 10.1352 40.0442 12.2219 38.7524 13.5137 37.4607 14.8054 35.374 14.8054 34.0823 13.5137 32.7905 12.2219 32.7905 10.1352 34.0823 8.8435Z" fill="#262261" transform="matrix(1 0 0 1.00001 2017 1482)"/></g></g></g><g clip-path="url(#clip23)"><g clip-path="url(#clip24)"><g clip-path="url(#clip25)"><g clip-path="url(#clip26)"><path d="M0 31.6759 120.523 0 241.047 31.6759Z" fill="#FFFFFF" fill-rule="evenodd" transform="matrix(1 0 0 -1.00208 1796.77 1743.84)"/><path d="M627.532 581.95 869.668 581.95" stroke="#000000" stroke-width="1.77051" stroke-miterlimit="8" fill="none" fill-rule="evenodd" transform="matrix(1 0 0 1.00208 1169.82 1127.97)"/><path d="M626.567 582.916 746.151 614.7" stroke="#000000" stroke-width="0.885255" stroke-miterlimit="8" fill="none" fill-rule="evenodd" transform="matrix(1 0 0 1.00208 1169.82 1127.97)"/><path d="M0 0 121.272 31.7834" stroke="#000000" stroke-width="0.885255" stroke-miterlimit="8" fill="none" fill-rule="evenodd" transform="matrix(-1 0 0 1.00208 2037.02 1712.1)"/><path d="M627.532 582.336 743.996 614.978 869.738 582.336 869.738 698.61 627.532 698.61 627.532 582.336Z" stroke="#000000" stroke-width="1.77051" stroke-miterlimit="8" fill="#FFFFFF" fill-rule="evenodd" transform="matrix(1 0 0 1.00208 1169.82 1127.97)"/><path d="M726.616 613.239C726.616 603.532 734.57 595.663 744.386 595.663 754.201 595.663 762.155 603.532 762.155 613.239 762.155 622.947 754.201 630.816 744.386 630.816 734.57 630.816 726.616 622.947 726.616 613.239Z" fill="#C00000" fill-rule="evenodd" transform="matrix(1 0 0 1.00208 1169.82 1127.97)"/><g clip-path="url(#clip27)"><g clip-path="url(#clip28)"><g clip-path="url(#clip29)"><path d="M747.074 613.077 745.421 611.625 740.175 618.084 741.852 619.517Z" fill="#262261" transform="matrix(1 0 0 1.00208 1169.82 1127.97)"/><path d="M740.307 619.938 739.426 619.231 738.939 621.371 740.925 620.467Z" fill="#262261" transform="matrix(1 0 0 1.00208 1169.82 1127.97)"/><path d="M752.193 603.289 753.869 604.722 754.75 603.64 753.031 602.253Z" fill="#262261" transform="matrix(1 0 0 1.00208 1169.82 1127.97)"/><path d="M748.905 612.772 749.941 613.606 752.568 610.389C753.448 609.373 753.869 608.094 753.668 607.036 753.58 606.553 753.359 606.132 753.05 605.78L751.374 604.324 746.236 610.609 747.913 612.065 752.17 606.815C752.258 606.951 752.324 607.105 752.347 607.279 752.479 607.94 752.146 608.824 751.552 609.527L748.905 612.772Z" fill="#262261" transform="matrix(1 0 0 1.00208 1169.82 1127.97)"/><path d="M735.08 619.451C735.126 619.343 735.169 619.231 735.235 619.119 735.366 618.899 735.52 618.725 735.721 618.547 736.096 618.196 736.579 617.91 737.089 617.643 737.595 617.38 738.124 617.137 738.676 616.871 738.939 616.739 739.225 616.585 739.511 616.388 739.665 616.299 739.8 616.187 739.955 616.032 740.11 615.878 740.264 615.704 740.349 615.418 740.461 615.152 740.438 614.8 740.349 614.557 740.264 614.29 740.086 614.093 739.932 613.939 739.6 613.653 739.291 613.498 739.005 613.344 738.433 613.058 737.881 612.88 737.375 612.637 736.888 612.393 736.471 612.131 736.227 611.779 735.984 611.447 735.895 611.007 735.961 610.52 736.03 610.014 736.185 609.527 736.447 609.11 737 608.272 738.035 607.719 739.136 607.41 739.688 607.256 740.264 607.148 740.859 607.082 741.145 607.036 741.454 607.016 741.74 606.993 742.026 606.97 742.335 606.951 742.644 606.951 741.454 606.642 740.218 606.576 738.982 606.727 738.367 606.815 737.749 606.97 737.154 607.236 736.56 607.499 736.007 607.897 735.567 608.449 735.347 608.712 735.169 609.021 735.038 609.33 734.902 609.662 734.817 609.971 734.748 610.323 734.682 610.674 734.682 611.03 734.728 611.405 734.794 611.779 734.925 612.154 735.146 612.482 735.366 612.815 735.632 613.058 735.918 613.278 736.204 613.498 736.49 613.653 736.78 613.807 737.351 614.093 737.923 614.313 738.433 614.534 738.676 614.646 738.897 614.777 739.028 614.889 739.094 614.931 739.117 614.974 739.117 614.997 739.117 615.02 739.117 614.997 739.117 614.997 739.117 614.997 739.094 615.063 739.028 615.128 738.962 615.194 738.873 615.264 738.785 615.349 738.588 615.503 738.344 615.638 738.101 615.793 737.595 616.079 737.066 616.365 736.536 616.674 736.007 617.006 735.478 617.38 735.038 617.887 734.817 618.13 734.616 618.439 734.485 618.744 734.419 618.899 734.354 619.076 734.331 619.254 734.288 619.428 734.288 619.582 734.265 619.737 734.242 620.069 734.242 620.401 734.354 620.753 734.443 621.085 734.64 621.413 734.925 621.634 735.211 621.854 735.544 621.966 735.853 622.008 736.185 622.055 736.49 622.055 736.799 622.008 737.417 621.943 737.993 621.765 738.541 621.545 737.946 621.657 737.351 621.722 736.78 621.699 736.49 621.68 736.204 621.657 735.941 621.568 735.675 621.502 735.432 621.371 735.277 621.193 734.949 620.861 734.902 620.332 735.014 619.803 735.014 619.718 735.057 619.563 735.08 619.451Z" fill="#262261" transform="matrix(1 0 0 1.00208 1169.82 1127.97)"/></g></g></g><path d="M667.514 631.975 827.825 631.975 827.825 670.604 667.514 670.604Z" fill="#FFFFFF" transform="matrix(1 0 0 1.00208 1169.82 1127.97)"/><text font-family="Arial,Arial_MSFontService,sans-serif" font-weight="400" font-size="83" transform="matrix(0.386293 0 0 0.387097 1844.82 1792)">Statement</text><g clip-path="url(#clip30)"><g clip-path="url(#clip31)"><g clip-path="url(#clip32)"><g clip-path="url(#clip33)"><path d="M309.48 290.902 303.803 290.902 303.803 290.322C303.803 289.396 303.053 288.645 302.126 288.645 301.2 288.645 300.449 289.396 300.449 290.322L300.449 290.902 297.03 290.902 297.03 290.322C297.03 289.396 296.28 288.645 295.354 288.645 294.428 288.645 293.677 289.396 293.677 290.322L293.677 290.902 290.258 290.902 290.258 290.322C290.258 289.396 289.507 288.645 288.581 288.645 287.655 288.645 286.904 289.396 286.904 290.322L286.904 290.902 283.486 290.902 283.486 290.322C283.503 289.396 282.766 288.631 281.84 288.613 280.914 288.596 280.149 289.333 280.131 290.26 280.131 290.28 280.131 290.301 280.131 290.322L280.131 290.902 276.713 290.902 276.713 290.322C276.73 289.396 275.993 288.631 275.067 288.614 274.141 288.597 273.377 289.333 273.36 290.26 273.359 290.28 273.359 290.301 273.36 290.322L273.36 290.902 267.682 290.902 267.682 285.225 268.263 285.225C269.19 285.225 269.941 284.474 269.941 283.548 269.941 282.621 269.19 281.87 268.263 281.87L267.682 281.87 267.682 278.451 268.263 278.451C269.19 278.451 269.941 277.7 269.941 276.774 269.941 275.847 269.19 275.096 268.263 275.096L267.682 275.096 267.682 271.677 268.263 271.677C269.19 271.677 269.941 270.926 269.941 269.999 269.941 269.072 269.19 268.322 268.263 268.322L267.682 268.322 267.682 264.902 268.263 264.902C269.19 264.902 269.941 264.152 269.941 263.225 269.941 262.298 269.19 261.547 268.263 261.547L267.682 261.547 267.682 258.128 268.263 258.128C269.19 258.128 269.941 257.378 269.941 256.451 269.941 255.524 269.19 254.774 268.263 254.774L267.682 254.774 267.682 249.096 273.36 249.096 273.36 249.677C273.342 250.603 274.079 251.367 275.005 251.384 275.931 251.402 276.695 250.665 276.713 249.74 276.713 249.719 276.713 249.698 276.713 249.677L276.713 249.096 280.131 249.096 280.131 249.677C280.114 250.603 280.851 251.368 281.778 251.385 282.704 251.402 283.469 250.666 283.486 249.74 283.486 249.719 283.486 249.698 283.486 249.677L283.486 249.096 286.904 249.096 286.904 249.677C286.904 250.603 287.655 251.354 288.581 251.354 289.507 251.354 290.258 250.603 290.258 249.677L290.258 249.096 293.677 249.096 293.677 249.677C293.677 250.603 294.428 251.354 295.354 251.354 296.28 251.354 297.03 250.603 297.03 249.677L297.03 249.096 300.449 249.096 300.449 249.677C300.449 250.603 301.2 251.354 302.126 251.354 303.053 251.354 303.803 250.603 303.803 249.677L303.803 249.096 309.48 249.096 309.48 254.774 308.899 254.774C307.972 254.774 307.222 255.524 307.222 256.451 307.222 257.378 307.972 258.128 308.899 258.128L309.48 258.128 309.48 261.547 308.899 261.547C307.972 261.547 307.222 262.298 307.222 263.225 307.222 264.152 307.972 264.902 308.899 264.902L309.48 264.902 309.48 268.322 308.899 268.322C307.972 268.322 307.222 269.072 307.222 269.999 307.222 270.926 307.972 271.677 308.899 271.677L309.48 271.677 309.48 275.096 308.899 275.096C307.972 275.096 307.222 275.847 307.222 276.774 307.222 277.7 307.972 278.451 308.899 278.451L309.48 278.451 309.48 281.87 308.899 281.87C307.972 281.87 307.222 282.621 307.222 283.548 307.222 284.474 307.972 285.225 308.899 285.225L309.48 285.225ZM304.905 289.741 308.318 289.741 308.318 286.327C306.784 286.005 305.8 284.5 306.122 282.965 306.353 281.862 307.215 281 308.318 280.769L308.318 279.553C306.784 279.231 305.8 277.726 306.122 276.191 306.353 275.088 307.215 274.226 308.318 273.995L308.318 272.778C306.784 272.456 305.8 270.951 306.122 269.417 306.353 268.314 307.215 267.451 308.318 267.22L308.318 266.004C306.784 265.682 305.8 264.177 306.122 262.642 306.353 261.539 307.215 260.677 308.318 260.446L308.318 259.23C306.784 258.908 305.8 257.403 306.122 255.869 306.353 254.765 307.215 253.903 308.318 253.672L308.318 250.258 304.905 250.258C304.585 251.792 303.081 252.776 301.547 252.456 300.442 252.226 299.578 251.362 299.348 250.258L298.132 250.258C297.812 251.792 296.308 252.776 294.774 252.456 293.669 252.226 292.806 251.362 292.575 250.258L291.36 250.258C291.039 251.792 289.535 252.776 288 252.455 286.896 252.224 286.034 251.361 285.803 250.258L284.587 250.258C284.266 251.792 282.762 252.776 281.228 252.455 280.123 252.224 279.261 251.361 279.03 250.258L277.814 250.258C277.493 251.791 275.989 252.775 274.455 252.454 273.351 252.223 272.489 251.361 272.258 250.258L268.844 250.258 268.844 253.672C270.379 253.994 271.362 255.499 271.04 257.033 270.809 258.137 269.947 258.999 268.844 259.23L268.844 260.446C270.379 260.768 271.362 262.273 271.04 263.807 270.809 264.91 269.947 265.773 268.844 266.004L268.844 267.22C270.379 267.542 271.362 269.047 271.04 270.582 270.809 271.685 269.947 272.547 268.844 272.778L268.844 273.995C270.379 274.316 271.362 275.821 271.04 277.356 270.809 278.459 269.947 279.322 268.844 279.553L268.844 280.769C270.379 281.09 271.362 282.595 271.04 284.13 270.809 285.233 269.947 286.095 268.844 286.327L268.844 289.741 272.258 289.741C272.579 288.207 274.083 287.223 275.617 287.544 276.721 287.775 277.583 288.637 277.814 289.741L279.03 289.741C279.351 288.207 280.855 287.223 282.39 287.544 283.494 287.775 284.356 288.637 284.587 289.741L285.803 289.741C286.124 288.207 287.628 287.223 289.162 287.544 290.267 287.775 291.129 288.637 291.36 289.741L292.575 289.741C292.895 288.207 294.399 287.222 295.933 287.542 297.038 287.773 297.901 288.636 298.132 289.741L299.348 289.741C299.668 288.207 301.171 287.222 302.706 287.542 303.811 287.773 304.674 288.636 304.905 289.741ZM503.926 295.685 498.248 295.685 498.248 295.105C498.248 294.178 497.497 293.428 496.572 293.428 495.646 293.428 494.895 294.178 494.895 295.105L494.895 295.685 491.477 295.685 491.477 295.105C491.477 294.178 490.726 293.428 489.797 293.428 488.872 293.428 488.121 294.178 488.121 295.105L488.121 295.685 484.703 295.685 484.703 295.105C484.703 294.178 483.952 293.428 483.027 293.428 482.102 293.428 481.351 294.178 481.351 295.105L481.351 295.685 477.933 295.685 477.933 295.105C477.948 294.178 477.213 293.413 476.284 293.396 475.359 293.379 474.596 294.116 474.577 295.042 474.577 295.063 474.577 295.084 474.577 295.105L474.577 295.685 471.159 295.685 471.159 295.105C471.174 294.178 470.439 293.414 469.513 293.397 468.588 293.379 467.822 294.116 467.806 295.042 467.802 295.063 467.802 295.084 467.806 295.105L467.806 295.685 462.128 295.685 462.128 290.008 462.708 290.008C463.633 290.008 464.384 289.257 464.384 288.33 464.384 287.403 463.633 286.653 462.708 286.653L462.128 286.653 462.128 283.234 462.708 283.234C463.633 283.234 464.384 282.483 464.384 281.556 464.384 280.63 463.633 279.879 462.708 279.879L462.128 279.879 462.128 276.459 462.708 276.459C463.633 276.459 464.384 275.709 464.384 274.782 464.384 273.855 463.633 273.104 462.708 273.104L462.128 273.104 462.128 269.685 462.708 269.685C463.633 269.685 464.384 268.934 464.384 268.008 464.384 267.081 463.633 266.33 462.708 266.33L462.128 266.33 462.128 262.911 462.708 262.911C463.633 262.911 464.384 262.16 464.384 261.234 464.384 260.307 463.633 259.556 462.708 259.556L462.128 259.556 462.128 253.879 467.806 253.879 467.806 254.46C467.787 255.385 468.522 256.15 469.451 256.167 470.377 256.184 471.139 255.448 471.159 254.522 471.159 254.501 471.159 254.48 471.159 254.46L471.159 253.879 474.577 253.879 474.577 254.46C474.561 255.385 475.297 256.151 476.222 256.168 477.151 256.185 477.913 255.449 477.933 254.522 477.933 254.501 477.933 254.48 477.933 254.46L477.933 253.879 481.351 253.879 481.351 254.46C481.351 255.385 482.102 256.136 483.027 256.136 483.952 256.136 484.703 255.385 484.703 254.46L484.703 253.879 488.121 253.879 488.121 254.46C488.121 255.385 488.872 256.136 489.797 256.136 490.726 256.136 491.477 255.385 491.477 254.46L491.477 253.879 494.895 253.879 494.895 254.46C494.895 255.385 495.646 256.136 496.572 256.136 497.497 256.136 498.248 255.385 498.248 254.46L498.248 253.879 503.926 253.879 503.926 259.556 503.346 259.556C502.417 259.556 501.666 260.307 501.666 261.234 501.666 262.16 502.417 262.911 503.346 262.911L503.926 262.911 503.926 266.33 503.346 266.33C502.417 266.33 501.666 267.081 501.666 268.008 501.666 268.934 502.417 269.685 503.346 269.685L503.926 269.685 503.926 273.104 503.346 273.104C502.417 273.104 501.666 273.855 501.666 274.782 501.666 275.709 502.417 276.459 503.346 276.459L503.926 276.459 503.926 279.879 503.346 279.879C502.417 279.879 501.666 280.63 501.666 281.556 501.666 282.483 502.417 283.234 503.346 283.234L503.926 283.234 503.926 286.653 503.346 286.653C502.417 286.653 501.666 287.403 501.666 288.33 501.666 289.257 502.417 290.008 503.346 290.008L503.926 290.008Z" transform="matrix(1.27513 0 0 1 1640.49 1466.87)"/><path d="M8.20951 45.9101 8.21125 44.2866 8.82398 43.9912C11.0105 42.9375 10.9409 39.7645 8.70964 38.7712 8.22894 38.5571 8.20777 38.5256 8.20777 38.0272 8.20777 37.5284 8.22855 37.4977 8.71099 37.2842 10.9442 36.2964 11.0129 33.1179 8.82398 32.0633 8.2193 31.772 8.21117 31.761 8.20951 31.2308 8.20788 30.7216 8.22971 30.6857 8.62889 30.5413 9.1942 30.3369 9.81898 29.7709 10.1302 29.1811 10.4871 28.5053 10.4871 27.2365 10.1302 26.5607 9.81898 25.9709 9.1942 25.4049 8.62889 25.2005 8.22743 25.0553 8.20777 25.0223 8.20777 24.493 8.20777 23.976 8.23343 23.9288 8.58104 23.8076 9.96379 23.3256 10.7781 21.619 10.2978 20.2095 10.0277 19.4167 9.56586 18.8828 8.84547 18.5303 8.21996 18.2242 8.20777 18.2084 8.20777 17.7062 8.20777 17.2176 8.23068 17.184 8.70964 16.9708 10.9409 15.9774 11.0105 12.8041 8.82398 11.7507L8.21125 11.4554 8.20951 9.83156 8.20777 8.20777 9.85188 8.20777 11.4961 8.20777 11.6386 8.63938C11.9383 9.54739 13.2455 10.4516 14.2585 10.4516 15.3579 10.4516 16.6072 9.64235 16.9918 8.68103 17.1732 8.22774 17.2035 8.20777 17.708 8.20777 18.214 8.20777 18.2439 8.22774 18.4593 8.70964 19.0636 10.0615 20.6172 10.7421 22.0285 10.2733 22.7702 10.027 23.5806 9.27549 23.7905 8.63938 23.9277 8.22367 23.9535 8.20777 24.4906 8.20777 25.0226 8.20777 25.0552 8.22708 25.2005 8.62889 25.4049 9.1942 25.9709 9.81898 26.5607 10.1302 27.2365 10.4871 28.5053 10.4871 29.1811 10.1302 29.7709 9.81898 30.3369 9.1942 30.5413 8.62889 30.6857 8.22964 30.7217 8.20777 31.234 8.20777 31.769 8.20777 31.7772 8.21384 32.0691 8.82379 33.1172 11.0138 36.296 10.945 37.2842 8.71099 37.498 8.22774 37.5276 8.20777 38.0312 8.20777 38.5255 8.20777 38.5661 8.23308 38.7402 8.6506 39.1227 9.56748 40.1055 10.2902 41.1352 10.4118 42.3093 10.5504 43.4702 9.90484 43.9912 8.82398L44.2866 8.21125 45.9101 8.20951 47.5339 8.20777 47.5339 9.84952 47.5339 11.4914 47.1608 11.6215C45.8183 12.0894 45.012 13.7004 45.4091 15.1199 45.6 15.8015 46.4264 16.7379 47.0609 16.9918 47.5142 17.1732 47.5339 17.2034 47.5339 17.708 47.5339 18.2146 47.5146 18.2435 47.0307 18.4575 44.7975 19.4453 44.729 22.6238 46.9177 23.6784 47.5223 23.9698 47.5304 23.9808 47.5324 24.5109 47.5339 25.0202 47.5122 25.0561 47.1128 25.2005 46.5476 25.4048 45.9228 25.9709 45.6116 26.5606 45.2547 27.2365 45.2547 28.5052 45.6116 29.1811 45.9228 29.7709 46.5476 30.3369 47.1128 30.5413 47.5142 30.6865 47.5339 30.7195 47.5339 31.2488 47.5339 31.7658 47.5084 31.813 47.1608 31.9342 45.7781 32.4162 44.9636 34.1228 45.444 35.5323 45.7142 36.3251 46.176 36.859 46.8964 37.2115 47.5239 37.5184 47.5339 37.5319 47.5339 38.042 47.5339 38.5369 47.5126 38.5692 47.0609 38.7499 46.3738 39.0248 45.5837 39.9534 45.4057 40.6955 45.0565 42.1506 45.8276 43.6556 47.1608 44.1201L47.5339 44.2506 47.5339 45.8922 47.5339 47.5339 45.9101 47.5324 44.2866 47.5304 43.9912 46.9177C42.9375 44.7313 39.7645 44.8006 38.7712 47.0322 38.5571 47.513 38.5256 47.5339 38.0272 47.5339 37.5284 47.5339 37.4977 47.513 37.2842 47.0307 36.2985 44.8022 33.1158 44.7333 32.0633 46.9177 31.772 47.5223 31.761 47.5304 31.2308 47.5324 30.7216 47.5339 30.6857 47.5122 30.5413 47.1128 30.3369 46.5476 29.7709 45.9228 29.1811 45.6116 28.5053 45.2547 27.2365 45.2547 26.5607 45.6116 25.9709 45.9228 25.4049 46.5476 25.2005 47.1128 25.0561 47.5122 25.0202 47.5339 24.511 47.5324 23.9808 47.5304 23.9698 47.5223 23.6785 46.9177 22.625 44.7313 19.4517 44.801 18.4584 47.0322 18.244 47.5138 18.2137 47.5339 17.7106 47.5339 17.2163 47.5339 17.1757 47.5088 17.0016 47.0911 16.6191 46.1744 15.6362 45.4517 14.6064 45.3298 13.4324 45.1916 12.2714 45.8369 11.7507 46.9177L11.4554 47.5304 9.83156 47.5324 8.20777 47.5339ZM43.6366 27.8709 43.6366 12.105 27.8709 12.105 12.105 12.105 12.105 27.8709 12.105 43.6366 27.8709 43.6366 43.6366 43.6366Z" fill="#FFFFFF" transform="matrix(1.27513 0 0 1 1972.92 1709)"/><path d="M8.24888 46.7369C8.29026 46.2983 8.32451 45.5597 8.32498 45.0952 8.32579 44.2695 8.33357 44.2479 8.66849 44.131 9.1702 43.956 9.98388 43.176 10.2312 42.6329 10.8744 41.2208 10.1742 39.3964 8.72357 38.7046 8.11045 38.4122 8.1077 37.6436 8.71877 37.3522 9.80899 36.8323 10.4503 35.8124 10.4479 34.6024 10.447 34.1714 10.3622 33.7088 10.2313 33.4215 10.0001 32.914 9.27321 32.1929 8.68719 31.8898 8.37944 31.7307 8.32583 31.6358 8.32583 31.2502 8.32583 30.8246 8.36651 30.7734 9.00147 30.397 9.47272 30.1177 9.78534 29.8208 10.0349 29.4154 10.3563 28.8931 10.3925 28.7366 10.3925 27.8709 10.3925 27.0052 10.3563 26.8487 10.0349 26.3264 9.78534 25.921 9.47272 25.624 9.00147 25.3447 8.35184 24.9598 8.32583 24.9255 8.32583 24.4532 8.32583 24.003 8.35889 23.9502 8.72287 23.8185 9.19645 23.6473 9.90228 22.9883 10.1752 22.4624 10.4583 21.9171 10.5194 20.5416 10.285 19.9923 10.0281 19.3905 9.44287 18.7508 8.89219 18.4699 8.13638 18.0843 8.05091 17.358 8.72357 17.0372 10.1742 16.3455 10.8744 14.521 10.2313 13.1088 9.98392 12.5657 9.17028 11.7857 8.66853 11.6108 8.33357 11.494 8.32583 11.4723 8.32502 10.6467 8.32455 10.1822 8.29033 9.44334 8.24891 9.00491L8.17362 8.20777 9.78344 8.20777 11.3932 8.20777 11.5779 8.6506C11.8243 9.24135 12.395 9.81913 13.0754 10.1669 14.4277 10.8581 16.2152 10.2609 16.9522 8.87164 17.3533 8.11556 18.0658 8.03977 18.3896 8.71869 19.049 10.1015 20.5603 10.7584 22.053 10.3112 22.647 10.1332 23.6235 9.26229 23.8113 8.74304 23.9108 8.46774 24.0464 8.32819 24.2525 8.28882 24.7273 8.19801 24.9481 8.34623 25.3593 9.03201 25.62 9.46664 25.9338 9.7918 26.3264 10.034 26.8492 10.3565 27.0044 10.3925 27.8709 10.3925 28.7374 10.3925 28.8926 10.3565 29.4155 10.034 29.808 9.7918 30.1219 9.46664 30.3825 9.03201 30.5947 8.67817 30.8742 8.3494 31.0037 8.30152 31.3775 8.16329 31.7983 8.39721 32.0482 8.88205 32.569 9.89253 33.4898 10.4523 34.6282 10.4504 35.8107 10.4484 36.8383 9.79645 37.3499 8.72357 37.6423 8.11045 38.4109 8.1077 38.7024 8.71877 39.3937 10.1684 41.2242 10.8729 42.6329 10.2313 43.1864 9.97916 43.9126 9.21445 44.1596 8.6237L44.3334 8.20777 45.9337 8.20777 47.5339 8.20777 47.5339 9.79657 47.5339 11.3853 47.0307 11.6079C46.4562 11.8622 45.8446 12.4311 45.5628 12.9737 45.2671 13.544 45.2144 14.9213 45.4695 15.4197 45.8276 16.1198 46.3235 16.6623 46.8701 16.9522 47.1828 17.1181 47.4143 17.3304 47.4387 17.4734 47.5211 17.9608 47.4035 18.2226 47.0319 18.3764 45.6232 18.9599 44.8699 20.9133 45.5106 22.3203 45.7417 22.8279 46.4686 23.5489 47.0547 23.852 47.3624 24.0111 47.4159 24.106 47.4159 24.4916 47.4159 24.9172 47.3752 24.9685 46.7404 25.3448 46.2693 25.624 45.9565 25.921 45.7068 26.3264 45.3855 26.8487 45.3491 27.0052 45.3491 27.8709 45.3491 28.7366 45.3855 28.8931 45.7068 29.4155 45.9565 29.8208 46.2693 30.1178 46.7404 30.397 47.3756 30.7735 47.4159 30.8245 47.4159 31.2508 47.4159 31.6587 47.3698 31.7278 46.9571 31.9383 45.8837 32.4859 45.2969 33.4361 45.2926 34.6332 45.2888 35.8302 45.8895 36.7815 47.0423 37.4017 47.3624 37.5742 47.4159 37.6681 47.4159 38.0589 47.4159 38.4579 47.3675 38.538 47.0288 38.6996 45.9704 39.2044 45.2864 40.2642 45.2953 41.3868 45.3054 42.6317 45.8566 43.5522 46.8964 44.0613L47.5339 44.3733 47.5339 45.9538 47.5339 47.5339 45.9337 47.5339 44.3334 47.5339 44.1596 47.1182C43.9126 46.5275 43.1864 45.7626 42.6329 45.5106 41.2208 44.8672 39.3964 45.5675 38.7046 47.0183 38.4132 47.6292 37.6162 47.6373 37.3654 47.0319 36.7819 45.6232 34.8285 44.8699 33.4215 45.5106 32.914 45.7417 32.1929 46.4686 31.8899 47.0547 31.7307 47.3624 31.6359 47.4159 31.2502 47.4159 30.8246 47.4159 30.7734 47.3752 30.397 46.7404 30.1177 46.2689 29.8208 45.9565 29.4154 45.7068 28.8931 45.3855 28.7366 45.3491 27.8709 45.3491 27.0052 45.3491 26.8487 45.3855 26.3264 45.7068 25.921 45.9565 25.624 46.2689 25.3447 46.7404 24.9684 47.3752 24.9171 47.4159 24.4916 47.4159 24.106 47.4159 24.0111 47.3624 23.852 47.0547 23.5489 46.4686 22.8278 45.7417 22.3203 45.5106 20.9082 44.8672 19.0837 45.5675 18.3919 47.0183 18.0995 47.6315 17.3309 47.6342 17.0395 47.023 16.3482 45.5733 14.5176 44.8688 13.1088 45.5106 12.5552 45.7626 11.8291 46.5275 11.5822 47.1182L11.4084 47.5339 9.79099 47.5339 8.17362 47.5339ZM43.6366 27.8709 43.6366 12.105 27.8709 12.105 12.105 12.105 12.105 27.8709 12.105 43.6366 27.8709 43.6366 43.6366 43.6366Z" fill="#FFFFFF" transform="matrix(1.27513 0 0 1 1972.92 1709)"/><path d="M8.24911 46.4531C8.2913 45.8586 8.32583 45.1227 8.32583 44.8177 8.32583 44.2831 8.34321 44.2552 8.80777 44.0458 9.40451 43.7768 10.173 42.9224 10.3315 42.3522 10.7457 40.8608 10.0786 39.3507 8.71869 38.7023 8.1077 38.4109 8.11045 37.6423 8.72353 37.3499 10.0946 36.6961 10.7473 35.1998 10.325 33.6788 10.1705 33.1228 9.54515 32.4137 8.84957 32.0061 8.37062 31.7253 8.32579 31.6593 8.32579 31.2341 8.32579 30.8128 8.36895 30.7471 8.78454 30.5351 9.32988 30.2568 9.90875 29.7007 10.1876 29.187 10.467 28.6723 10.467 27.0695 10.1876 26.5548 9.90875 26.0411 9.32988 25.485 8.78454 25.2067 8.35726 24.9888 8.32579 24.9373 8.32579 24.4565 8.32579 23.9998 8.36102 23.9314 8.63125 23.8636 9.13544 23.7371 10.0584 22.7824 10.2662 22.1727 10.7681 20.6997 10.2994 19.3832 8.97046 18.533 8.62591 18.3126 8.32455 18.0383 8.30082 17.9234 8.21454 17.5061 8.35417 17.2133 8.72353 17.0372 10.0783 16.3911 10.745 14.8786 10.3314 13.3895 10.173 12.8192 9.40451 11.965 8.80773 11.6959 8.34321 11.4864 8.32579 11.4586 8.32579 10.9242 8.32579 10.6193 8.2913 9.88331 8.24911 9.28873L8.17235 8.20777 9.78275 8.20777 11.3931 8.20777 11.5779 8.6506C12.1338 9.98334 13.845 10.7723 15.1873 10.3148 15.8919 10.0746 16.59 9.51162 16.9226 8.9153 17.1087 8.58166 17.3408 8.32568 17.4783 8.30233 17.9494 8.22251 18.2096 8.34135 18.3896 8.71869 19.1037 10.2163 20.8466 10.8615 22.3203 10.1738 22.9633 9.8736 23.7482 9.091 23.8624 8.63597 23.9085 8.45237 24.0409 8.32924 24.2314 8.29281 24.7196 8.19952 24.9756 8.33148 25.2145 8.79975 25.4856 9.33127 26.0458 9.9113 26.5548 10.1877 27.0695 10.4671 28.6723 10.4671 29.1869 10.1877 29.696 9.9113 30.2561 9.33127 30.5273 8.79975 30.9151 8.03953 31.64 8.08657 32.0544 8.89889 33.1481 11.0427 36.2936 10.9386 37.3498 8.72357 37.5274 8.3513 37.7956 8.22697 38.2661 8.29881 38.4092 8.32064 38.6182 8.54864 38.7871 8.8673 39.451 10.1187 40.9277 10.7271 42.3453 10.3333 42.9352 10.1695 43.711 9.46749 44.057 8.78497L44.3493 8.20777 45.9418 8.20777 47.5339 8.20777 47.5339 9.79649 47.5339 11.3853 47.0322 11.6088C46.392 11.8938 45.581 12.7743 45.4181 13.3621 45.2268 14.0499 45.269 14.9407 45.5187 15.4905 45.7773 16.06 46.5511 16.8536 47.0489 17.0597 47.635 17.3024 47.6195 18.1053 47.023 18.3896 45.9453 18.9036 45.2934 19.929 45.2915 21.1136 45.2907 21.4892 45.3631 21.9714 45.4525 22.1851 45.6824 22.7355 46.2747 23.3739 46.8894 23.7342 47.3713 24.0165 47.4159 24.0821 47.4159 24.5077 47.4159 24.929 47.3729 24.9947 46.9571 25.2067 46.4117 25.485 45.833 26.0411 45.5539 26.5548 45.2748 27.0695 45.2748 28.6723 45.5539 29.187 45.833 29.7007 46.4117 30.2568 46.9571 30.5351 47.3737 30.7474 47.4159 30.8124 47.4159 31.2367 47.4159 31.6595 47.3729 31.7263 46.9657 31.934 45.5044 32.6796 44.8839 34.4444 45.571 35.9015 45.8744 36.5449 46.1466 36.8296 46.9142 37.3056 47.3597 37.5819 47.4159 37.6665 47.4159 38.0585 47.4159 38.462 47.3698 38.5246 46.8793 38.7848 45.9321 39.2872 45.2903 40.3312 45.2903 41.3682 45.2903 42.5915 45.9612 43.6606 47.0237 44.131L47.5339 44.3566 47.5339 45.9453 47.5339 47.5339 45.9418 47.5339 44.3493 47.5339 44.0597 46.9626C43.7377 46.3266 43.0889 45.6995 42.4978 45.4525 42.2841 45.3631 41.7991 45.2903 41.4201 45.2903 40.2627 45.2903 39.2086 45.9612 38.7046 47.0183 38.4122 47.6315 37.6436 47.6342 37.3522 47.023 36.7017 45.6588 35.2012 44.9938 33.709 45.4084 33.1567 45.5621 32.4007 46.219 32.011 46.8836 31.725 47.3717 31.6605 47.4159 31.2341 47.4159 30.8128 47.4159 30.7471 47.3729 30.5351 46.9571 30.4063 46.7048 30.1339 46.3312 29.9296 46.1272 29.3 45.4974 28.9148 45.3526 27.8709 45.3526 26.827 45.3526 26.4418 45.4974 25.8121 46.1272 25.6079 46.3312 25.3355 46.7048 25.2067 46.9571 24.9947 47.3729 24.929 47.4159 24.5077 47.4159 24.0821 47.4159 24.0165 47.3713 23.7342 46.8894 23.3739 46.2747 22.7355 45.6824 22.1851 45.4525 21.9714 45.3631 21.4864 45.2903 21.1073 45.2903 19.9501 45.2903 18.896 45.9612 18.3919 47.0183 18.2144 47.3907 17.9462 47.515 17.4757 47.443 17.3326 47.4213 17.1235 47.1933 16.9545 46.8743 16.2906 45.6232 14.814 45.0147 13.3963 45.4084 12.8067 45.5721 12.0308 46.2743 11.6849 46.9568L11.3924 47.5339 9.7824 47.5339 8.17239 47.5339Z" fill="#FFFFFF" transform="matrix(1.27513 0 0 1 1972.92 1709)"/><path d="M304.257 285.677 272.902 285.677 272.902 254.322 304.257 254.322ZM274.064 284.515 303.096 284.515 303.096 255.483 274.064 255.483Z" transform="matrix(1.27513 0 0 1 1640.49 1466.87)"/></g></g></g></g><text font-family="Arial,Arial_MSFontService,sans-serif" font-weight="700" font-size="32" transform="matrix(0.386293 0 0 0.387097 1990.39 1742)">COSE</text></g></g></g></g><path d="M2383.79 1568 2383.79 1703.14 2306.37 1703.14 2306.37 1689.39 2376.91 1689.39 2370.04 1696.27 2370.04 1568ZM2313.25 1716.89 2272 1696.27 2313.25 1675.64Z" fill="#4472C4"/><g clip-path="url(#clip34)"><g clip-path="url(#clip35)"><g clip-path="url(#clip36)"><g clip-path="url(#clip37)"><path d="M1192.39 635.061 1245.36 635.061 1245.36 639.091 1192.39 639.091Z" fill-rule="evenodd" transform="matrix(1 0 0 1.00367 1687.15 1084.17)"/><path d="M53.6351 39.4849 53.6351 37.5361 80.0712 37.5361 106.508 37.5361 106.508 39.4849 106.508 41.4337 80.0712 41.4337 53.6351 41.4337Z" transform="matrix(1 0 0 1.00367 2826 1684)"/><path d="M1192.39 665 1225.79 665 1225.79 669.031 1192.39 669.031Z" fill-rule="evenodd" transform="matrix(1 0 0 1.00367 1687.15 1084.17)"/><path d="M1233.85 665 1245.36 665 1245.36 669.031 1233.85 669.031Z" fill-rule="evenodd" transform="matrix(1 0 0 1.00367 1687.15 1084.17)"/><path d="M1192.39 684.576 1225.79 684.576 1225.79 688.606 1192.39 688.606Z" fill-rule="evenodd" transform="matrix(1 0 0 1.00367 1687.15 1084.17)"/><path d="M1233.85 684.576 1245.36 684.576 1245.36 688.606 1233.85 688.606Z" fill-rule="evenodd" transform="matrix(1 0 0 1.00367 1687.15 1084.17)"/><path d="M1192.39 704.727 1225.79 704.727 1225.79 708.182 1192.39 708.182Z" fill-rule="evenodd" transform="matrix(1 0 0 1.00367 1687.15 1084.17)"/><path d="M1233.85 704.727 1245.36 704.727 1245.36 708.182 1233.85 708.182Z" fill-rule="evenodd" transform="matrix(1 0 0 1.00367 1687.15 1084.17)"/><path d="M1170.45 724.286 1267.24 724.286 1267.24 623.287C1267.23 613.579 1259.37 605.709 1249.66 605.697L1156.43 605.697C1146.73 605.709 1138.86 613.579 1138.85 623.287L1138.85 655.109 1170.45 655.109 1170.45 724.286ZM1249.66 609.653C1257.18 609.658 1263.28 615.761 1263.29 623.287L1263.29 738.121 1174.4 738.121 1174.4 623.287C1174.4 617.995 1172.02 612.986 1167.91 609.653L1249.66 609.653ZM1142.8 651.159 1142.8 623.287C1142.81 615.761 1148.91 609.658 1156.43 609.653L1156.82 609.653C1164.35 609.658 1170.45 615.761 1170.45 623.287L1170.45 651.159 1142.8 651.159ZM1170.45 728.241 1267.24 728.241 1170.45 728.241Z" fill-rule="evenodd" transform="matrix(1 0 0 1.00367 1687.15 1084.17)"/><path d="M35.671 75.6229C35.6699 20.8081 35.7072 23.2168 34.814 20.3356 34.0252 17.7913 32.3503 15.0414 30.4002 13.089L29.425 12.1126 71.3134 12.1601C118.522 12.2136 113.691 12.0651 116.76 13.5571 120.135 15.198 122.526 18.011 123.818 21.8607L124.216 23.047 124.261 74.7754 124.304 126.504 79.9883 126.504 35.672 126.504ZM87.0195 108.795 87.0195 107.016 70.2424 107.016 53.4656 107.016 53.4656 108.795 53.4656 110.575 70.2424 110.575 87.0195 110.575ZM106.677 108.795 106.677 107.016 100.831 107.016 94.9839 107.016 94.9839 108.795 94.9839 110.575 100.831 110.575 106.677 110.575ZM87.0195 88.9684 87.0195 86.8496 70.2424 86.8496 53.4656 86.8496 53.4656 88.9684 53.4656 91.0866 70.2424 91.0866 87.0195 91.0866ZM106.677 88.9684 106.677 86.8496 100.831 86.8496 94.9839 86.8496 94.9839 88.9684 94.9839 91.0866 100.831 91.0866 106.677 91.0866ZM87.0195 69.3949 87.0195 67.3614 70.2424 67.3614 53.4656 67.3614 53.4656 69.3949 53.4656 71.4285 70.2424 71.4285 87.0195 71.4285ZM106.677 69.3949 106.677 67.3614 100.831 67.3614 94.9839 67.3614 94.9839 69.3949 94.9839 71.4285 100.831 71.4285 106.677 71.4285ZM106.64 39.4425 106.687 37.3666 80.0764 37.3666 53.4656 37.3666 53.4656 39.4854 53.4656 41.6043 80.0292 41.5614 106.592 41.5185Z" fill="#FFFFFF" transform="matrix(1 0 0 1.00367 2826 1684)"/><path d="M4.02042 38.5105 4.07388 23.5553 4.5386 22.0628C5.92714 17.6033 8.90386 14.4048 13.0487 12.9189 15.4855 12.0453 18.9203 11.8862 21.3523 12.5342 25.7806 13.7142 29.2993 17.0354 30.8743 21.5218L31.3502 22.8775 31.398 38.1716 31.4458 53.4656 17.7063 53.4656 3.96697 53.4656Z" fill="#FFFFFF" transform="matrix(1 0 0 1.00367 2826 1684)"/><text font-family="Arial,Arial_MSFontService,sans-serif" font-weight="400" font-size="37" transform="matrix(0.575758 0 0 0.577869 2868.54 1715)">Receipt</text></g></g></g></g><g clip-path="url(#clip38)"><g clip-path="url(#clip39)"><g clip-path="url(#clip40)"><g clip-path="url(#clip41)"><path d="M2733.46 1671.67 2785.11 1671.67 2785.11 1716.72 2733.46 1716.72Z" fill="#FFFFFF"/><path d="M2718.97 1714.12 2826.48 1714.12 2826.48 1798.34 2718.97 1798.34Z" fill="#FFFFFF"/><path d="M2755.57 1773.83 2755.57 1773.83C2755.57 1772.94 2754.85 1772.58 2753.6 1772.58L2750.92 1772.58 2750.92 1775.26 2753.6 1775.26C2754.85 1775.08 2755.57 1774.72 2755.57 1773.83Z" fill="#262261"/><path d="M2754.14 1777.94 2750.92 1777.94 2750.92 1780.62 2754.14 1780.62C2755.39 1780.62 2756.1 1780.08 2756.1 1779.19L2756.1 1779.19C2756.28 1778.47 2755.57 1777.94 2754.14 1777.94Z" fill="#262261"/><path d="M2826.49 1724.88 2826.49 1724.88 2785.04 1724.88 2774.33 1724.88 2774.33 1714.16 2774.33 1672 2702.51 1672 2702.51 1841 2826.49 1841 2826.49 1724.88ZM2744.85 1779.55C2744.85 1782.58 2742.35 1784.37 2738.77 1784.37 2736.1 1784.37 2733.59 1783.48 2731.81 1781.87L2734.13 1779.19C2735.56 1780.44 2737.35 1780.97 2738.95 1780.97 2740.03 1780.97 2740.74 1780.62 2740.74 1779.9L2740.74 1779.9C2740.74 1779.19 2740.2 1779.01 2738.24 1778.47 2735.02 1777.76 2732.52 1776.87 2732.52 1773.83L2732.52 1773.83C2732.52 1770.97 2734.67 1769.01 2738.24 1769.01 2740.74 1769.01 2742.71 1769.72 2744.49 1770.97L2742.53 1773.83C2741.1 1772.76 2739.67 1772.4 2738.24 1772.4 2737.17 1772.4 2736.81 1772.76 2736.81 1773.29L2736.81 1773.29C2736.81 1774.01 2737.35 1774.36 2739.49 1774.72 2742.71 1775.44 2744.85 1776.69 2744.85 1779.55L2744.85 1779.55ZM2760.39 1779.9C2760.39 1782.4 2758.25 1784.01 2754.67 1784.01L2746.99 1784.01 2746.99 1769.01 2754.67 1769.01C2756.64 1769.01 2757.89 1769.54 2758.78 1770.26 2759.32 1770.79 2759.68 1771.69 2759.68 1772.76L2759.68 1772.76C2759.68 1774.54 2758.6 1775.44 2757.35 1776.15 2759.14 1776.87 2760.39 1777.94 2760.39 1779.9L2760.39 1779.9ZM2777.9 1776.51C2777.9 1780.8 2774.5 1784.37 2769.86 1784.37 2765.21 1784.37 2761.82 1780.97 2761.82 1776.69L2761.82 1776.69C2761.82 1772.4 2765.21 1768.83 2769.86 1768.83 2774.5 1768.83 2777.9 1772.22 2777.9 1776.51L2777.9 1776.51ZM2795.94 1784.01 2791.83 1784.01 2791.83 1775.44 2788.08 1781.33 2788.08 1781.33 2784.33 1775.44 2784.33 1784.01 2780.04 1784.01 2780.04 1769.01 2784.51 1769.01 2788.08 1774.72 2791.65 1769.01 2796.12 1769.01 2796.12 1784.01Z" fill="#262261"/><path d="M2769.86 1772.58C2767.54 1772.58 2766.11 1774.36 2766.11 1776.51L2766.11 1776.51C2766.11 1778.65 2767.72 1780.62 2770.04 1780.62 2772.36 1780.62 2773.79 1778.83 2773.79 1776.69L2773.79 1776.69C2773.61 1774.36 2772.18 1772.58 2769.86 1772.58Z" fill="#262261"/><path d="M2785.04 1672 2785.04 1714.16 2827.21 1714.16Z" fill="#262261"/></g></g></g></g><path d="M1925.16 1828.98 1925.16 1857.9 1920 1852.74 1922.03 1852.74 1922.03 1863.05 1914.84 1863.05 1914.84 1828.98ZM1932.34 1852.74 1963.28 1852.74 1963.28 1863.05 1932.34 1863.05ZM1973.59 1852.74 2004.53 1852.74 2004.53 1863.05 1973.59 1863.05ZM2014.84 1852.74 2045.78 1852.74 2045.78 1863.05 2014.84 1863.05ZM2056.09 1852.74 2087.03 1852.74 2087.03 1863.05 2056.09 1863.05ZM2097.34 1852.74 2128.28 1852.74 2128.28 1863.05 2097.34 1863.05ZM2138.59 1852.74 2169.53 1852.74 2169.53 1863.05 2138.59 1863.05ZM2179.84 1852.74 2210.78 1852.74 2210.78 1863.05 2179.84 1863.05ZM2221.09 1852.74 2252.03 1852.74 2252.03 1863.05 2221.09 1863.05ZM2262.34 1852.74 2293.28 1852.74 2293.28 1863.05 2262.34 1863.05ZM2303.59 1852.74 2334.53 1852.74 2334.53 1863.05 2303.59 1863.05ZM2344.84 1852.74 2362.14 1852.74 2356.98 1857.9 2356.98 1844.26 2367.3 1844.26 2367.3 1863.05 2344.84 1863.05ZM2356.98 1833.95 2356.98 1803.01 2367.3 1803.01 2367.3 1833.95ZM2356.98 1792.7 2356.98 1761.76 2367.3 1761.76 2367.3 1792.7ZM2366.69 1750.84 2397.63 1750.84 2397.63 1761.16 2366.69 1761.16ZM2407.94 1750.84 2438.88 1750.84 2438.88 1761.16 2407.94 1761.16ZM2449.19 1750.84 2480.13 1750.84 2480.13 1761.16 2449.19 1761.16ZM2490.44 1750.84 2521.38 1750.84 2521.38 1761.16 2490.44 1761.16ZM2531.69 1750.84 2562.63 1750.84 2562.63 1761.16 2531.69 1761.16ZM2572.94 1750.84 2603.88 1750.84 2603.88 1761.16 2572.94 1761.16ZM2614.19 1750.84 2645.13 1750.84 2645.13 1761.16 2614.19 1761.16ZM2649.37 1740.53 2680.3 1756 2649.37 1771.47Z" fill="#4472C4"/></g></svg>