<svg width="4315" height="900" xmlns="http://www.w3.org/2000/svg" xmlns:xlink="http://www.w3.org/1999/xlink" xml:space="preserve" overflow="hidden"><defs><clipPath id="clip0"><rect x="43" y="575" width="4315" height="900"/></clipPath></defs><g clip-path="url(#clip0)" transform="translate(-43 -575)"><rect x="45.4999" y="584.5" width="4310" height="888" stroke="#2F528F" stroke-width="4.58333" stroke-miterlimit="8" fill="#FFFFFF"/><text font-family="Arial,Arial_MSFontService,sans-serif" font-weight="700" font-size="83" transform="matrix(1 0 0 1 1750.83 680)">Software Supply Chain</text><rect x="71.5" y="736.5" width="1832" height="722" stroke="#2F528F" stroke-width="4.58333" stroke-miterlimit="8" stroke-dasharray="13.75 4.58333" fill="#FFFFFF"/><text font-family="Arial,Arial_MSFontService,sans-serif" font-weight="700" font-size="64" transform="matrix(1 0 0 1 552.941 815)">Wabbit Networks (Publisher)</text><rect x="1954.5" y="736.5" width="2378" height="722" stroke="#2F528F" stroke-width="4.58333" stroke-miterlimit="8" stroke-dasharray="13.75 4.58333" fill="#FFFFFF"/><text font-family="Arial,Arial_MSFontService,sans-serif" font-weight="700" font-size="64" transform="matrix(1 0 0 1 2727.06 815)">ACME Rockets (Consumer)</text><path d="M2270.5 1254.5 2240.5 1318.5 2210.5 1254.5Z" stroke="#2F528F" stroke-width="4.58333" stroke-miterlimit="8" fill="#4472C4" fill-rule="evenodd"/><path d="M669.5 1086.19 723.211 1086.19 723.211 1106.81 669.5 1106.81ZM712.899 1065.56 774.774 1096.5 712.899 1127.44Z" fill="#4472C4"/><rect x="202.5" y="871.5" width="467" height="450" stroke="#2F528F" stroke-width="4.58333" stroke-miterlimit="8" fill="#FFFFFF"/><text font-family="Arial,Arial_MSFontService,sans-serif" font-weight="400" font-size="55" transform="matrix(1 0 0 1 331.669 941)">Creation</text><rect x="774.5" y="871.5" width="467" height="450" stroke="#2F528F" stroke-width="4.58333" stroke-miterlimit="8" fill="#FFFFFF"/><text font-family="Arial,Arial_MSFontService,sans-serif" font-weight="400" font-size="55" transform="matrix(1 0 0 1 873.383 941)">Verification</text><path d="M1241.5 1086.19 1294.76 1086.19 1294.76 1106.81 1241.5 1106.81ZM1284.45 1065.56 1346.33 1096.5 1284.45 1127.44Z" fill="#4472C4"/><path d="M0 10.3125-85.6917 10.3125-75.3792 0-75.3792 2120.7-85.6917 2110.39 221.592 2110.39 211.279 2120.7 211.279 2089.76 231.904 2089.76 231.904 2131.01-96.0042 2131.01-96.0042-10.3125 0-10.3125ZM190.654 2100.07 221.592 2038.19 252.529 2100.07Z" fill="#4472C4" transform="matrix(-6.12323e-17 -1 -1 6.12323e-17 2240.69 1318.09)"/><rect x="259.5" y="1155.5" width="352" height="102" stroke="#2F528F" stroke-width="4.58333" stroke-miterlimit="8" fill="#FFFFFF"/><text font-family="Arial,Arial_MSFontService,sans-serif" font-weight="400" font-size="46" transform="matrix(1 0 0 1 384.366 1196)">Build <tspan font-size="46" x="-36.9417" y="55">Systems</tspan></text><rect x="259.5" y="1029.5" width="352" height="102" stroke="#2F528F" stroke-width="4.58333" stroke-miterlimit="8" fill="#FFFFFF"/><text font-family="Arial,Arial_MSFontService,sans-serif" font-weight="400" font-size="48" transform="matrix(1 0 0 1 384.091 1098)">SCC</text><rect x="1346.5" y="871.5" width="467" height="450" stroke="#2F528F" stroke-width="4.58333" stroke-miterlimit="8" fill="#FFFFFF"/><text font-family="Arial,Arial_MSFontService,sans-serif" font-weight="400" font-size="55" transform="matrix(1 0 0 1 1442.28 941)">Distribution</text><rect x="3219.5" y="871.5" width="467" height="450" stroke="#2F528F" stroke-width="4.58333" stroke-miterlimit="8" fill="#FFFFFF"/><text font-family="Arial,Arial_MSFontService,sans-serif" font-weight="400" font-size="55" transform="matrix(1 0 0 1 3291.07 941)">Consumption</text><path d="M2514.5 1086.19 2569.93 1086.19 2569.93 1106.81 2514.5 1106.81ZM2559.61 1065.56 2621.49 1096.5 2559.61 1127.44Z" fill="#4472C4"/><rect x="1435.5" y="1028.5" width="289" height="228" stroke="#2F528F" stroke-width="4.58333" stroke-miterlimit="8" fill="#FFFFFF"/><text font-family="Arial,Arial_MSFontService,sans-serif" font-weight="400" font-size="48" transform="matrix(1 0 0 1 1472.93 1131)">Published <tspan font-size="48" x="-1.14575" y="58">Registries</tspan></text><rect x="3271.5" y="1155.5" width="381" height="102" stroke="#2F528F" stroke-width="4.58333" stroke-miterlimit="8" fill="#FFFFFF"/><text font-family="Arial,Arial_MSFontService,sans-serif" font-weight="400" font-size="48" transform="matrix(1 0 0 1 3349.1 1224)">End Users</text><rect x="3271.5" y="1029.5" width="380" height="102" stroke="#2F528F" stroke-width="4.58333" stroke-miterlimit="8" fill="#FFFFFF"/><text font-family="Arial,Arial_MSFontService,sans-serif" font-weight="400" font-size="48" transform="matrix(1 0 0 1 3306.78 1098)">Apps/Services</text><rect x="832.5" y="1155.5" width="351" height="102" stroke="#2F528F" stroke-width="4.58333" stroke-miterlimit="8" fill="#FFFFFF"/><text font-family="Arial,Arial_MSFontService,sans-serif" font-weight="400" font-size="41" transform="matrix(1 0 0 1 932.887 1197)">Security <tspan font-size="41" x="-11.4583" y="50">Scanning</tspan></text><rect x="832.5" y="1029.5" width="351" height="102" stroke="#2F528F" stroke-width="4.58333" stroke-miterlimit="8" fill="#FFFFFF"/><text font-family="Arial,Arial_MSFontService,sans-serif" font-weight="400" font-size="37" transform="matrix(1 0 0 1 922.288 1072)">Functional <tspan font-size="37" x="24.6354" y="44">Testing</tspan></text><rect x="2621.5" y="871.5" width="467" height="450" stroke="#2F528F" stroke-width="4.58333" stroke-miterlimit="8" fill="#FFFFFF"/><text font-family="Arial,Arial_MSFontService,sans-serif" font-weight="400" font-size="55" transform="matrix(1 0 0 1 2720.79 941)">Verification</text><rect x="2692.5" y="1155.5" width="351" height="102" stroke="#2F528F" stroke-width="4.58333" stroke-miterlimit="8" fill="#FFFFFF"/><text font-family="Arial,Arial_MSFontService,sans-serif" font-weight="400" font-size="41" transform="matrix(1 0 0 1 2792.91 1197)">Security <tspan font-size="41" x="-11.4583" y="50">Scanning</tspan></text><rect x="2691.5" y="1029.5" width="351" height="102" stroke="#2F528F" stroke-width="4.58333" stroke-miterlimit="8" fill="#FFFFFF"/><text font-family="Arial,Arial_MSFontService,sans-serif" font-weight="400" font-size="37" transform="matrix(1 0 0 1 2781.53 1072)">Functional <tspan font-size="37" x="24.6355" y="44">Testing</tspan></text><path d="M3088.5 1086.19 3167.49 1086.19 3167.49 1106.81 3088.5 1106.81ZM3157.18 1065.56 3219.05 1096.5 3157.18 1127.44Z" fill="#4472C4"/><rect x="3816.5" y="871.5" width="467" height="450" stroke="#2F528F" stroke-width="4.58333" stroke-miterlimit="8" fill="#FFFFFF"/><text font-family="Arial,Arial_MSFontService,sans-serif" font-weight="400" font-size="55" transform="matrix(1 0 0 1 3952.51 941)">Archival</text><path d="M2291.81 1321.28 2291.81 1403.78 2281.5 1393.47 3723.77 1393.47 3713.46 1403.78 3713.46 1086.19 3765.56 1086.19 3765.56 1106.81 3723.77 1106.81 3734.09 1096.5 3734.09 1414.09 2271.19 1414.09 2271.19 1321.28ZM3755.25 1065.56 3817.12 1096.5 3755.25 1127.44Z" fill="#4472C4"/><rect x="3869.5" y="1029.5" width="381" height="200" stroke="#2F528F" stroke-width="4.58333" stroke-miterlimit="8" fill="#FFFFFF"/><text font-family="Arial,Arial_MSFontService,sans-serif" font-weight="400" font-size="48" transform="matrix(1 0 0 1 3966.24 1090)">Artifacts, <tspan font-size="48" x="-3.13965" y="58">Claims </tspan><tspan font-size="48" x="157.85" y="58">&amp; </tspan><tspan font-size="48" x="-6.00415" y="115">Evidence</tspan></text><rect x="1824" y="995" width="208" height="49.9998" fill="#FFFFFF"/><text font-family="Arial,Arial_MSFontService,sans-serif" font-weight="700" font-size="41" transform="matrix(1 0 0 1 1824.62 1035)">Promotion</text><path d="M1813.5 1086.19 1996.5 1086.19 1996.5 1106.81 1813.5 1106.81ZM1986.19 1065.56 2048.06 1096.5 1986.19 1127.44Z" fill="#4472C4"/><rect x="2047.5" y="871.5" width="467" height="450" stroke="#2F528F" stroke-width="4.58333" stroke-miterlimit="8" fill="#FFFFFF"/><text font-family="Arial,Arial_MSFontService,sans-serif" font-weight="400" font-size="55" transform="matrix(1 0 0 1 2189.41 941)">Internal <tspan font-size="55" x="-45.5584" y="66">Distribution</tspan></text><rect x="2114.5" y="1028.5" width="334" height="228" stroke="#2F528F" stroke-width="4.58333" stroke-miterlimit="8" fill="none"/><text font-family="Arial,Arial_MSFontService,sans-serif" font-weight="400" font-size="46" transform="matrix(1 0 0 1 2152.73 1105)">Environment <tspan font-size="46" x="48.125" y="55">Specific</tspan><tspan font-size="46" x="26.354" y="110">Registries</tspan></text><path d="M164 874.5C164 853.789 180.789 837 201.5 837 222.211 837 239 853.789 239 874.5 239 895.211 222.211 912 201.5 912 180.789 912 164 895.211 164 874.5Z" fill="#FF0000" fill-rule="evenodd"/><text fill="#FFFFFF" font-family="Arial,Arial_MSFontService,sans-serif" font-weight="400" font-size="55" transform="matrix(1 0 0 1 186.393 894)">1</text><path d="M736 874.5C736 853.789 752.789 837 773.5 837 794.211 837 811 853.789 811 874.5 811 895.211 794.211 912 773.5 912 752.789 912 736 895.211 736 874.5Z" fill="#FF0000" fill-rule="evenodd"/><text fill="#FFFFFF" font-family="Arial,Arial_MSFontService,sans-serif" font-weight="400" font-size="55" transform="matrix(1 0 0 1 758.229 894)">2</text><path d="M1308 874.5C1308 853.789 1324.79 837 1345.5 837 1366.21 837 1383 853.789 1383 874.5 1383 895.211 1366.21 912 1345.5 912 1324.79 912 1308 895.211 1308 874.5Z" fill="#FF0000" fill-rule="evenodd"/><text fill="#FFFFFF" font-family="Arial,Arial_MSFontService,sans-serif" font-weight="400" font-size="55" transform="matrix(1 0 0 1 1330.07 894)">3</text><path d="M2580 874.5C2580 853.789 2596.79 837 2617.5 837 2638.21 837 2655 853.789 2655 874.5 2655 895.211 2638.21 912 2617.5 912 2596.79 912 2580 895.211 2580 874.5Z" fill="#FF0000" fill-rule="evenodd"/><text fill="#FFFFFF" font-family="Arial,Arial_MSFontService,sans-serif" font-weight="400" font-size="55" transform="matrix(1 0 0 1 2602.44 894)">5</text><path d="M3181 874.5C3181 853.789 3197.79 837 3218.5 837 3239.21 837 3256 853.789 3256 874.5 3256 895.211 3239.21 912 3218.5 912 3197.79 912 3181 895.211 3181 874.5Z" fill="#FF0000" fill-rule="evenodd"/><text fill="#FFFFFF" font-family="Arial,Arial_MSFontService,sans-serif" font-weight="400" font-size="55" transform="matrix(1 0 0 1 3203.65 894)">6</text><path d="M3779 874.5C3779 853.789 3795.79 837 3816.5 837 3837.21 837 3854 853.789 3854 874.5 3854 895.211 3837.21 912 3816.5 912 3795.79 912 3779 895.211 3779 874.5Z" fill="#FF0000" fill-rule="evenodd"/><text fill="#FFFFFF" font-family="Arial,Arial_MSFontService,sans-serif" font-weight="400" font-size="55" transform="matrix(1 0 0 1 3801.22 894)">7</text><path d="M2010 874.5C2010 853.789 2026.79 837 2047.5 837 2068.21 837 2085 853.789 2085 874.5 2085 895.211 2068.21 912 2047.5 912 2026.79 912 2010 895.211 2010 874.5Z" fill="#FF0000" fill-rule="evenodd"/><text fill="#FFFFFF" font-family="Arial,Arial_MSFontService,sans-serif" font-weight="400" font-size="55" transform="matrix(1 0 0 1 2032.09 894)">4</text><path d="M1892 1397C1892 1376.57 1908.57 1360 1929 1360 1949.43 1360 1966 1376.57 1966 1397 1966 1417.43 1949.43 1434 1929 1434 1908.57 1434 1892 1417.43 1892 1397Z" fill="#FF0000" fill-rule="evenodd"/><text fill="#FFFFFF" font-family="Arial,Arial_MSFontService,sans-serif" font-weight="400" font-size="55" transform="matrix(1 0 0 1 1913.72 1417)">a</text></g></svg>