<svg width="129" height="150" xmlns="http://www.w3.org/2000/svg" xmlns:xlink="http://www.w3.org/1999/xlink" xml:space="preserve" overflow="hidden"><defs><clipPath id="clip0"><rect x="608" y="1796" width="129" height="150"/></clipPath><clipPath id="clip1"><rect x="702" y="1799" width="35" height="36"/></clipPath><clipPath id="clip2"><rect x="702" y="1799" width="35" height="36"/></clipPath><clipPath id="clip3"><rect x="702" y="1799" width="35" height="36"/></clipPath><clipPath id="clip4"><rect x="629" y="1796" width="81" height="81"/></clipPath><clipPath id="clip5"><rect x="629" y="1796" width="81" height="81"/></clipPath><clipPath id="clip6"><rect x="629" y="1796" width="81" height="81"/></clipPath><clipPath id="clip7"><rect x="629" y="1796" width="81" height="81"/></clipPath></defs><g clip-path="url(#clip0)" transform="translate(-608 -1796)"><g clip-path="url(#clip1)"><g clip-path="url(#clip2)"><g clip-path="url(#clip3)"><path d="M21.3848 17.6829 18.6892 15.3108 10.1353 25.8415 12.8668 28.1776Z" fill="#262261" transform="matrix(-1 0 0 1.02941 737 1800)"/><path d="M10.351 28.8605 8.91333 27.7104 8.12263 31.1966 11.3573 29.7231Z" fill="#262261" transform="matrix(-1 0 0 1.02941 737 1800)"/><path d="M29.7231 1.72516 32.4546 4.06131 33.8922 2.30021 31.0888 0.0359408Z" fill="#262261" transform="matrix(-1 0 0 1.02941 737 1800)"/><path d="M24.3679 17.1797 26.0571 18.5455 30.3341 13.2981C31.7717 11.6448 32.4546 9.56026 32.1311 7.8351 31.9873 7.0444 31.6279 6.36153 31.1248 5.78648L28.3933 3.41438 20.019 13.6575 22.7505 16.0296 29.6871 7.47569C29.8309 7.69134 29.9387 7.94293 29.9747 8.23045 30.1903 9.30868 29.6512 10.7463 28.6808 11.8964L24.3679 17.1797Z" fill="#262261" transform="matrix(-1 0 0 1.02941 737 1800)"/><path d="M1.83298 28.0698C1.90486 27.8901 1.97675 27.7104 2.08457 27.5307 2.30021 27.1713 2.5518 26.8837 2.87527 26.5962 3.48626 26.0212 4.27696 25.5539 5.1036 25.1226 5.93024 24.6914 6.79282 24.296 7.69134 23.8647 8.12263 23.6491 8.58986 23.3975 9.05709 23.074 9.30868 22.9303 9.52432 22.7505 9.77591 22.499 10.0275 22.2474 10.2791 21.9599 10.4228 21.4926 10.6025 21.0613 10.5666 20.4863 10.4228 20.0909 10.2791 19.6596 9.99155 19.3362 9.73997 19.0846 9.20085 18.6174 8.69768 18.3658 8.23045 18.1142 7.29599 17.647 6.39747 17.3594 5.57083 16.9641 4.78013 16.5687 4.09726 16.1374 3.70191 15.5624 3.30656 15.0233 3.16279 14.3045 3.27062 13.5138 3.37844 12.6871 3.63002 11.8964 4.06131 11.2135 4.95984 9.84779 6.64906 8.94927 8.4461 8.4461 9.34462 8.19451 10.2791 8.01481 11.2495 7.90698 11.7167 7.8351 12.2199 7.79916 12.6871 7.76322 13.1543 7.72728 13.6575 7.69134 14.1607 7.69134 12.2199 7.18817 10.2072 7.08035 8.19451 7.33193 7.18817 7.47569 6.18182 7.72728 5.21142 8.15857 4.24102 8.58986 3.3425 9.2368 2.62368 10.1353 2.26427 10.5666 1.97675 11.0698 1.7611 11.573 1.54546 12.1121 1.40169 12.6152 1.29387 13.1903 1.18605 13.7653 1.18605 14.3404 1.25793 14.9514 1.36575 15.5624 1.5814 16.1734 1.94081 16.7125 2.30021 17.2516 2.7315 17.647 3.19873 18.0064 3.66597 18.3658 4.1332 18.6174 4.60043 18.8689 5.53489 19.3362 6.46935 19.6956 7.29599 20.055 7.69134 20.2347 8.05075 20.4503 8.26639 20.63 8.37422 20.7019 8.41016 20.7738 8.41016 20.8097 8.41016 20.8457 8.41016 20.8097 8.41016 20.8097 8.41016 20.8097 8.37422 20.9176 8.26639 21.0254 8.15857 21.1332 8.01481 21.241 7.87104 21.3848 7.54758 21.6364 7.15223 21.852 6.75688 22.1036 5.93024 22.5708 5.06766 23.0381 4.20508 23.5412 3.3425 24.0804 2.47992 24.6914 1.7611 25.518 1.40169 25.9133 1.07823 26.4165 0.86258 26.9197 0.754758 27.1713 0.646935 27.4588 0.610994 27.7463 0.539113 28.0339 0.539113 28.2854 0.503172 28.537 0.467231 29.0761 0.467231 29.6153 0.646935 30.1903 0.790698 30.7294 1.11417 31.2685 1.5814 31.6279 2.04863 31.9873 2.58774 32.167 3.09091 32.2389 3.63002 32.3108 4.1332 32.3108 4.63637 32.2389 5.64271 32.1311 6.57717 31.8436 7.47569 31.4842 6.50529 31.6639 5.53489 31.7717 4.60043 31.7358 4.1332 31.6998 3.66597 31.6639 3.23468 31.5201 2.80339 31.4123 2.40804 31.1966 2.15645 30.9091 1.61734 30.37 1.54546 29.5074 1.72516 28.6448 1.72516 28.5011 1.79704 28.2495 1.83298 28.0698Z" fill="#262261" transform="matrix(-1 0 0 1.02941 737 1800)"/></g></g></g><g clip-path="url(#clip4)"><g clip-path="url(#clip5)"><g clip-path="url(#clip6)"><g clip-path="url(#clip7)"><path d="M702.356 1875.85 702.356 1852.88C702.356 1852.61 702.223 1852.36 702.001 1852.2L698.582 1849.81C698.582 1849.8 698.582 1849.8 698.582 1849.8L702.168 1845.5C702.394 1845.23 702.425 1844.84 702.241 1844.54L700.081 1840.93C700.077 1840.93 700.077 1840.93 700.081 1840.92L702.116 1838.89C702.269 1838.73 702.356 1838.52 702.356 1838.3L702.356 1834.55C702.356 1830.18 698.811 1826.63 694.439 1826.63L651.938 1826.63C647.59 1826.62 644.049 1830.13 644.022 1834.48 644.025 1836.88 645.135 1839.15 647.03 1840.63 647.945 1841.28 649.037 1841.63 650.157 1841.64 650.3 1841.64 650.443 1841.62 650.585 1841.61 650.62 1841.62 650.655 1841.63 650.689 1841.63L658.189 1841.63 658.189 1863.72C658.189 1863.94 658.276 1864.15 658.432 1864.3L661.587 1867.46 661.587 1867.47 658.018 1871.04C657.862 1871.2 657.771 1871.41 657.771 1871.63L657.771 1882.88C657.771 1887.25 661.316 1890.8 665.688 1890.8L701.291 1890.8C705.183 1890.85 708.488 1887.97 708.978 1884.11 709.42 1880.01 706.46 1876.31 702.356 1875.85ZM653.869 1839.97C654.498 1839.24 654.846 1838.32 654.856 1837.36 654.87 1835.09 653.044 1833.24 650.776 1833.23 650.749 1833.23 650.717 1833.23 650.689 1833.23 650.23 1833.23 649.855 1833.61 649.855 1834.06 649.855 1834.52 650.23 1834.9 650.689 1834.9 652.046 1834.87 653.166 1835.95 653.19 1837.31 653.19 1837.33 653.19 1837.34 653.19 1837.36 653.149 1838.32 652.582 1839.17 651.719 1839.58 650.529 1840.18 649.103 1840.07 648.022 1839.29 646.547 1838.13 645.688 1836.35 645.688 1834.48 645.709 1831.02 648.523 1828.24 651.976 1828.26 655.427 1828.28 658.209 1831.1 658.189 1834.55L658.189 1839.97ZM659.441 1882.88 659.441 1871.98 663.361 1868.05C663.688 1867.73 663.688 1867.2 663.361 1866.88L659.855 1863.37 659.855 1834.55C659.855 1832.11 658.731 1829.81 656.811 1828.31 656.808 1828.31 656.808 1828.3 656.811 1828.3 656.811 1828.3 656.815 1828.3 656.815 1828.3L694.439 1828.3C697.89 1828.3 700.69 1831.1 700.69 1834.55L700.69 1837.95 698.432 1840.21C698.164 1840.48 698.112 1840.9 698.307 1841.23L700.502 1844.89 696.717 1849.43C696.422 1849.79 696.47 1850.31 696.825 1850.6 696.843 1850.62 696.863 1850.64 696.884 1850.65L700.69 1853.32 700.69 1875.8 668.189 1875.81C667.274 1875.75 666.363 1875.95 665.552 1876.37 664.136 1877.07 663.229 1878.49 663.19 1880.07 663.173 1882.34 664.999 1884.19 667.267 1884.2 667.298 1884.2 667.326 1884.2 667.357 1884.2 667.816 1884.2 668.189 1883.83 668.189 1883.37 668.189 1882.91 667.816 1882.53 667.357 1882.53 666.001 1882.56 664.881 1881.48 664.856 1880.12 664.856 1880.11 664.856 1880.09 664.856 1880.07 664.895 1879.12 665.462 1878.26 666.328 1877.85 667.517 1877.25 668.943 1877.36 670.022 1878.14 671.496 1879.31 672.356 1881.08 672.356 1882.96 672.331 1886.39 669.535 1889.15 666.105 1889.13L665.688 1889.13C662.237 1889.13 659.441 1886.33 659.441 1882.88ZM701.319 1889.13 670.992 1889.13C670.989 1889.13 670.982 1889.13 670.982 1889.13 670.978 1889.13 670.982 1889.12 670.985 1889.12 674.387 1886.51 675.027 1881.63 672.415 1878.23 672.209 1877.96 671.987 1877.71 671.747 1877.47L701.524 1877.47C704.749 1877.47 707.361 1880.09 707.357 1883.31 707.357 1883.57 707.34 1883.82 707.305 1884.07 706.857 1887.01 704.3 1889.17 701.319 1889.13Z" transform="matrix(1 0 0 1.0125 -7.52246 -45.8642)"/><path d="M677.357 1839.97 691.521 1839.97 691.521 1841.63 677.357 1841.63Z" transform="matrix(1 0 0 1.0125 -7.52246 -45.8642)"/><path d="M669.023 1839.97 674.022 1839.97 674.022 1841.63 669.023 1841.63Z" transform="matrix(1 0 0 1.0125 -7.52246 -45.8642)"/><path d="M677.357 1864.97 691.521 1864.97 691.521 1866.63 677.357 1866.63Z" transform="matrix(1 0 0 1.0125 -7.52246 -45.8642)"/><path d="M669.023 1864.97 674.022 1864.97 674.022 1866.63 669.023 1866.63Z" transform="matrix(1 0 0 1.0125 -7.52246 -45.8642)"/><path d="M669.023 1848.3 683.19 1848.3 683.19 1849.97 669.023 1849.97Z" transform="matrix(1 0 0 1.0125 -7.52246 -45.8642)"/><path d="M686.523 1848.3 691.521 1848.3 691.521 1849.97 686.523 1849.97Z" transform="matrix(1 0 0 1.0125 -7.52246 -45.8642)"/><path d="M669.023 1856.63 691.521 1856.63 691.521 1858.3 669.023 1858.3Z" transform="matrix(1 0 0 1.0125 -7.52246 -45.8642)"/><path d="M35.2552 69.3529C36.9168 67.6913 37.7475 65.3206 37.4832 62.9947 37.3079 61.4516 36.8297 60.2587 35.8946 59.0313L35.3644 58.3354 50.1551 58.3384C58.7098 58.3401 65.2374 58.3793 65.6375 58.4313 68.4532 58.7971 70.5711 61.0353 70.7518 63.836 70.9093 66.2775 69.3949 68.5685 66.9723 69.5535L66.2003 69.8674 50.445 69.8928 34.6896 69.9182Z" fill="#FFFFFF" transform="matrix(1 0 0 1.0125 629 1796)"/><path d="M27.4548 69.6898C25.7725 69.1888 24.3944 68.0332 23.6388 66.4898 22.9687 65.121 22.9835 65.2848 22.9428 58.7986L22.906 52.9409 24.9632 50.853C26.0948 49.7046 27.053 48.6783 27.0928 48.5724 27.2505 48.1518 27.0292 47.8507 25.2249 46.0306L23.4064 44.1963 23.3793 29.191 23.3522 14.1858 23.1335 13.4138C22.7175 11.9453 22.1587 10.971 21.0988 9.86615L20.4727 9.2136 39.766 9.23888 59.0592 9.26417 59.8837 9.55946C61.7644 10.233 63.1152 11.5848 63.7789 13.4577 64.0666 14.2696 64.0717 14.3169 64.1075 16.5364L64.1439 18.7905 62.8802 20.0667C61.8192 21.1382 61.6165 21.3897 61.6165 21.6349 61.6165 21.8359 61.973 22.5234 62.76 23.8399L63.9035 25.7529 61.9397 28.1123C60.1308 30.2858 59.976 30.5012 59.976 30.8451 59.976 31.0732 60.0421 31.284 60.1459 31.3872 60.2393 31.4801 61.173 32.1567 62.2207 32.8909L64.1255 34.2256 64.1255 45.412 64.1255 56.5984 47.5513 56.6C29.3427 56.6019 30.2654 56.5726 29.0152 57.1866 27.8122 57.7774 26.9076 59.01 26.6789 60.3702 26.2899 62.6833 28.0987 64.9347 30.4555 65.0712 31.1587 65.1119 31.2181 65.0997 31.4521 64.8656 31.7765 64.5412 31.787 64.0434 31.4771 63.6831 31.3006 63.4778 31.1265 63.4055 30.6538 63.3409 29.6704 63.2064 29.021 62.7586 28.6482 61.9582 27.9427 60.4431 28.9754 58.787 30.8367 58.4487 32.4845 58.1492 34.1548 59.186 35.0847 61.0857 35.5717 62.0806 35.754 62.818 35.754 63.7926 35.754 66.584 33.8038 69.0764 31.0775 69.7694 30.1771 69.9983 28.3565 69.9583 27.4548 69.6898ZM37.5875 46.6587 37.5875 45.7902 35.0302 45.7902 32.4729 45.7902 32.4729 46.6587 32.4729 47.5272 35.0302 47.5272 37.5875 47.5272ZM55.0543 46.6587 55.0543 45.7902 47.9132 45.7902 40.7721 45.7902 40.7721 46.6587 40.7721 47.5272 47.9132 47.5272 55.0543 47.5272ZM55.0543 38.3595 55.0543 37.491 43.7636 37.491 32.4729 37.491 32.4729 38.3595 32.4729 39.228 43.7636 39.228 55.0543 39.228ZM46.7347 29.988 46.7625 29.0953 39.6177 29.0953 32.4729 29.0953 32.4729 30.0127 32.4729 30.9301 39.5899 30.9053 46.7069 30.8806ZM55.0543 30.0121 55.0543 29.0953 52.497 29.0953 49.9397 29.0953 49.9397 30.0121 49.9397 30.9289 52.497 30.9289 55.0543 30.9289ZM37.5875 21.6647 37.5875 20.7962 35.0302 20.7962 32.4729 20.7962 32.4729 21.6647 32.4729 22.5332 35.0302 22.5332 37.5875 22.5332ZM55.0543 21.6647 55.0543 20.7962 47.9132 20.7962 40.7721 20.7962 40.7721 21.6647 40.7721 22.5332 47.9132 22.5332 55.0543 22.5332Z" fill="#FFFFFF" transform="matrix(1 0 0 1.0125 629 1796)"/><path d="M12.4835 20.5791C11.4035 20.2003 10.4554 19.2604 9.82813 17.9466 9.0011 16.2143 9.02742 14.3764 9.90472 12.5968 10.6691 11.0461 12.308 9.74962 14.0048 9.35331 14.9008 9.14403 16.4615 9.20768 17.3221 9.48859 19.1011 10.0693 20.5902 11.5249 21.2419 13.3203 21.5707 14.2261 21.663 15.2967 21.6639 18.2147L21.6647 20.7962 19.5988 20.7962 17.5328 20.7962 17.8666 20.1448C18.7067 18.5051 18.462 16.6602 17.2319 15.3595 16.4714 14.5554 15.3148 14.041 14.2674 14.041 13.4446 14.041 12.998 14.8622 13.4978 15.4561 13.7029 15.6999 13.8421 15.7621 14.3035 15.8161 15.41 15.9456 16.2258 16.5996 16.5129 17.5872 16.9625 19.1336 15.6794 20.6214 13.7796 20.757 13.2565 20.7943 12.9949 20.7584 12.4835 20.5791Z" fill="#FFFFFF" transform="matrix(1 0 0 1.0125 629 1796)"/></g></g></g></g><text font-family="Arial,Arial_MSFontService,sans-serif" font-weight="400" font-size="18" transform="matrix(1 0 0 1 639.094 1886)">Wabbit<tspan font-size="18" x="57.2917" y="0">-</tspan><tspan font-size="18" x="-6.59998" y="22">Networks</tspan><tspan font-size="18" x="-19.2042" y="44">Build Claims</tspan></text><path d="M678 1848 658 1836 678 1824Z" fill="#FF0000" fill-rule="evenodd"/></g></svg>