<svg width="200" height="150" xmlns="http://www.w3.org/2000/svg" xmlns:xlink="http://www.w3.org/1999/xlink" xml:space="preserve" overflow="hidden"><defs><clipPath id="clip0"><rect x="852" y="1796" width="200" height="150"/></clipPath><clipPath id="clip1"><rect x="964" y="1802" width="88" height="88"/></clipPath><clipPath id="clip2"><rect x="964" y="1802" width="88" height="88"/></clipPath><clipPath id="clip3"><rect x="964" y="1802" width="88" height="88"/></clipPath><clipPath id="clip4"><rect x="873" y="1796" width="80" height="81"/></clipPath><clipPath id="clip5"><rect x="873" y="1796" width="80" height="81"/></clipPath><clipPath id="clip6"><rect x="873" y="1796" width="80" height="81"/></clipPath><clipPath id="clip7"><rect x="873" y="1796" width="80" height="81"/></clipPath></defs><g clip-path="url(#clip0)" transform="translate(-852 -1796)"><g clip-path="url(#clip1)"><g clip-path="url(#clip2)"><g clip-path="url(#clip3)"><path d="M54.7199 45.2473 47.8224 39.1776 25.9345 66.1237 32.9239 72.1015Z" fill="#262261" transform="matrix(-1 0 0 1 1052 1803)"/><path d="M26.4862 73.8488 22.8076 70.9059 20.7843 79.8266 29.0613 76.056Z" fill="#262261" transform="matrix(-1 0 0 1 1052 1803)"/><path d="M76.056 4.41437 83.0454 10.3922 86.7241 5.88583 79.5507 0.0919661Z" fill="#262261" transform="matrix(-1 0 0 1 1052 1803)"/><path d="M62.353 43.9598 66.6755 47.4545 77.6194 34.0275C81.2981 29.797 83.0454 24.463 82.2177 20.0486 81.8499 18.0254 80.9302 16.278 79.6427 14.8065L72.6533 8.73678 51.2251 34.9471 58.2146 41.0169 75.964 19.129C76.3319 19.6808 76.6078 20.3245 76.6998 21.0602 77.2516 23.8192 75.8721 27.4979 73.389 30.4408L62.353 43.9598Z" fill="#262261" transform="matrix(-1 0 0 1 1052 1803)"/><path d="M4.69027 71.8256C4.87421 71.3657 5.05814 70.9059 5.33404 70.4461 5.88583 69.5264 6.5296 68.7907 7.35729 68.0549 8.92072 66.5835 10.944 65.3879 13.0592 64.2843 15.1744 63.1807 17.3816 62.1691 19.6808 61.0655 20.7843 60.5137 21.9799 59.87 23.1755 59.0423 23.8192 58.6744 24.371 58.2146 25.0148 57.5708 25.6586 56.927 26.3023 56.1913 26.6702 54.9958 27.13 53.8922 27.038 52.4207 26.6702 51.4091 26.3023 50.3055 25.5666 49.4778 24.9228 48.834 23.5433 47.6385 22.2558 46.9947 21.0602 46.3509 18.6691 45.1554 16.37 44.4196 14.2548 43.408 12.2315 42.3964 10.4841 41.2928 9.47251 39.8213 8.46089 38.4418 8.09302 36.6025 8.36892 34.5793 8.64482 32.464 9.28858 30.4408 10.3922 28.6934 12.6913 25.1987 17.0137 22.8996 21.612 21.612 23.9112 20.9683 26.3023 20.5084 28.7854 20.2326 29.981 20.0486 31.2685 19.9567 32.464 19.8647 33.6596 19.7727 34.9471 19.6808 36.2347 19.6808 31.2685 18.3932 26.1184 18.1173 20.9683 18.7611 18.3932 19.129 15.8182 19.7727 13.3351 20.8763 10.852 21.9799 8.55285 23.6353 6.71353 25.9345 5.79387 27.038 5.05814 28.3256 4.50634 29.6131 3.95454 30.9926 3.58668 32.2801 3.31078 33.7516 3.03488 35.223 3.03488 36.6945 3.21881 38.2579 3.49471 39.8213 4.04651 41.3848 4.96617 42.7643 5.88583 44.1437 6.98943 45.1554 8.18499 46.075 9.38055 46.9947 10.5761 47.6385 11.7717 48.2822 14.1628 49.4778 16.5539 50.3974 18.6691 51.3171 19.6808 51.7769 20.6004 52.3287 21.1522 52.7886 21.4281 52.9725 21.5201 53.1564 21.5201 53.2484 21.5201 53.3404 21.5201 53.2484 21.5201 53.2484 21.5201 53.2484 21.4281 53.5243 21.1522 53.8002 20.8763 54.0761 20.5084 54.352 20.1406 54.7199 19.3129 55.3636 18.3013 55.9154 17.2896 56.5592 15.1744 57.7547 12.9672 58.9503 10.76 60.2378 8.55285 61.6173 6.34566 63.1807 4.50634 65.296 3.58668 66.3076 2.75898 67.5951 2.20719 68.8826 1.93129 69.5264 1.65539 70.2621 1.56342 70.9979 1.37949 71.7336 1.37949 72.3773 1.28753 73.0211 1.19556 74.4006 1.19556 75.7801 1.65539 77.2516 2.02326 78.6311 2.85095 80.0105 4.04651 80.9302 5.24207 81.8499 6.62156 82.3097 7.90909 82.4936 9.28858 82.6776 10.5761 82.6776 11.8636 82.4936 14.4387 82.2177 16.8298 81.482 19.129 80.5623 16.6459 81.0222 14.1628 81.2981 11.7717 81.2061 10.5761 81.1141 9.38055 81.0222 8.27695 80.6543 7.17336 80.3784 6.16173 79.8266 5.51797 79.0909 4.13848 77.7114 3.95454 75.5042 4.41437 73.297 4.41437 72.9292 4.59831 72.2854 4.69027 71.8256Z" fill="#262261" transform="matrix(-1 0 0 1 1052 1803)"/></g></g></g><g clip-path="url(#clip4)"><g clip-path="url(#clip5)"><g clip-path="url(#clip6)"><g clip-path="url(#clip7)"><path d="M702.352 1875.84 702.352 1852.87C702.352 1852.6 702.22 1852.35 701.998 1852.19L698.579 1849.8C698.579 1849.8 698.579 1849.79 698.579 1849.79L702.165 1845.49C702.391 1845.22 702.422 1844.83 702.238 1844.53L700.078 1840.93C700.074 1840.92 700.074 1840.92 700.078 1840.92L702.112 1838.88C702.266 1838.72 702.352 1838.51 702.352 1838.29L702.352 1834.54C702.352 1830.17 698.808 1826.62 694.436 1826.62L651.935 1826.62C647.587 1826.61 644.047 1830.12 644.019 1834.47 644.022 1836.87 645.132 1839.14 647.027 1840.62 647.942 1841.27 649.034 1841.62 650.154 1841.63 650.297 1841.63 650.44 1841.61 650.582 1841.6 650.617 1841.61 650.652 1841.62 650.687 1841.63L658.186 1841.63 658.186 1863.71C658.186 1863.93 658.273 1864.14 658.429 1864.3L661.584 1867.45 661.584 1867.47 658.015 1871.03C657.859 1871.19 657.768 1871.4 657.768 1871.63L657.768 1882.87C657.768 1887.25 661.313 1890.79 665.685 1890.79L701.288 1890.79C705.18 1890.84 708.485 1887.96 708.975 1884.11 709.417 1880 706.457 1876.3 702.352 1875.84ZM653.866 1839.96C654.495 1839.24 654.843 1838.31 654.854 1837.35 654.867 1835.09 653.041 1833.24 650.774 1833.22 650.746 1833.22 650.714 1833.22 650.687 1833.22 650.227 1833.22 649.852 1833.6 649.852 1834.06 649.852 1834.52 650.227 1834.89 650.687 1834.89 652.043 1834.86 653.163 1835.95 653.187 1837.3 653.187 1837.32 653.187 1837.34 653.187 1837.35 653.146 1838.31 652.579 1839.17 651.716 1839.58 650.527 1840.17 649.101 1840.06 648.019 1839.28 646.544 1838.12 645.685 1836.35 645.685 1834.47 645.706 1831.02 648.52 1828.23 651.974 1828.25 655.424 1828.28 658.207 1831.09 658.186 1834.54L658.186 1839.96ZM659.438 1882.87 659.438 1871.97 663.358 1868.05C663.685 1867.72 663.685 1867.19 663.358 1866.87L659.852 1863.36 659.852 1834.54C659.852 1832.11 658.728 1829.8 656.808 1828.3 656.805 1828.3 656.805 1828.3 656.808 1828.29 656.808 1828.29 656.812 1828.29 656.812 1828.29L694.436 1828.29C697.886 1828.29 700.686 1831.09 700.686 1834.54L700.686 1837.95 698.429 1840.2C698.161 1840.47 698.109 1840.89 698.304 1841.22L700.499 1844.88 696.714 1849.42C696.419 1849.78 696.467 1850.3 696.822 1850.6 696.839 1850.61 696.86 1850.63 696.881 1850.64L700.686 1853.31 700.686 1875.79 668.186 1875.8C667.271 1875.74 666.36 1875.94 665.549 1876.36 664.133 1877.06 663.226 1878.48 663.187 1880.06 663.17 1882.33 664.996 1884.18 667.264 1884.19 667.295 1884.19 667.323 1884.19 667.354 1884.19 667.813 1884.19 668.186 1883.82 668.186 1883.36 668.186 1882.9 667.813 1882.53 667.354 1882.53 665.998 1882.55 664.878 1881.47 664.853 1880.12 664.853 1880.1 664.853 1880.08 664.853 1880.06 664.892 1879.11 665.459 1878.25 666.325 1877.84 667.514 1877.24 668.94 1877.35 670.019 1878.13 671.493 1879.3 672.353 1881.07 672.353 1882.95 672.328 1886.38 669.532 1889.14 666.102 1889.12L665.685 1889.12C662.234 1889.12 659.438 1886.32 659.438 1882.87ZM701.316 1889.12 670.989 1889.12C670.986 1889.12 670.979 1889.12 670.979 1889.12 670.975 1889.12 670.979 1889.11 670.982 1889.11 674.384 1886.5 675.024 1881.62 672.412 1878.22 672.206 1877.95 671.984 1877.7 671.744 1877.46L701.521 1877.46C704.746 1877.46 707.358 1880.08 707.354 1883.31 707.354 1883.56 707.337 1883.81 707.302 1884.06 706.853 1887.01 704.297 1889.17 701.316 1889.12Z" transform="matrix(1 0 0 1.0125 236.48 -45.8642)"/><path d="M677.354 1839.96 691.518 1839.96 691.518 1841.63 677.354 1841.63Z" transform="matrix(1 0 0 1.0125 236.48 -45.8642)"/><path d="M669.02 1839.96 674.019 1839.96 674.019 1841.63 669.02 1841.63Z" transform="matrix(1 0 0 1.0125 236.48 -45.8642)"/><path d="M677.354 1864.96 691.518 1864.96 691.518 1866.62 677.354 1866.62Z" transform="matrix(1 0 0 1.0125 236.48 -45.8642)"/><path d="M669.02 1864.96 674.019 1864.96 674.019 1866.62 669.02 1866.62Z" transform="matrix(1 0 0 1.0125 236.48 -45.8642)"/><path d="M669.02 1848.29 683.187 1848.29 683.187 1849.96 669.02 1849.96Z" transform="matrix(1 0 0 1.0125 236.48 -45.8642)"/><path d="M686.52 1848.29 691.518 1848.29 691.518 1849.96 686.52 1849.96Z" transform="matrix(1 0 0 1.0125 236.48 -45.8642)"/><path d="M669.02 1856.62 691.518 1856.62 691.518 1858.29 669.02 1858.29Z" transform="matrix(1 0 0 1.0125 236.48 -45.8642)"/><path d="M35.2552 69.3525C36.9167 67.6909 37.7474 65.3201 37.483 62.9942 37.3077 61.4513 36.8294 60.2586 35.8945 59.0311L35.3644 58.3351 50.155 58.3382C58.7094 58.34 65.237 58.3789 65.6374 58.4311 68.453 58.797 70.5709 61.0349 70.7514 63.8356 70.909 66.277 69.3946 68.5681 66.972 69.5532L66.2001 69.8673 50.4447 69.8926 34.6895 69.918Z" fill="#FFFFFF" transform="matrix(1 0 0 1.0125 873 1796)"/><path d="M27.4547 69.6895C25.7724 69.1886 24.3943 68.0328 23.6387 66.4895 22.9686 65.1208 22.9834 65.2847 22.9427 58.7984L22.9058 52.9407 24.9631 50.8527C26.0946 49.7045 27.0529 48.6781 27.0926 48.572 27.2503 48.1515 27.0291 47.8506 25.2248 46.0305L23.4063 44.196 23.3792 29.1909 23.3521 14.1857 23.1334 13.4137C22.7174 11.9452 22.1586 10.971 21.0987 9.86612L20.4727 9.21357 39.7658 9.23886 59.0589 9.26414 59.8833 9.55941C61.764 10.2329 63.1149 11.5848 63.7786 13.4577 64.0662 14.2696 64.0714 14.3168 64.1073 16.5363L64.1434 18.7904 62.8798 20.0666C61.8189 21.1381 61.6161 21.3897 61.6161 21.6348 61.6161 21.8358 61.9727 22.5233 62.7598 23.8398L63.9031 25.7528 61.9396 28.1122C60.1306 30.2856 59.9758 30.5011 59.9758 30.8449 59.9758 31.073 60.0419 31.2839 60.1455 31.3871 60.2391 31.48 61.1727 32.1566 62.2203 32.8907L64.1254 34.2254 64.1254 45.4117 64.1254 56.5981 47.5511 56.5998C29.3426 56.6016 30.2653 56.5723 29.015 57.1862 27.812 57.7772 26.9075 59.0099 26.6788 60.3699 26.2898 62.6829 28.0986 64.9344 30.4554 65.0707 31.1585 65.1114 31.2179 65.0993 31.4519 64.8652 31.7763 64.541 31.7869 64.0433 31.4769 63.6829 31.3004 63.4777 31.1264 63.4054 30.6537 63.3407 29.6703 63.2061 29.0208 62.7584 28.6481 61.9581 27.9426 60.4429 28.9753 58.7866 30.8366 58.4485 32.4844 58.149 34.1546 59.1859 35.0844 61.0854 35.5714 62.0805 35.754 62.8175 35.754 63.7925 35.754 66.5838 33.8036 69.0763 31.0774 69.7692 30.177 69.998 28.3563 69.958 27.4547 69.6895ZM37.5874 46.6586 37.5874 45.7901 35.0301 45.7901 32.4728 45.7901 32.4728 46.6586 32.4728 47.5271 35.0301 47.5271 37.5874 47.5271ZM55.0541 46.6586 55.0541 45.7901 47.9129 45.7901 40.772 45.7901 40.772 46.6586 40.772 47.5271 47.9129 47.5271 55.0541 47.5271ZM55.0541 38.3592 55.0541 37.4907 43.7633 37.4907 32.4728 37.4907 32.4728 38.3592 32.4728 39.2277 43.7633 39.2277 55.0541 39.2277ZM46.7345 29.9878 46.7623 29.0952 39.6176 29.0952 32.4728 29.0952 32.4728 30.0126 32.4728 30.93 39.5898 30.9052 46.7066 30.8805ZM55.0541 30.012 55.0541 29.0952 52.4969 29.0952 49.9397 29.0952 49.9397 30.012 49.9397 30.9287 52.4969 30.9287 55.0541 30.9287ZM37.5874 21.6646 37.5874 20.7961 35.0301 20.7961 32.4728 20.7961 32.4728 21.6646 32.4728 22.5331 35.0301 22.5331 37.5874 22.5331ZM55.0541 21.6646 55.0541 20.7961 47.9129 20.7961 40.772 20.7961 40.772 21.6646 40.772 22.5331 47.9129 22.5331 55.0541 22.5331Z" fill="#FFFFFF" transform="matrix(1 0 0 1.0125 873 1796)"/><path d="M12.4835 20.579C11.4034 20.2002 10.4553 19.2603 9.82807 17.9465 9.00105 16.2143 9.02738 14.3763 9.90466 12.5967 10.6691 11.0461 12.308 9.74957 14.0047 9.35326 14.9007 9.144 16.4614 9.20762 17.322 9.48856 19.1011 10.0693 20.5901 11.5248 21.2418 13.3202 21.5706 14.226 21.6629 15.2966 21.6638 18.2147L21.6646 20.7961 19.5986 20.7961 17.5327 20.7961 17.8665 20.1447C18.7067 18.5051 18.4619 16.6601 17.2318 15.3594 16.4714 14.5554 15.3148 14.041 14.2673 14.041 13.4445 14.041 12.9979 14.8621 13.4977 15.4561 13.7028 15.6998 13.8421 15.762 14.3035 15.816 15.4099 15.9455 16.2257 16.5995 16.5128 17.5871 16.9624 19.1335 15.6794 20.6214 13.7795 20.7569 13.2565 20.7942 12.9949 20.7583 12.4835 20.579Z" fill="#FFFFFF" transform="matrix(1 0 0 1.0125 873 1796)"/></g></g></g></g><text font-family="Arial,Arial_MSFontService,sans-serif" font-weight="400" font-size="18" transform="matrix(1 0 0 1 883.156 1886)">Wabbit<tspan font-size="18" x="57.2917" y="0">-</tspan><tspan font-size="18" x="-6.59998" y="22">Networks</tspan><tspan font-size="18" x="-19.2042" y="44">Build Claims</tspan></text></g></svg>