<svg width="194" height="150" xmlns="http://www.w3.org/2000/svg" xmlns:xlink="http://www.w3.org/1999/xlink" xml:space="preserve" overflow="hidden"><defs><clipPath id="clip0"><rect x="608" y="1796" width="194" height="150"/></clipPath><clipPath id="clip1"><rect x="713" y="1799" width="89" height="95"/></clipPath><clipPath id="clip2"><rect x="713" y="1799" width="89" height="95"/></clipPath><clipPath id="clip3"><rect x="713" y="1799" width="89" height="95"/></clipPath><clipPath id="clip4"><rect x="713" y="1799" width="89" height="95"/></clipPath><clipPath id="clip5"><rect x="629" y="1796" width="81" height="81"/></clipPath><clipPath id="clip6"><rect x="629" y="1796" width="81" height="81"/></clipPath><clipPath id="clip7"><rect x="629" y="1796" width="81" height="81"/></clipPath><clipPath id="clip8"><rect x="629" y="1796" width="81" height="81"/></clipPath></defs><g clip-path="url(#clip0)" transform="translate(-608 -1796)"><g clip-path="url(#clip1)"><g clip-path="url(#clip2)"><g clip-path="url(#clip3)"><g clip-path="url(#clip4)"><path d="M788.952 420.19 824 420.19 824 422.857 788.952 422.857Z" fill-rule="evenodd" transform="matrix(1 0 0 1.00051 -39.5238 1404.37)"/><path d="M35.4879 26.1253 35.4879 24.8359 52.9794 24.8359 70.4712 24.8359 70.4712 26.1253 70.4712 27.4148 52.9794 27.4148 35.4879 27.4148Z" transform="matrix(1 0 0 1.00051 714 1800)"/><path d="M788.952 440 811.048 440 811.048 442.667 788.952 442.667Z" fill-rule="evenodd" transform="matrix(1 0 0 1.00051 -39.5238 1404.37)"/><path d="M816.381 440 824 440 824 442.667 816.381 442.667Z" fill-rule="evenodd" transform="matrix(1 0 0 1.00051 -39.5238 1404.37)"/><path d="M788.952 452.952 811.048 452.952 811.048 455.619 788.952 455.619Z" fill-rule="evenodd" transform="matrix(1 0 0 1.00051 -39.5238 1404.37)"/><path d="M816.381 452.952 824 452.952 824 455.619 816.381 455.619Z" fill-rule="evenodd" transform="matrix(1 0 0 1.00051 -39.5238 1404.37)"/><path d="M788.952 466.286 811.048 466.286 811.048 468.571 788.952 468.571Z" fill-rule="evenodd" transform="matrix(1 0 0 1.00051 -39.5238 1404.37)"/><path d="M816.381 466.286 824 466.286 824 468.571 816.381 468.571Z" fill-rule="evenodd" transform="matrix(1 0 0 1.00051 -39.5238 1404.37)"/><path d="M774.434 479.227 838.476 479.227 838.476 412.4C838.469 405.977 833.265 400.77 826.846 400.762L765.154 400.762C758.735 400.77 753.531 405.977 753.524 412.4L753.524 433.455 774.434 433.455 774.434 479.227ZM826.846 403.379C831.821 403.383 835.855 407.421 835.863 412.4L835.863 488.381 777.048 488.381 777.048 412.4C777.048 408.899 775.47 405.585 772.75 403.379L826.846 403.379ZM756.137 430.842 756.137 412.4C756.145 407.421 760.179 403.383 765.154 403.379L765.417 403.379C770.396 403.383 774.43 407.421 774.434 412.4L774.434 430.842 756.137 430.842ZM774.434 481.844 838.476 481.844 774.434 481.844Z" fill-rule="evenodd" transform="matrix(1 0 0 1.00051 -39.5238 1404.37)"/><path d="M23.6018 50.0362C23.6011 13.7677 23.6258 15.3615 23.0348 13.4551 22.5129 11.7717 21.4047 9.95219 20.1144 8.66042L19.4691 8.01436 47.1848 8.04579C78.4206 8.08118 75.2244 7.98293 77.2549 8.97009 79.4876 10.0558 81.0697 11.9171 81.9249 14.4642L82.1882 15.2491 82.2175 49.4754 82.2465 83.7021 52.9246 83.7021 23.6025 83.7021ZM57.5768 71.9848 57.5768 70.8076 46.4762 70.8076 35.3757 70.8076 35.3757 71.9848 35.3757 73.1623 46.4762 73.1623 57.5768 73.1623ZM70.5832 71.9848 70.5832 70.8076 66.715 70.8076 62.8465 70.8076 62.8465 71.9848 62.8465 73.1623 66.715 73.1623 70.5832 73.1623ZM57.5768 58.8663 57.5768 57.4644 46.4762 57.4644 35.3757 57.4644 35.3757 58.8663 35.3757 60.2678 46.4762 60.2678 57.5768 60.2678ZM70.5832 58.8663 70.5832 57.4644 66.715 57.4644 62.8465 57.4644 62.8465 58.8663 62.8465 60.2678 66.715 60.2678 70.5832 60.2678ZM57.5768 45.9154 57.5768 44.5699 46.4762 44.5699 35.3757 44.5699 35.3757 45.9154 35.3757 47.261 46.4762 47.261 57.5768 47.261ZM70.5832 45.9154 70.5832 44.5699 66.715 44.5699 62.8465 44.5699 62.8465 45.9154 62.8465 47.261 66.715 47.261 70.5832 47.261ZM70.5589 26.0973 70.5901 24.7238 52.9829 24.7238 35.3757 24.7238 35.3757 26.1257 35.3757 27.5276 52.9516 27.4992 70.5272 27.4709Z" fill="#FFFFFF" transform="matrix(1 0 0 1.00051 714 1800)"/><path d="M2.66013 25.4806 2.6955 15.5855 3.00298 14.5979C3.92171 11.6473 5.89128 9.53101 8.63371 8.54785 10.246 7.96983 12.5187 7.86453 14.1278 8.29333 17.0579 9.07406 19.386 11.2715 20.4281 14.24L20.743 15.137 20.7746 25.2564 20.8062 35.3757 11.7155 35.3757 2.62476 35.3757Z" fill="#FFFFFF" transform="matrix(1 0 0 1.00051 714 1800)"/><text font-family="Arial,Arial_MSFontService,sans-serif" font-weight="400" font-size="37" transform="matrix(0.380952 0 0 0.381148 742.144 1821)">Receipt</text></g></g></g></g><g clip-path="url(#clip5)"><g clip-path="url(#clip6)"><g clip-path="url(#clip7)"><g clip-path="url(#clip8)"><path d="M702.356 1875.85 702.356 1852.88C702.356 1852.61 702.223 1852.36 702.001 1852.2L698.582 1849.81C698.582 1849.8 698.582 1849.8 698.582 1849.8L702.168 1845.5C702.394 1845.23 702.425 1844.84 702.241 1844.54L700.081 1840.93C700.077 1840.93 700.077 1840.93 700.081 1840.92L702.116 1838.89C702.269 1838.73 702.356 1838.52 702.356 1838.3L702.356 1834.55C702.356 1830.18 698.811 1826.63 694.439 1826.63L651.938 1826.63C647.59 1826.62 644.049 1830.13 644.022 1834.48 644.025 1836.88 645.135 1839.15 647.03 1840.63 647.945 1841.28 649.037 1841.63 650.157 1841.64 650.3 1841.64 650.443 1841.62 650.585 1841.61 650.62 1841.62 650.655 1841.63 650.689 1841.63L658.189 1841.63 658.189 1863.72C658.189 1863.94 658.276 1864.15 658.432 1864.3L661.587 1867.46 661.587 1867.47 658.018 1871.04C657.862 1871.2 657.771 1871.41 657.771 1871.63L657.771 1882.88C657.771 1887.25 661.316 1890.8 665.688 1890.8L701.291 1890.8C705.183 1890.85 708.488 1887.97 708.978 1884.11 709.42 1880.01 706.46 1876.31 702.356 1875.85ZM653.869 1839.97C654.498 1839.24 654.846 1838.32 654.856 1837.36 654.87 1835.09 653.044 1833.24 650.776 1833.23 650.749 1833.23 650.717 1833.23 650.689 1833.23 650.23 1833.23 649.855 1833.61 649.855 1834.06 649.855 1834.52 650.23 1834.9 650.689 1834.9 652.046 1834.87 653.166 1835.95 653.19 1837.31 653.19 1837.33 653.19 1837.34 653.19 1837.36 653.149 1838.32 652.582 1839.17 651.719 1839.58 650.529 1840.18 649.103 1840.07 648.022 1839.29 646.547 1838.13 645.688 1836.35 645.688 1834.48 645.709 1831.02 648.523 1828.24 651.976 1828.26 655.427 1828.28 658.209 1831.1 658.189 1834.55L658.189 1839.97ZM659.441 1882.88 659.441 1871.98 663.361 1868.05C663.688 1867.73 663.688 1867.2 663.361 1866.88L659.855 1863.37 659.855 1834.55C659.855 1832.11 658.731 1829.81 656.811 1828.31 656.808 1828.31 656.808 1828.3 656.811 1828.3 656.811 1828.3 656.815 1828.3 656.815 1828.3L694.439 1828.3C697.89 1828.3 700.69 1831.1 700.69 1834.55L700.69 1837.95 698.432 1840.21C698.164 1840.48 698.112 1840.9 698.307 1841.23L700.502 1844.89 696.717 1849.43C696.422 1849.79 696.47 1850.31 696.825 1850.6 696.843 1850.62 696.863 1850.64 696.884 1850.65L700.69 1853.32 700.69 1875.8 668.189 1875.81C667.274 1875.75 666.363 1875.95 665.552 1876.37 664.136 1877.07 663.229 1878.49 663.19 1880.07 663.173 1882.34 664.999 1884.19 667.267 1884.2 667.298 1884.2 667.326 1884.2 667.357 1884.2 667.816 1884.2 668.189 1883.83 668.189 1883.37 668.189 1882.91 667.816 1882.53 667.357 1882.53 666.001 1882.56 664.881 1881.48 664.856 1880.12 664.856 1880.11 664.856 1880.09 664.856 1880.07 664.895 1879.12 665.462 1878.26 666.328 1877.85 667.517 1877.25 668.943 1877.36 670.022 1878.14 671.496 1879.31 672.356 1881.08 672.356 1882.96 672.331 1886.39 669.535 1889.15 666.105 1889.13L665.688 1889.13C662.237 1889.13 659.441 1886.33 659.441 1882.88ZM701.319 1889.13 670.992 1889.13C670.989 1889.13 670.982 1889.13 670.982 1889.13 670.978 1889.13 670.982 1889.12 670.985 1889.12 674.387 1886.51 675.027 1881.63 672.415 1878.23 672.209 1877.96 671.987 1877.71 671.747 1877.47L701.524 1877.47C704.749 1877.47 707.361 1880.09 707.357 1883.31 707.357 1883.57 707.34 1883.82 707.305 1884.07 706.857 1887.01 704.3 1889.17 701.319 1889.13Z" transform="matrix(1 0 0 1.0125 -7.52246 -45.8642)"/><path d="M677.357 1839.97 691.521 1839.97 691.521 1841.63 677.357 1841.63Z" transform="matrix(1 0 0 1.0125 -7.52246 -45.8642)"/><path d="M669.023 1839.97 674.022 1839.97 674.022 1841.63 669.023 1841.63Z" transform="matrix(1 0 0 1.0125 -7.52246 -45.8642)"/><path d="M677.357 1864.97 691.521 1864.97 691.521 1866.63 677.357 1866.63Z" transform="matrix(1 0 0 1.0125 -7.52246 -45.8642)"/><path d="M669.023 1864.97 674.022 1864.97 674.022 1866.63 669.023 1866.63Z" transform="matrix(1 0 0 1.0125 -7.52246 -45.8642)"/><path d="M669.023 1848.3 683.19 1848.3 683.19 1849.97 669.023 1849.97Z" transform="matrix(1 0 0 1.0125 -7.52246 -45.8642)"/><path d="M686.523 1848.3 691.521 1848.3 691.521 1849.97 686.523 1849.97Z" transform="matrix(1 0 0 1.0125 -7.52246 -45.8642)"/><path d="M669.023 1856.63 691.521 1856.63 691.521 1858.3 669.023 1858.3Z" transform="matrix(1 0 0 1.0125 -7.52246 -45.8642)"/><path d="M35.2553 69.3528C36.9169 67.6912 37.7475 65.3204 37.4832 62.9945 37.3079 61.4515 36.8296 60.2589 35.8947 59.0314L35.3646 58.3354 50.1552 58.3385C58.7096 58.3402 65.2373 58.3792 65.6376 58.4314 68.4533 58.7973 70.5712 61.0352 70.7517 63.8359 70.9093 66.2773 69.3949 68.5684 66.9723 69.5535L66.2004 69.8676 50.4449 69.893 34.6896 69.9183Z" fill="#FFFFFF" transform="matrix(1 0 0 1.0125 629 1796)"/><path d="M27.4548 69.6898C25.7725 69.1889 24.3944 68.0331 23.6388 66.4898 22.9687 65.1211 22.9835 65.285 22.9428 58.7987L22.9059 52.9409 24.9632 50.8529C26.0947 49.7048 27.053 48.6783 27.0928 48.5722 27.2505 48.1517 27.0292 47.8508 25.2249 46.0307L23.4064 44.1962 23.3793 29.191 23.3522 14.1858 23.1335 13.4138C22.7175 11.9453 22.1587 10.971 21.0988 9.86617L20.4728 9.21361 39.766 9.2389 59.0592 9.26418 59.8835 9.55945C61.7642 10.233 63.1152 11.5848 63.7789 13.4578 64.0665 14.2696 64.0717 14.3169 64.1076 16.5364L64.1437 18.7905 62.8801 20.0667C61.8192 21.1382 61.6164 21.3898 61.6164 21.6349 61.6164 21.8359 61.9729 22.5234 62.7601 23.8399L63.9034 25.7529 61.9399 28.1123C60.1309 30.2857 59.9761 30.5012 59.9761 30.8451 59.9761 31.0732 60.0422 31.284 60.1458 31.3872 60.2394 31.4801 61.1729 32.1567 62.2206 32.8909L64.1256 34.2256 64.1256 45.4119 64.1256 56.5983 47.5514 56.6001C29.3427 56.6018 30.2654 56.5726 29.0152 57.1865 27.8122 57.7775 26.9076 59.0102 26.6789 60.3702 26.2899 62.6832 28.0987 64.9347 30.4555 65.071 31.1587 65.1117 31.2181 65.0996 31.4521 64.8655 31.7765 64.5413 31.787 64.0436 31.4771 63.6832 31.3006 63.478 31.1265 63.4056 30.6538 63.341 29.6704 63.2063 29.021 62.7587 28.6482 61.9583 27.9427 60.4432 28.9754 58.7868 30.8367 58.4488 32.4845 58.1493 34.1548 59.1862 35.0846 61.0856 35.5715 62.0808 35.7541 62.8178 35.7541 63.7928 35.7541 66.5841 33.8038 69.0766 31.0775 69.7695 30.1771 69.9983 28.3565 69.9584 27.4548 69.6898ZM37.5875 46.6588 37.5875 45.7903 35.0303 45.7903 32.4729 45.7903 32.4729 46.6588 32.4729 47.5274 35.0303 47.5274 37.5875 47.5274ZM55.0543 46.6588 55.0543 45.7903 47.9131 45.7903 40.7722 45.7903 40.7722 46.6588 40.7722 47.5274 47.9131 47.5274 55.0543 47.5274ZM55.0543 38.3594 55.0543 37.4908 43.7635 37.4908 32.4729 37.4908 32.4729 38.3594 32.4729 39.2279 43.7635 39.2279 55.0543 39.2279ZM46.7347 29.988 46.7625 29.0953 39.6178 29.0953 32.4729 29.0953 32.4729 30.0127 32.4729 30.9301 39.59 30.9054 46.7068 30.8806ZM55.0543 30.0121 55.0543 29.0953 52.4971 29.0953 49.9399 29.0953 49.9399 30.0121 49.9399 30.9289 52.4971 30.9289 55.0543 30.9289ZM37.5875 21.6647 37.5875 20.7962 35.0303 20.7962 32.4729 20.7962 32.4729 21.6647 32.4729 22.5332 35.0303 22.5332 37.5875 22.5332ZM55.0543 21.6647 55.0543 20.7962 47.9131 20.7962 40.7722 20.7962 40.7722 21.6647 40.7722 22.5332 47.9131 22.5332 55.0543 22.5332Z" fill="#FFFFFF" transform="matrix(1 0 0 1.0125 629 1796)"/><path d="M12.4836 20.5791C11.4035 20.2003 10.4554 19.2604 9.82812 17.9466 9.00109 16.2143 9.02742 14.3764 9.90471 12.5968 10.6692 11.0461 12.308 9.74961 14.0048 9.3533 14.9007 9.14405 16.4615 9.20766 17.3221 9.4886 19.1011 10.0693 20.5902 11.5249 21.2419 13.3203 21.5707 14.2261 21.663 15.2967 21.6639 18.2147L21.6647 20.7962 19.5987 20.7962 17.5328 20.7962 17.8666 20.1448C18.7067 18.5051 18.462 16.6602 17.2318 15.3595 16.4714 14.5554 15.3148 14.041 14.2674 14.041 13.4446 14.041 12.998 14.8622 13.4978 15.4562 13.7029 15.6999 13.8421 15.7621 14.3035 15.8161 15.41 15.9456 16.2258 16.5996 16.5129 17.5872 16.9625 19.1336 15.6794 20.6215 13.7796 20.757 13.2565 20.7943 12.9949 20.7584 12.4836 20.5791Z" fill="#FFFFFF" transform="matrix(1 0 0 1.0125 629 1796)"/></g></g></g></g><text font-family="Arial,Arial_MSFontService,sans-serif" font-weight="400" font-size="18" transform="matrix(1 0 0 1 639.094 1886)">Wabbit<tspan font-size="18" x="57.2917" y="0">-</tspan><tspan font-size="18" x="-6.59998" y="22">Networks</tspan><tspan font-size="18" x="-19.2042" y="44">Build Claims</tspan></text></g></svg>