<svg width="128" height="150" xmlns="http://www.w3.org/2000/svg" xmlns:xlink="http://www.w3.org/1999/xlink" xml:space="preserve" overflow="hidden"><defs><clipPath id="clip0"><rect x="608" y="1796" width="128" height="150"/></clipPath><clipPath id="clip1"><rect x="702" y="1799" width="34" height="36"/></clipPath><clipPath id="clip2"><rect x="702" y="1799" width="34" height="36"/></clipPath><clipPath id="clip3"><rect x="702" y="1799" width="34" height="36"/></clipPath><clipPath id="clip4"><rect x="702" y="1799" width="34" height="36"/></clipPath><clipPath id="clip5"><rect x="629" y="1796" width="81" height="81"/></clipPath><clipPath id="clip6"><rect x="629" y="1796" width="81" height="81"/></clipPath><clipPath id="clip7"><rect x="629" y="1796" width="81" height="81"/></clipPath><clipPath id="clip8"><rect x="629" y="1796" width="81" height="81"/></clipPath></defs><g clip-path="url(#clip0)" transform="translate(-608 -1796)"><g clip-path="url(#clip1)"><g clip-path="url(#clip2)"><g clip-path="url(#clip3)"><g clip-path="url(#clip4)"><path d="M295.857 157.571 309 157.571 309 158.571 295.857 158.571Z" fill-rule="evenodd" transform="matrix(-1 0 0 1.0041 1018.57 1651.11)"/><path d="M13.3079 9.797 13.3079 9.31346 19.8673 9.31346 26.4267 9.31346 26.4267 9.797 26.4267 10.2805 19.8673 10.2805 13.3079 10.2805Z" transform="matrix(-1 0 0 1.0041 736 1800)"/><path d="M295.857 165 304.143 165 304.143 166 295.857 166Z" fill-rule="evenodd" transform="matrix(-1 0 0 1.0041 1018.57 1651.11)"/><path d="M306.143 165 309 165 309 166 306.143 166Z" fill-rule="evenodd" transform="matrix(-1 0 0 1.0041 1018.57 1651.11)"/><path d="M295.857 169.857 304.143 169.857 304.143 170.857 295.857 170.857Z" fill-rule="evenodd" transform="matrix(-1 0 0 1.0041 1018.57 1651.11)"/><path d="M306.143 169.857 309 169.857 309 170.857 306.143 170.857Z" fill-rule="evenodd" transform="matrix(-1 0 0 1.0041 1018.57 1651.11)"/><path d="M295.857 174.857 304.143 174.857 304.143 175.714 295.857 175.714Z" fill-rule="evenodd" transform="matrix(-1 0 0 1.0041 1018.57 1651.11)"/><path d="M306.143 174.857 309 174.857 309 175.714 306.143 175.714Z" fill-rule="evenodd" transform="matrix(-1 0 0 1.0041 1018.57 1651.11)"/><path d="M290.413 179.71 314.429 179.71 314.429 154.65C314.426 152.241 312.474 150.289 310.067 150.286L286.933 150.286C284.526 150.289 282.574 152.241 282.571 154.65L282.571 162.546 290.413 162.546 290.413 179.71ZM310.067 151.267C311.933 151.269 313.446 152.783 313.449 154.65L313.449 183.143 291.393 183.143 291.393 154.65C291.393 153.337 290.801 152.094 289.781 151.267L310.067 151.267ZM283.551 161.566 283.551 154.65C283.554 152.783 285.067 151.269 286.933 151.267L287.031 151.267C288.899 151.269 290.411 152.783 290.413 154.65L290.413 161.566 283.551 161.566ZM290.413 180.691 314.429 180.691 290.413 180.691Z" fill-rule="evenodd" transform="matrix(-1 0 0 1.0041 1018.57 1651.11)"/><path d="M8.85069 18.7636C8.85042 5.16289 8.85969 5.76055 8.63806 5.04567 8.44234 4.41437 8.02677 3.73208 7.54291 3.24765L7.30093 3.00539 17.6942 3.01717C29.4078 3.03044 28.2092 2.99359 28.9705 3.36379 29.8079 3.77092 30.4012 4.4689 30.7218 5.42409L30.8206 5.71842 30.8315 18.5533 30.8424 31.3882 19.8467 31.3882 8.85094 31.3882ZM21.5912 26.9943 21.5912 26.5528 17.4286 26.5528 13.2659 26.5528 13.2659 26.9943 13.2659 27.4358 17.4286 27.4358 21.5912 27.4358ZM26.4687 26.9943 26.4687 26.5528 25.0181 26.5528 23.5675 26.5528 23.5675 26.9943 23.5675 27.4358 25.0181 27.4358 26.4687 27.4358ZM21.5912 22.0748 21.5912 21.5492 17.4286 21.5492 13.2659 21.5492 13.2659 22.0748 13.2659 22.6004 17.4286 22.6004 21.5912 22.6004ZM26.4687 22.0748 26.4687 21.5492 25.0181 21.5492 23.5675 21.5492 23.5675 22.0748 23.5675 22.6004 25.0181 22.6004 26.4687 22.6004ZM21.5912 17.2183 21.5912 16.7138 17.4286 16.7138 13.2659 16.7138 13.2659 17.2183 13.2659 17.7229 17.4286 17.7229 21.5912 17.7229ZM26.4687 17.2183 26.4687 16.7138 25.0181 16.7138 23.5675 16.7138 23.5675 17.2183 23.5675 17.7229 25.0181 17.7229 26.4687 17.7229ZM26.4595 9.78649 26.4713 9.27141 19.8686 9.27141 13.2659 9.27141 13.2659 9.79713 13.2659 10.3229 19.8568 10.3122 26.4477 10.3016Z" fill="#FFFFFF" transform="matrix(-1 0 0 1.0041 736 1800)"/><path d="M0.997548 9.55523 1.01081 5.84456 1.12612 5.47423C1.47064 4.36773 2.20923 3.57413 3.23764 3.20544 3.84225 2.98868 4.69449 2.9492 5.29795 3.11 6.3967 3.40277 7.26976 4.22683 7.66054 5.34L7.77863 5.67637 7.79048 9.47114 7.80232 13.2659 4.3933 13.2659 0.984285 13.2659Z" fill="#FFFFFF" transform="matrix(-1 0 0 1.0041 736 1800)"/><text font-family="Arial,Arial_MSFontService,sans-serif" font-weight="400" font-size="37" transform="matrix(-0.142857 0 0 0.143443 725.446 1808)">Receipt</text></g></g></g></g><g clip-path="url(#clip5)"><g clip-path="url(#clip6)"><g clip-path="url(#clip7)"><g clip-path="url(#clip8)"><path d="M702.356 1875.85 702.356 1852.88C702.356 1852.61 702.223 1852.36 702.001 1852.2L698.582 1849.81C698.582 1849.8 698.582 1849.8 698.582 1849.8L702.168 1845.5C702.394 1845.23 702.425 1844.84 702.241 1844.54L700.081 1840.93C700.077 1840.93 700.077 1840.93 700.081 1840.92L702.116 1838.89C702.269 1838.73 702.356 1838.52 702.356 1838.3L702.356 1834.55C702.356 1830.18 698.811 1826.63 694.439 1826.63L651.938 1826.63C647.59 1826.62 644.049 1830.13 644.022 1834.48 644.025 1836.88 645.135 1839.15 647.03 1840.63 647.945 1841.28 649.037 1841.63 650.157 1841.64 650.3 1841.64 650.443 1841.62 650.585 1841.61 650.62 1841.62 650.655 1841.63 650.689 1841.63L658.189 1841.63 658.189 1863.72C658.189 1863.94 658.276 1864.15 658.432 1864.3L661.587 1867.46 661.587 1867.47 658.018 1871.04C657.862 1871.2 657.771 1871.41 657.771 1871.63L657.771 1882.88C657.771 1887.25 661.316 1890.8 665.688 1890.8L701.291 1890.8C705.183 1890.85 708.488 1887.97 708.978 1884.11 709.42 1880.01 706.46 1876.31 702.356 1875.85ZM653.869 1839.97C654.498 1839.24 654.846 1838.32 654.856 1837.36 654.87 1835.09 653.044 1833.24 650.776 1833.23 650.749 1833.23 650.717 1833.23 650.689 1833.23 650.23 1833.23 649.855 1833.61 649.855 1834.06 649.855 1834.52 650.23 1834.9 650.689 1834.9 652.046 1834.87 653.166 1835.95 653.19 1837.31 653.19 1837.33 653.19 1837.34 653.19 1837.36 653.149 1838.32 652.582 1839.17 651.719 1839.58 650.529 1840.18 649.103 1840.07 648.022 1839.29 646.547 1838.13 645.688 1836.35 645.688 1834.48 645.709 1831.02 648.523 1828.24 651.976 1828.26 655.427 1828.28 658.209 1831.1 658.189 1834.55L658.189 1839.97ZM659.441 1882.88 659.441 1871.98 663.361 1868.05C663.688 1867.73 663.688 1867.2 663.361 1866.88L659.855 1863.37 659.855 1834.55C659.855 1832.11 658.731 1829.81 656.811 1828.31 656.808 1828.31 656.808 1828.3 656.811 1828.3 656.811 1828.3 656.815 1828.3 656.815 1828.3L694.439 1828.3C697.89 1828.3 700.69 1831.1 700.69 1834.55L700.69 1837.95 698.432 1840.21C698.164 1840.48 698.112 1840.9 698.307 1841.23L700.502 1844.89 696.717 1849.43C696.422 1849.79 696.47 1850.31 696.825 1850.6 696.843 1850.62 696.863 1850.64 696.884 1850.65L700.69 1853.32 700.69 1875.8 668.189 1875.81C667.274 1875.75 666.363 1875.95 665.552 1876.37 664.136 1877.07 663.229 1878.49 663.19 1880.07 663.173 1882.34 664.999 1884.19 667.267 1884.2 667.298 1884.2 667.326 1884.2 667.357 1884.2 667.816 1884.2 668.189 1883.83 668.189 1883.37 668.189 1882.91 667.816 1882.53 667.357 1882.53 666.001 1882.56 664.881 1881.48 664.856 1880.12 664.856 1880.11 664.856 1880.09 664.856 1880.07 664.895 1879.12 665.462 1878.26 666.328 1877.85 667.517 1877.25 668.943 1877.36 670.022 1878.14 671.496 1879.31 672.356 1881.08 672.356 1882.96 672.331 1886.39 669.535 1889.15 666.105 1889.13L665.688 1889.13C662.237 1889.13 659.441 1886.33 659.441 1882.88ZM701.319 1889.13 670.992 1889.13C670.989 1889.13 670.982 1889.13 670.982 1889.13 670.978 1889.13 670.982 1889.12 670.985 1889.12 674.387 1886.51 675.027 1881.63 672.415 1878.23 672.209 1877.96 671.987 1877.71 671.747 1877.47L701.524 1877.47C704.749 1877.47 707.361 1880.09 707.357 1883.31 707.357 1883.57 707.34 1883.82 707.305 1884.07 706.857 1887.01 704.3 1889.17 701.319 1889.13Z" transform="matrix(1 0 0 1.0125 -7.52246 -45.8642)"/><path d="M677.357 1839.97 691.521 1839.97 691.521 1841.63 677.357 1841.63Z" transform="matrix(1 0 0 1.0125 -7.52246 -45.8642)"/><path d="M669.023 1839.97 674.022 1839.97 674.022 1841.63 669.023 1841.63Z" transform="matrix(1 0 0 1.0125 -7.52246 -45.8642)"/><path d="M677.357 1864.97 691.521 1864.97 691.521 1866.63 677.357 1866.63Z" transform="matrix(1 0 0 1.0125 -7.52246 -45.8642)"/><path d="M669.023 1864.97 674.022 1864.97 674.022 1866.63 669.023 1866.63Z" transform="matrix(1 0 0 1.0125 -7.52246 -45.8642)"/><path d="M669.023 1848.3 683.19 1848.3 683.19 1849.97 669.023 1849.97Z" transform="matrix(1 0 0 1.0125 -7.52246 -45.8642)"/><path d="M686.523 1848.3 691.521 1848.3 691.521 1849.97 686.523 1849.97Z" transform="matrix(1 0 0 1.0125 -7.52246 -45.8642)"/><path d="M669.023 1856.63 691.521 1856.63 691.521 1858.3 669.023 1858.3Z" transform="matrix(1 0 0 1.0125 -7.52246 -45.8642)"/><path d="M35.2552 69.3529C36.9168 67.6913 37.7475 65.3206 37.4832 62.9947 37.3079 61.4516 36.8297 60.2587 35.8946 59.0313L35.3644 58.3354 50.1551 58.3384C58.7098 58.3401 65.2374 58.3793 65.6375 58.4313 68.4532 58.7971 70.5711 61.0353 70.7518 63.836 70.9093 66.2775 69.3949 68.5685 66.9723 69.5535L66.2003 69.8674 50.445 69.8928 34.6896 69.9182Z" fill="#FFFFFF" transform="matrix(1 0 0 1.0125 629 1796)"/><path d="M27.4548 69.6898C25.7725 69.1888 24.3944 68.0332 23.6388 66.4898 22.9687 65.121 22.9835 65.2848 22.9428 58.7986L22.906 52.9409 24.9632 50.853C26.0948 49.7046 27.053 48.6783 27.0928 48.5724 27.2505 48.1518 27.0292 47.8507 25.2249 46.0306L23.4064 44.1963 23.3793 29.191 23.3522 14.1858 23.1335 13.4138C22.7175 11.9453 22.1587 10.971 21.0988 9.86615L20.4727 9.2136 39.766 9.23888 59.0592 9.26417 59.8837 9.55946C61.7644 10.233 63.1152 11.5848 63.7789 13.4577 64.0666 14.2696 64.0717 14.3169 64.1075 16.5364L64.1439 18.7905 62.8802 20.0667C61.8192 21.1382 61.6165 21.3897 61.6165 21.6349 61.6165 21.8359 61.973 22.5234 62.76 23.8399L63.9035 25.7529 61.9397 28.1123C60.1308 30.2858 59.976 30.5012 59.976 30.8451 59.976 31.0732 60.0421 31.284 60.1459 31.3872 60.2393 31.4801 61.173 32.1567 62.2207 32.8909L64.1255 34.2256 64.1255 45.412 64.1255 56.5984 47.5513 56.6C29.3427 56.6019 30.2654 56.5726 29.0152 57.1866 27.8122 57.7774 26.9076 59.01 26.6789 60.3702 26.2899 62.6833 28.0987 64.9347 30.4555 65.0712 31.1587 65.1119 31.2181 65.0997 31.4521 64.8656 31.7765 64.5412 31.787 64.0434 31.4771 63.6831 31.3006 63.4778 31.1265 63.4055 30.6538 63.3409 29.6704 63.2064 29.021 62.7586 28.6482 61.9582 27.9427 60.4431 28.9754 58.787 30.8367 58.4487 32.4845 58.1492 34.1548 59.186 35.0847 61.0857 35.5717 62.0806 35.754 62.818 35.754 63.7926 35.754 66.584 33.8038 69.0764 31.0775 69.7694 30.1771 69.9983 28.3565 69.9583 27.4548 69.6898ZM37.5875 46.6587 37.5875 45.7902 35.0302 45.7902 32.4729 45.7902 32.4729 46.6587 32.4729 47.5272 35.0302 47.5272 37.5875 47.5272ZM55.0543 46.6587 55.0543 45.7902 47.9132 45.7902 40.7721 45.7902 40.7721 46.6587 40.7721 47.5272 47.9132 47.5272 55.0543 47.5272ZM55.0543 38.3595 55.0543 37.491 43.7636 37.491 32.4729 37.491 32.4729 38.3595 32.4729 39.228 43.7636 39.228 55.0543 39.228ZM46.7347 29.988 46.7625 29.0953 39.6177 29.0953 32.4729 29.0953 32.4729 30.0127 32.4729 30.9301 39.5899 30.9053 46.7069 30.8806ZM55.0543 30.0121 55.0543 29.0953 52.497 29.0953 49.9397 29.0953 49.9397 30.0121 49.9397 30.9289 52.497 30.9289 55.0543 30.9289ZM37.5875 21.6647 37.5875 20.7962 35.0302 20.7962 32.4729 20.7962 32.4729 21.6647 32.4729 22.5332 35.0302 22.5332 37.5875 22.5332ZM55.0543 21.6647 55.0543 20.7962 47.9132 20.7962 40.7721 20.7962 40.7721 21.6647 40.7721 22.5332 47.9132 22.5332 55.0543 22.5332Z" fill="#FFFFFF" transform="matrix(1 0 0 1.0125 629 1796)"/><path d="M12.4835 20.5791C11.4035 20.2003 10.4554 19.2604 9.82813 17.9466 9.0011 16.2143 9.02742 14.3764 9.90472 12.5968 10.6691 11.0461 12.308 9.74962 14.0048 9.35331 14.9008 9.14403 16.4615 9.20768 17.3221 9.48859 19.1011 10.0693 20.5902 11.5249 21.2419 13.3203 21.5707 14.2261 21.663 15.2967 21.6639 18.2147L21.6647 20.7962 19.5988 20.7962 17.5328 20.7962 17.8666 20.1448C18.7067 18.5051 18.462 16.6602 17.2319 15.3595 16.4714 14.5554 15.3148 14.041 14.2674 14.041 13.4446 14.041 12.998 14.8622 13.4978 15.4561 13.7029 15.6999 13.8421 15.7621 14.3035 15.8161 15.41 15.9456 16.2258 16.5996 16.5129 17.5872 16.9625 19.1336 15.6794 20.6214 13.7796 20.757 13.2565 20.7943 12.9949 20.7584 12.4835 20.5791Z" fill="#FFFFFF" transform="matrix(1 0 0 1.0125 629 1796)"/></g></g></g></g><text font-family="Arial,Arial_MSFontService,sans-serif" font-weight="400" font-size="18" transform="matrix(1 0 0 1 639.094 1886)">Wabbit<tspan font-size="18" x="57.2917" y="0">-</tspan><tspan font-size="18" x="-6.59998" y="22">Networks</tspan><tspan font-size="18" x="-19.2042" y="44">Build Claims</tspan></text><path d="M678 1848 658 1836 678 1824Z" fill="#FF0000" fill-rule="evenodd"/></g></svg>